<svg width="66" height="81" viewBox="0 0 66 81" fill="none" xmlns="http://www.w3.org/2000/svg">
<path d="M17.3554 16.6727C13.245 21.1949 11.2556 27.1247 11.2556 34.3073V47.3124C11.2556 54.4965 13.2447 60.4264 17.3551 64.9466C21.5068 69.5169 27.3147 71.7189 34.5577 71.7189C37.3568 71.7189 40.0205 71.358 42.5405 70.6252C45.0678 69.8917 47.31 68.8051 49.2487 67.3568L49.249 67.3566C51.1996 65.8989 52.754 64.1071 53.8971 61.9917C55.0729 59.8162 55.6348 57.3232 55.6348 54.5543V27.0661C55.6348 24.2994 55.073 21.8043 53.8971 19.6287C52.7539 17.5123 51.1994 15.7214 49.2493 14.2633L49.2487 14.2629C47.3092 12.8139 45.0667 11.7297 42.5405 10.9951L42.5397 10.9949C40.021 10.264 37.3577 9.90071 34.5577 9.90071C27.3143 9.90071 21.5068 12.1051 17.3554 16.6727ZM17.3554 16.6727L18.4654 17.6816L17.3554 16.6727ZM55.6348 15.0951V4.18149H64.5V77.4382H55.6348V66.5246V65.0246H54.1348H53.5419H52.6336L52.2127 65.8296C49.8464 70.3551 46.8221 73.6791 43.1641 75.8798C39.5053 78.081 35.1234 79.2119 29.9597 79.2119C20.9961 79.2119 14.1135 75.9064 9.13144 69.3145L9.13109 69.314C4.10736 62.6724 1.5 53.2342 1.5 40.8102C1.5 28.3877 4.10732 18.9493 9.13122 12.3054L9.13127 12.3054C14.1136 5.71586 20.9964 2.40771 29.9597 2.40771C35.1234 2.40771 39.5053 3.53868 43.1641 5.73988C46.8221 7.9406 49.8464 11.2645 52.2127 15.7901L52.6336 16.5951H53.5419H54.1348H55.6348V15.0951Z" fill="#0054F8" stroke="#0054F8" stroke-width="3"/>
</svg>
