<svg width="44" height="67" viewBox="0 0 44 67" fill="none" xmlns="http://www.w3.org/2000/svg">
<path d="M13.15 66.85C9.52333 66.85 6.54833 65.5467 4.225 62.94C1.95833 60.3333 0.825 56.4517 0.825 51.295C0.825 47.8383 1.165 44.5517 1.845 41.435C2.525 38.2617 3.51667 35.3433 4.82 32.68C6.12333 30.0167 7.68167 27.7217 9.495 25.795C11.3083 23.8117 13.32 22.2817 15.53 21.205C17.7967 20.1283 20.2333 19.59 22.84 19.59C25.1633 19.59 27.0333 19.93 28.45 20.61C29.9233 21.2333 31.1133 22.1683 32.02 23.415C32.9833 24.605 33.8617 26.0217 34.655 27.665H35.08L38.565 20.44H43.495L36.185 54.61C36.015 55.3467 35.8733 56.055 35.76 56.735C35.6467 57.3583 35.59 57.925 35.59 58.435C35.59 59.1717 35.76 59.7383 36.1 60.135C36.44 60.5317 37.0633 60.73 37.97 60.73C38.3667 60.73 38.7633 60.7017 39.16 60.645C39.6133 60.5883 40.0667 60.475 40.52 60.305L39.33 65.745C39.0467 65.915 38.6217 66.085 38.055 66.255C37.4883 66.425 36.865 66.5667 36.185 66.68C35.5617 66.7933 34.9383 66.85 34.315 66.85C33.125 66.85 32.0767 66.595 31.17 66.085C30.2633 65.6317 29.5833 64.7533 29.13 63.45C28.6767 62.09 28.5067 60.135 28.62 57.585H28.28C27.26 58.945 26.1833 60.1917 25.05 61.325C23.9167 62.4583 22.7267 63.45 21.48 64.3C20.2333 65.0933 18.9017 65.7167 17.485 66.17C16.125 66.6233 14.68 66.85 13.15 66.85ZM15.7 60.645C17.23 60.645 18.7317 60.22 20.205 59.37C21.735 58.4633 23.18 57.2167 24.54 55.63C25.9567 54.0433 27.2033 52.23 28.28 50.19C29.3567 48.15 30.235 45.9967 30.915 43.73C31.3683 42.0867 31.68 40.5283 31.85 39.055C32.02 37.525 32.105 36.165 32.105 34.975C32.105 32.3117 31.3967 30.13 29.98 28.43C28.5633 26.73 26.4667 25.88 23.69 25.88C21.9333 25.88 20.2617 26.3333 18.675 27.24C17.145 28.1467 15.7567 29.4217 14.51 31.065C13.2633 32.6517 12.1867 34.5217 11.28 36.675C10.3733 38.8283 9.665 41.1517 9.155 43.645C8.70167 46.1383 8.475 48.7167 8.475 51.38C8.475 54.4967 9.09833 56.82 10.345 58.35C11.6483 59.88 13.4333 60.645 15.7 60.645ZM22.33 14.49L22.5 13.47L29.47 0.0399981H38.48L38.31 0.889997L27.345 14.49H22.33Z" fill="#0054F8"/>
</svg>
