<svg width="194" height="158" viewBox="0 0 194 158" fill="none" xmlns="http://www.w3.org/2000/svg">
<rect x="2.27026" y="2.17554" width="189.371" height="153.481" fill="#0054F8" stroke="white" stroke-width="3"/>
<rect x="142.958" y="2.17554" width="48.6818" height="44.375" fill="#0054F8" stroke="white" stroke-width="3"/>
<rect x="112.811" y="138.558" width="78.8295" height="17.0985" fill="white" stroke="white" stroke-width="3"/>
<rect x="167.365" y="138.558" width="24.2765" height="17.0985" fill="#0054F8" stroke="white" stroke-width="3"/>
<rect x="2.27002" y="45.2439" width="189.371" height="94.6211" fill="#0054F8" stroke="white" stroke-width="3"/>
<path d="M49.84 113.12C47.6661 113.12 45.7337 112.814 44.0429 112.202C42.3923 111.55 41.0638 110.469 40.0573 108.96C39.0912 107.41 38.5477 105.268 38.4269 102.535L37.4607 81.2428H42.3521L43.3182 101.434C43.439 103.351 43.7812 104.799 44.3448 105.778C44.9084 106.716 45.6935 107.348 46.6999 107.675C47.7466 107.96 48.9946 108.103 50.4439 108.103C51.2893 108.103 51.8932 108.348 52.2555 108.837C52.6581 109.286 52.8594 109.837 52.8594 110.489C52.8594 111.142 52.5776 111.754 52.014 112.325C51.4504 112.855 50.7257 113.12 49.84 113.12ZM40.7216 106.39C38.4269 107.124 36.1926 107.491 34.0187 107.491C31.8447 107.491 29.8721 107.165 28.1007 106.512C26.3294 105.86 24.9204 104.921 23.8736 103.698C22.8269 102.433 22.3036 100.924 22.3036 99.17C22.3036 97.4568 22.7263 95.8456 23.5717 94.3364C24.4574 92.8272 25.645 91.4811 27.1345 90.2982C28.6643 89.1153 30.4156 88.1363 32.3882 87.3613C34.4011 86.5455 36.5348 85.9949 38.7892 85.7093L39.6346 90.8489C37.6217 90.9304 35.8303 91.216 34.2602 91.7054C32.7304 92.1541 31.422 92.7456 30.3351 93.4798C29.2883 94.214 28.4832 95.0094 27.9196 95.866C27.356 96.7226 27.0742 97.5588 27.0742 98.3746C27.0742 99.272 27.3962 100.006 28.0403 100.577C28.6845 101.148 29.5098 101.597 30.5162 101.923C31.5227 102.209 32.6298 102.392 33.8375 102.474C35.0452 102.515 36.2127 102.474 37.3399 102.352C38.4672 102.188 39.4334 101.964 40.2385 101.679L40.7216 106.39ZM39.4535 74.2066C38.6081 74.2066 37.8834 73.9211 37.2796 73.35C36.7159 72.7382 36.4341 72.0243 36.4341 71.2085C36.4341 70.3927 36.7159 69.6789 37.2796 69.0671C37.8834 68.4552 38.6081 68.1493 39.4535 68.1493C40.2586 68.1493 40.943 68.4552 41.5066 69.0671C42.1105 69.6789 42.4124 70.3927 42.4124 71.2085C42.4124 72.0243 42.1105 72.7382 41.5066 73.35C40.943 73.9211 40.2586 74.2066 39.4535 74.2066ZM31.1805 74.2066C30.3351 74.2066 29.6104 73.9211 29.0065 73.35C28.4429 72.7382 28.1611 72.0243 28.1611 71.2085C28.1611 70.3927 28.4429 69.6789 29.0065 69.0671C29.6104 68.4552 30.3351 68.1493 31.1805 68.1493C31.9856 68.1493 32.67 68.4552 33.2336 69.0671C33.8375 69.6789 34.1394 70.3927 34.1394 71.2085C34.1394 72.0243 33.8375 72.7382 33.2336 73.35C32.67 73.9211 31.9856 74.2066 31.1805 74.2066Z" fill="white"/>
<path d="M49.8598 113.12L50.4637 108.103C52.4766 108.103 54.0467 107.96 55.1739 107.675C56.3011 107.348 57.1465 106.757 57.7102 105.9C58.314 105.003 58.7971 103.718 59.1594 102.046C59.5218 100.373 59.9646 98.191 60.488 95.4989L65.1981 96.4167C65.0371 97.1509 64.8559 97.9667 64.6546 98.8641C64.4534 99.7615 64.2722 100.659 64.1112 101.556C63.9904 102.413 63.93 103.167 63.93 103.82C63.93 104.432 63.9703 105.003 64.0508 105.533C64.1313 106.063 64.4332 106.512 64.9566 106.879C65.4799 107.246 66.3656 107.552 67.6136 107.797C68.8616 108.001 70.6531 108.103 72.988 108.103C73.8335 108.103 74.4373 108.348 74.7997 108.837C75.2022 109.286 75.4035 109.837 75.4035 110.489C75.4035 111.142 75.1217 111.754 74.5581 112.325C73.9945 112.855 73.2699 113.12 72.3842 113.12C69.9284 113.12 67.9759 112.998 66.5266 112.753C65.0774 112.468 63.9703 112.06 63.2054 111.529C62.4807 110.999 61.9574 110.346 61.6353 109.571C61.3535 108.756 61.1321 107.817 60.971 106.757L62.7827 106.879C62.1385 108.185 61.434 109.245 60.6691 110.061C59.9445 110.877 59.0991 111.509 58.1329 111.958C57.1667 112.406 55.9992 112.712 54.6304 112.875C53.3019 113.039 51.7117 113.12 49.8598 113.12ZM65.0774 124.684C64.2319 124.684 63.5073 124.378 62.9034 123.766C62.3398 123.195 62.058 122.502 62.058 121.686C62.058 120.87 62.3398 120.156 62.9034 119.545C63.5073 118.933 64.2319 118.627 65.0774 118.627C65.8825 118.627 66.5669 118.933 67.1305 119.545C67.7344 120.156 68.0363 120.87 68.0363 121.686C68.0363 122.502 67.7344 123.195 67.1305 123.766C66.5669 124.378 65.8825 124.684 65.0774 124.684ZM56.8043 124.684C55.9589 124.684 55.2343 124.378 54.6304 123.766C54.0668 123.195 53.785 122.502 53.785 121.686C53.785 120.87 54.0668 120.156 54.6304 119.545C55.2343 118.933 55.9589 118.627 56.8043 118.627C57.6095 118.627 58.2939 118.933 58.8575 119.545C59.4614 120.156 59.7633 120.87 59.7633 121.686C59.7633 122.502 59.4614 123.195 58.8575 123.766C58.2939 124.378 57.6095 124.684 56.8043 124.684Z" fill="white"/>
<path d="M72.387 113.12L72.9909 108.103C74.9635 108.103 76.5336 107.981 77.7011 107.736C78.8685 107.491 79.714 107.002 80.2373 106.267C80.7607 105.492 81.0223 104.35 81.0223 102.841C81.0223 101.821 80.8613 100.618 80.5392 99.2312C80.2172 97.8035 79.7945 96.2943 79.2711 94.7035C78.7478 93.1127 78.1842 91.5423 77.5803 89.9923L82.4716 88.1567C82.995 89.462 83.4781 90.9508 83.9209 92.6232C84.404 94.2956 84.8066 95.9476 85.1287 97.5792C85.4507 99.2108 85.6117 100.638 85.6117 101.862C85.6117 103.494 85.4306 104.942 85.0683 106.206C84.7462 107.43 84.243 108.49 83.5586 109.388C82.8742 110.244 81.9885 110.958 80.9016 111.529C79.8549 112.06 78.627 112.468 77.218 112.753C75.8089 112.998 74.1986 113.12 72.387 113.12ZM78.8484 124.501C78.003 124.501 77.2783 124.195 76.6745 123.583C76.1109 123.012 75.8291 122.318 75.8291 121.502C75.8291 120.687 76.1109 119.973 76.6745 119.361C77.2783 118.749 78.003 118.443 78.8484 118.443C79.6536 118.443 80.338 118.749 80.9016 119.361C81.5054 119.973 81.8074 120.687 81.8074 121.502C81.8074 122.318 81.5054 123.012 80.9016 123.583C80.338 124.195 79.6536 124.501 78.8484 124.501Z" fill="white"/>
<path d="M88.8457 127.009L87.0945 122.359C90.0334 121.38 92.469 120.258 94.4013 118.994C96.374 117.729 97.9239 116.383 99.0511 114.956C100.219 113.528 101.044 112.08 101.527 110.612C102.01 109.102 102.252 107.654 102.252 106.267C102.252 104.269 101.809 102.25 100.923 100.21C100.078 98.1299 99.1317 96.1719 98.085 94.3364L102.493 92.0726C103.258 93.5002 103.922 94.9075 104.486 96.2943C105.09 97.6812 105.613 98.9864 106.056 100.21C106.539 101.434 106.922 102.556 107.203 103.575C107.767 105.329 108.492 106.533 109.377 107.185C110.303 107.797 111.551 108.103 113.121 108.103C113.967 108.103 114.571 108.348 114.933 108.837C115.335 109.286 115.537 109.837 115.537 110.489C115.537 111.142 115.255 111.754 114.691 112.325C114.128 112.855 113.403 113.12 112.517 113.12C110.746 113.12 109.297 112.814 108.17 112.202C107.083 111.55 106.257 110.714 105.694 109.694C105.13 108.633 104.748 107.532 104.546 106.39L106.479 107.491C106.479 110.183 105.875 112.631 104.667 114.833C103.5 117.077 101.99 119.014 100.138 120.646C98.2862 122.318 96.3539 123.685 94.341 124.745C92.3281 125.806 90.4963 126.56 88.8457 127.009Z" fill="white"/>
<path d="M112.547 113.12L113.151 108.103C115.566 108.103 117.841 107.879 119.974 107.43C122.108 106.94 124.06 106.308 125.832 105.533C127.643 104.717 129.193 103.8 130.482 102.78C131.77 101.719 132.756 100.638 133.441 99.5371C134.165 98.395 134.528 97.2733 134.528 96.1719C134.528 95.6417 134.346 95.1114 133.984 94.5811C133.622 94.0101 132.998 93.541 132.112 93.1739C131.267 92.8068 130.119 92.6232 128.67 92.6232C127.784 92.6232 126.798 92.7456 125.711 92.9903C124.624 93.2351 123.577 93.5818 122.571 94.0305C121.605 94.4384 120.8 94.9075 120.155 95.4377C121.242 96.3351 122.249 97.2121 123.175 98.0687C124.141 98.9253 125.127 99.8634 126.134 100.883C127.14 101.862 128.227 102.984 129.395 104.248C130.321 104.942 131.347 105.533 132.474 106.023C133.642 106.512 134.89 106.92 136.218 107.246C137.587 107.532 138.976 107.756 140.385 107.919C141.794 108.042 143.203 108.103 144.612 108.103C145.458 108.103 146.061 108.348 146.424 108.837C146.826 109.286 147.028 109.837 147.028 110.489C147.028 111.142 146.746 111.754 146.182 112.325C145.619 112.855 144.894 113.12 144.008 113.12C141.794 113.12 139.52 112.916 137.185 112.508C134.89 112.06 132.736 111.407 130.723 110.55C128.71 109.653 126.999 108.531 125.59 107.185C124.906 106.288 124.141 105.39 123.296 104.493C122.45 103.596 121.524 102.698 120.518 101.801C119.552 100.863 118.505 99.9858 117.378 99.17C117.136 98.9661 116.895 98.5989 116.653 98.0687C116.411 97.5384 116.21 96.9877 116.049 96.4167C115.888 95.8456 115.808 95.4173 115.808 95.1318C115.808 94.52 116.19 93.7857 116.955 92.9291C117.72 92.0726 118.746 91.2568 120.035 90.4818C121.323 89.666 122.792 88.9929 124.443 88.4627C126.093 87.9324 127.804 87.6672 129.576 87.6672C131.871 87.6672 133.722 88.014 135.131 88.7074C136.581 89.4008 137.627 90.2982 138.272 91.3995C138.956 92.4601 139.298 93.6022 139.298 94.8259C139.298 96.6206 138.855 98.4154 137.97 100.21C137.084 101.964 135.816 103.616 134.165 105.166C132.515 106.716 130.582 108.103 128.368 109.327C126.154 110.51 123.698 111.448 121.001 112.141C118.344 112.794 115.526 113.12 112.547 113.12Z" fill="white"/>
<path d="M144.038 113.12L144.581 108.103C146.876 108.103 148.486 107.879 149.412 107.43C150.338 106.981 150.861 106.186 150.982 105.044C151.143 103.902 151.183 102.311 151.103 100.271L149.955 69.1282H154.847L156.055 99.7207C156.135 101.883 156.055 103.8 155.813 105.472C155.612 107.144 155.088 108.552 154.243 109.694C153.438 110.836 152.21 111.693 150.559 112.264C148.949 112.835 146.775 113.12 144.038 113.12Z" fill="white"/>
<path d="M165.28 112.814L164.072 69.1282H168.963L170.171 112.814H165.28Z" fill="white"/>
<line x1="49.5807" y1="32.1943" x2="125.668" y2="32.1943" stroke="white" stroke-width="3"/>
<line x1="49.5807" y1="17.8386" x2="125.668" y2="17.8386" stroke="white" stroke-width="3"/>
<path d="M151 36L167 8L183 36H151ZM167 32.8646C167.606 32.8646 168.121 32.6458 168.546 32.2083C168.978 31.7627 169.195 31.228 169.195 30.6042C169.195 29.9803 168.978 29.4497 168.546 29.0122C168.121 28.5666 167.606 28.3438 167 28.3438C166.394 28.3438 165.875 28.5666 165.442 29.0122C165.018 29.4497 164.805 29.9803 164.805 30.6042C164.805 31.228 165.018 31.7627 165.442 32.2083C165.875 32.6458 166.394 32.8646 167 32.8646ZM165.56 25.5972H168.44L168.652 17.3333H165.348L165.56 25.5972Z" fill="white"/>
</svg>
