<svg width="1339" height="800" viewBox="0 0 1339 800" fill="none" xmlns="http://www.w3.org/2000/svg">
<rect width="1282" height="800" fill="#0054F8"/>
<mask id="mask0_141_32" style="mask-type:alpha" maskUnits="userSpaceOnUse" x="0" y="0" width="1339" height="800">
<rect x="0.267578" width="1282" height="800" fill="#0054F8"/>
</mask>
<g mask="url(#mask0_141_32)">
<path d="M101.917 462.619L113.749 465.325L-59.7924 1223.99L-71.6243 1221.29L101.917 462.619Z" fill="white"/>
<path d="M80.2251 457.657L92.0569 460.363L-81.4841 1219.03L-93.3159 1216.32L80.2251 457.657Z" fill="white"/>
<path d="M123.608 467.58L135.44 470.287L-38.1008 1228.95L-49.9326 1226.25L123.608 467.58Z" fill="white"/>
<path d="M145.3 472.542L157.132 475.249L-16.4091 1233.92L-28.2409 1231.21L145.3 472.542Z" fill="white"/>
<path d="M166.992 477.504L178.824 480.211L5.28259 1238.88L-6.54922 1236.17L166.992 477.504Z" fill="white"/>
<path d="M188.684 482.466L200.515 485.172L26.9743 1243.84L15.1425 1241.13L188.684 482.466Z" fill="white"/>
<path d="M210.375 487.428L222.207 490.134L48.666 1248.8L36.8341 1246.09L210.375 487.428Z" fill="white"/>
<path d="M253.759 497.352L265.59 500.058L92.0493 1258.72L80.2175 1256.02L253.759 497.352Z" fill="white"/>
<path d="M275.45 502.313L287.282 505.02L113.741 1263.69L101.909 1260.98L275.45 502.313Z" fill="white"/>
<path d="M297.142 507.275L308.974 509.982L135.433 1268.65L123.601 1265.94L297.142 507.275Z" fill="white"/>
<path d="M318.834 512.237L330.665 514.944L157.124 1273.61L145.293 1270.9L318.834 512.237Z" fill="white"/>
<path d="M340.525 517.199L352.357 519.906L178.816 1278.57L166.984 1275.87L340.525 517.199Z" fill="white"/>
<path d="M232.067 492.39L243.899 495.096L70.3576 1253.76L58.5258 1251.06L232.067 492.39Z" fill="white"/>
<path d="M362.217 522.161L374.049 524.867L200.508 1283.53L188.676 1280.83L362.217 522.161Z" fill="white"/>
<path d="M405.6 532.085L417.432 534.791L243.891 1293.46L232.059 1290.75L405.6 532.085Z" fill="white"/>
<path d="M427.292 537.046L439.124 539.753L265.583 1298.42L253.751 1295.71L427.292 537.046Z" fill="white"/>
<path d="M448.984 542.008L460.815 544.715L287.274 1303.38L275.443 1300.67L448.984 542.008Z" fill="white"/>
<path d="M470.675 546.97L482.507 549.677L308.966 1308.34L297.134 1305.64L470.675 546.97Z" fill="white"/>
<path d="M492.367 551.932L504.199 554.639L330.658 1313.31L318.826 1310.6L492.367 551.932Z" fill="white"/>
<path d="M383.909 527.123L395.74 529.829L222.199 1288.5L210.368 1285.79L383.909 527.123Z" fill="white"/>
<path d="M514.059 556.894L525.89 559.6L352.349 1318.27L340.518 1315.56L514.059 556.894Z" fill="white"/>
<path d="M557.442 566.818L569.274 569.524L395.733 1328.19L383.901 1325.48L557.442 566.818Z" fill="white"/>
<path d="M579.134 571.779L590.966 574.486L417.424 1333.15L405.593 1330.45L579.134 571.779Z" fill="white"/>
<path d="M600.825 576.741L612.657 579.448L439.116 1338.11L427.284 1335.41L600.825 576.741Z" fill="white"/>
<path d="M622.517 581.703L634.349 584.41L460.808 1343.08L448.976 1340.37L622.517 581.703Z" fill="white"/>
<path d="M644.209 586.665L656.041 589.372L482.5 1348.04L470.668 1345.33L644.209 586.665Z" fill="white"/>
<path d="M535.75 561.856L547.582 564.562L374.041 1323.23L362.209 1320.52L535.75 561.856Z" fill="white"/>
<path d="M665.9 591.627L677.732 594.333L504.191 1353L492.359 1350.29L665.9 591.627Z" fill="white"/>
<path d="M58.5334 452.695L70.3653 455.401L-103.176 1214.07L-115.008 1211.36L58.5334 452.695Z" fill="white"/>
<path d="M36.8418 447.733L48.6736 450.439L-124.867 1209.11L-136.699 1206.4L36.8418 447.733Z" fill="white"/>
<path d="M-93.3083 417.962L-81.4765 420.668L-255.018 1179.33L-266.849 1176.63L-93.3083 417.962Z" fill="white"/>
<path d="M-71.6166 422.924L-59.7848 425.63L-233.326 1184.3L-245.158 1181.59L-71.6166 422.924Z" fill="white"/>
<path d="M-49.925 427.886L-38.0931 430.592L-211.634 1189.26L-223.466 1186.55L-49.925 427.886Z" fill="white"/>
<path d="M-28.2333 432.847L-16.4015 435.554L-189.943 1194.22L-201.774 1191.51L-28.2333 432.847Z" fill="white"/>
<path d="M-6.54161 437.809L5.29022 440.516L-168.251 1199.18L-180.083 1196.48L-6.54161 437.809Z" fill="white"/>
<path d="M-115 413L-103.168 415.706L-276.709 1174.37L-288.541 1171.67L-115 413Z" fill="white"/>
<path d="M15.1501 442.771L26.9819 445.478L-146.559 1204.14L-158.391 1201.44L15.1501 442.771Z" fill="white"/>
<path d="M962.917 293.619L974.749 296.325L801.208 1054.99L789.376 1052.29L962.917 293.619Z" fill="white"/>
<path d="M941.225 288.657L953.057 291.363L779.516 1050.03L767.684 1047.32L941.225 288.657Z" fill="white"/>
<path d="M984.608 298.58L996.44 301.287L822.899 1059.95L811.067 1057.25L984.608 298.58Z" fill="white"/>
<path d="M1006.3 303.542L1018.13 306.249L844.591 1064.92L832.759 1062.21L1006.3 303.542Z" fill="white"/>
<path d="M1027.99 308.504L1039.82 311.211L866.283 1069.88L854.451 1067.17L1027.99 308.504Z" fill="white"/>
<path d="M1049.68 313.466L1061.52 316.172L887.974 1074.84L876.142 1072.13L1049.68 313.466Z" fill="white"/>
<path d="M1071.38 318.428L1083.21 321.134L909.666 1079.8L897.834 1077.09L1071.38 318.428Z" fill="white"/>
<path d="M1114.76 328.352L1126.59 331.058L953.049 1089.72L941.217 1087.02L1114.76 328.352Z" fill="white"/>
<path d="M1136.45 333.313L1148.28 336.02L974.741 1094.69L962.909 1091.98L1136.45 333.313Z" fill="white"/>
<path d="M1158.14 338.275L1169.97 340.982L996.433 1099.65L984.601 1096.94L1158.14 338.275Z" fill="white"/>
<path d="M1179.83 343.237L1191.67 345.944L1018.12 1104.61L1006.29 1101.9L1179.83 343.237Z" fill="white"/>
<path d="M1201.53 348.199L1213.36 350.906L1039.82 1109.57L1027.98 1106.87L1201.53 348.199Z" fill="white"/>
<path d="M1093.07 323.39L1104.9 326.096L931.358 1084.76L919.526 1082.06L1093.07 323.39Z" fill="white"/>
<path d="M1223.22 353.161L1235.05 355.867L1061.51 1114.53L1049.68 1111.83L1223.22 353.161Z" fill="white"/>
<path d="M1266.6 363.085L1278.43 365.791L1104.89 1124.46L1093.06 1121.75L1266.6 363.085Z" fill="white"/>
<path d="M1288.29 368.046L1300.12 370.753L1126.58 1129.42L1114.75 1126.71L1288.29 368.046Z" fill="white"/>
<path d="M1309.98 373.008L1321.82 375.715L1148.27 1134.38L1136.44 1131.67L1309.98 373.008Z" fill="white"/>
<path d="M1331.68 377.97L1343.51 380.677L1169.97 1139.34L1158.13 1136.64L1331.68 377.97Z" fill="white"/>
<path d="M1353.37 382.932L1365.2 385.639L1191.66 1144.31L1179.83 1141.6L1353.37 382.932Z" fill="white"/>
<path d="M1244.91 358.123L1256.74 360.829L1083.2 1119.5L1071.37 1116.79L1244.91 358.123Z" fill="white"/>
<path d="M1375.06 387.894L1386.89 390.6L1213.35 1149.27L1201.52 1146.56L1375.06 387.894Z" fill="white"/>
<path d="M1418.44 397.818L1430.27 400.524L1256.73 1159.19L1244.9 1156.48L1418.44 397.818Z" fill="white"/>
<path d="M1440.13 402.779L1451.97 405.486L1278.42 1164.15L1266.59 1161.45L1440.13 402.779Z" fill="white"/>
<path d="M1461.83 407.741L1473.66 410.448L1300.12 1169.11L1288.28 1166.41L1461.83 407.741Z" fill="white"/>
<path d="M1483.52 412.703L1495.35 415.41L1321.81 1174.08L1309.98 1171.37L1483.52 412.703Z" fill="white"/>
<path d="M1505.21 417.665L1517.04 420.372L1343.5 1179.04L1331.67 1176.33L1505.21 417.665Z" fill="white"/>
<path d="M1396.75 392.856L1408.58 395.562L1235.04 1154.23L1223.21 1151.52L1396.75 392.856Z" fill="white"/>
<path d="M1526.9 422.627L1538.73 425.333L1365.19 1184L1353.36 1181.29L1526.9 422.627Z" fill="white"/>
<path d="M919.533 283.695L931.365 286.401L757.824 1045.07L745.992 1042.36L919.533 283.695Z" fill="white"/>
<path d="M897.842 278.733L909.674 281.439L736.133 1040.11L724.301 1037.4L897.842 278.733Z" fill="white"/>
<path d="M767.692 248.962L779.524 251.668L605.982 1010.33L594.151 1007.63L767.692 248.962Z" fill="white"/>
<path d="M789.383 253.924L801.215 256.63L627.674 1015.3L615.842 1012.59L789.383 253.924Z" fill="white"/>
<path d="M811.075 258.886L822.907 261.592L649.366 1020.26L637.534 1017.55L811.075 258.886Z" fill="white"/>
<path d="M832.767 263.847L844.599 266.554L671.057 1025.22L659.226 1022.51L832.767 263.847Z" fill="white"/>
<path d="M854.458 268.809L866.29 271.516L692.749 1030.18L680.917 1027.48L854.458 268.809Z" fill="white"/>
<path d="M746 244L757.832 246.706L584.291 1005.37L572.459 1002.67L746 244Z" fill="white"/>
<path d="M876.15 273.771L887.982 276.478L714.441 1035.14L702.609 1032.44L876.15 273.771Z" fill="white"/>
</g>
</svg>
