<svg width="906" height="591" viewBox="0 0 906 591" fill="none" xmlns="http://www.w3.org/2000/svg">
<line x1="62.584" y1="321.855" x2="395.963" y2="321.855" stroke="white" stroke-width="3"/>
<rect x="60.6375" y="323.229" width="330.092" height="209.293" fill="#0054F8"/>
<path d="M1.5 582.879V368.171L61.0836 323.491V538.789L1.5 582.879Z" fill="#0054F8" stroke="white" stroke-width="3"/>
<path d="M329.562 587.078V370.909L389.146 326.229V541.541L329.562 587.078Z" fill="#0054F8" stroke="white" stroke-width="3" stroke-linejoin="bevel"/>
<rect x="1.5" y="368.452" width="330.379" height="215.915" fill="#0054F8" stroke="white" stroke-width="3"/>
<path d="M400.441 91.241H609.42" stroke="white" stroke-width="3"/>
<rect x="400.127" y="92.7646" width="179.795" height="209.293" fill="#0054F8"/>
<path d="M543.498 584.378V135.452L607.921 91.3712V541.522L543.498 584.378Z" fill="#0054F8" stroke="white" stroke-width="3"/>
<path d="M331.396 583.712V135.417L398.957 92.4635V540.831L331.396 583.712Z" fill="#0054F8" stroke="white" stroke-width="3"/>
<rect x="331.8" y="136.381" width="211.911" height="447.892" fill="#0054F8" stroke="white" stroke-width="3"/>
<rect x="612.833" y="304.534" width="292.167" height="209.293" fill="#0054F8"/>
<path d="M837.5 585.327V344.259L904.5 302.696V544.427L837.5 585.327Z" fill="#0054F8" stroke="white" stroke-width="3"/>
<path d="M543.292 582.803V344.152L610.201 303.004V542.311L543.292 582.803Z" fill="#0054F8" stroke="white" stroke-width="3"/>
<rect x="542.99" y="344.281" width="295.287" height="239.683" fill="#0054F8" stroke="white" stroke-width="3"/>
<line x1="610.62" y1="303.034" x2="905.596" y2="303.034" stroke="white" stroke-width="3"/>
<rect x="601.89" y="1.87268" width="241.6" height="209.293" fill="#0054F8"/>
<path d="M792.785 343.017V45.9208L850.08 3.47812V300.909L792.785 343.017Z" fill="#0054F8" stroke="white" stroke-width="3"/>
<path d="M542.99 343.017V45.2607L600.285 3.30194V300.909L542.99 343.017Z" fill="#0054F8" stroke="white" stroke-width="3"/>
<rect x="542.99" y="46.0039" width="249.666" height="298.477" fill="#0054F8" stroke="white" stroke-width="3"/>
<path d="M601.766 1.83813H851.58" stroke="white" stroke-width="3"/>
</svg>
