<svg width="966" height="457" viewBox="0 0 966 457" fill="none" xmlns="http://www.w3.org/2000/svg">
<path d="M477.89 455V454.07H479.85V448.84H479.77L478.15 450.57L477.46 449.95L479.24 448.02H480.97V454.07H482.66V455H477.89ZM485.716 450.9C486.163 450.9 486.493 450.807 486.706 450.62C486.926 450.427 487.036 450.187 487.036 449.9V449.83C487.036 449.51 486.929 449.267 486.716 449.1C486.509 448.927 486.229 448.84 485.876 448.84C485.536 448.84 485.246 448.917 485.006 449.07C484.773 449.223 484.576 449.433 484.416 449.7L483.656 449.05C483.763 448.897 483.886 448.75 484.026 448.61C484.166 448.47 484.326 448.35 484.506 448.25C484.686 448.143 484.893 448.06 485.126 448C485.359 447.933 485.623 447.9 485.916 447.9C486.243 447.9 486.546 447.94 486.826 448.02C487.106 448.1 487.349 448.22 487.556 448.38C487.763 448.533 487.923 448.723 488.036 448.95C488.149 449.17 488.206 449.42 488.206 449.7C488.206 449.92 488.169 450.12 488.096 450.3C488.029 450.48 487.933 450.64 487.806 450.78C487.686 450.913 487.543 451.023 487.376 451.11C487.209 451.197 487.033 451.26 486.846 451.3V451.35C487.046 451.39 487.236 451.457 487.416 451.55C487.596 451.637 487.756 451.753 487.896 451.9C488.036 452.04 488.146 452.21 488.226 452.41C488.306 452.603 488.346 452.827 488.346 453.08C488.346 453.387 488.286 453.667 488.166 453.92C488.046 454.167 487.873 454.38 487.646 454.56C487.426 454.74 487.159 454.88 486.846 454.98C486.533 455.073 486.183 455.12 485.796 455.12C485.469 455.12 485.179 455.083 484.926 455.01C484.679 454.943 484.459 454.853 484.266 454.74C484.073 454.62 483.903 454.487 483.756 454.34C483.616 454.187 483.493 454.03 483.386 453.87L484.216 453.23C484.389 453.51 484.593 453.74 484.826 453.92C485.066 454.093 485.393 454.18 485.806 454.18C486.246 454.18 486.583 454.08 486.816 453.88C487.049 453.673 487.166 453.39 487.166 453.03V452.95C487.166 452.59 487.043 452.317 486.796 452.13C486.556 451.937 486.206 451.84 485.746 451.84H484.996V450.9H485.716ZM490.692 455L493.282 448.95H490.562V450.24H489.592V448.02H494.402V449L491.882 455H490.692ZM495.788 449.84H496.878V450.72H496.938C497.091 450.407 497.295 450.163 497.548 449.99C497.801 449.81 498.118 449.72 498.498 449.72C499.105 449.72 499.588 449.947 499.948 450.4C500.308 450.853 500.488 451.527 500.488 452.42C500.488 453.313 500.308 453.987 499.948 454.44C499.588 454.893 499.105 455.12 498.498 455.12C498.118 455.12 497.801 455.033 497.548 454.86C497.295 454.68 497.091 454.433 496.938 454.12H496.878V457H495.788V449.84ZM498.048 454.23C498.461 454.23 498.778 454.103 498.998 453.85C499.225 453.597 499.338 453.26 499.338 452.84V452C499.338 451.58 499.225 451.243 498.998 450.99C498.778 450.737 498.461 450.61 498.048 450.61C497.888 450.61 497.738 450.63 497.598 450.67C497.458 450.71 497.335 450.77 497.228 450.85C497.121 450.93 497.035 451.03 496.968 451.15C496.908 451.263 496.878 451.4 496.878 451.56V453.28C496.878 453.44 496.908 453.58 496.968 453.7C497.035 453.813 497.121 453.91 497.228 453.99C497.335 454.07 497.458 454.13 497.598 454.17C497.738 454.21 497.888 454.23 498.048 454.23ZM504.304 455C503.851 455 503.517 454.88 503.304 454.64C503.091 454.393 502.984 454.077 502.984 453.69V450.72H501.394V449.84H502.524C502.717 449.84 502.854 449.803 502.934 449.73C503.014 449.65 503.054 449.51 503.054 449.31V448.02H504.074V449.84H506.274V450.72H504.074V454.12H506.274V455H504.304Z" fill="white"/>
<line x1="797.5" y1="46" x2="797.5" y2="295" stroke="white" stroke-width="3" stroke-dasharray="6 6"/>
<path fill-rule="evenodd" clip-rule="evenodd" d="M245.043 209.748L245.784 209L250 213.253L245.784 217.505L245.043 216.757L247.055 214.706L248.157 213.744L248.136 213.701L245.996 213.787H228.737L228.737 213.782L221.019 213.805L218.871 213.72L218.85 213.763L219.956 214.72L221.976 216.761L221.231 217.505L217 213.274L221.231 209.043L221.976 209.787L219.956 211.828L218.85 212.785L218.871 212.827L221.019 212.742L228.737 212.715L228.737 212.718H245.996L248.136 212.804L248.157 212.761L247.055 211.799L245.043 209.748Z" fill="white"/>
<path d="M224.218 223.9C224.664 223.9 224.994 223.807 225.208 223.62C225.428 223.427 225.538 223.187 225.538 222.9V222.83C225.538 222.51 225.431 222.267 225.218 222.1C225.011 221.927 224.731 221.84 224.378 221.84C224.038 221.84 223.748 221.917 223.508 222.07C223.274 222.223 223.078 222.433 222.918 222.7L222.158 222.05C222.264 221.897 222.388 221.75 222.528 221.61C222.668 221.47 222.828 221.35 223.008 221.25C223.188 221.143 223.394 221.06 223.628 221C223.861 220.933 224.124 220.9 224.418 220.9C224.744 220.9 225.048 220.94 225.328 221.02C225.608 221.1 225.851 221.22 226.058 221.38C226.264 221.533 226.424 221.723 226.538 221.95C226.651 222.17 226.708 222.42 226.708 222.7C226.708 222.92 226.671 223.12 226.598 223.3C226.531 223.48 226.434 223.64 226.308 223.78C226.188 223.913 226.044 224.023 225.878 224.11C225.711 224.197 225.534 224.26 225.348 224.3V224.35C225.548 224.39 225.738 224.457 225.918 224.55C226.098 224.637 226.258 224.753 226.398 224.9C226.538 225.04 226.648 225.21 226.728 225.41C226.808 225.603 226.848 225.827 226.848 226.08C226.848 226.387 226.788 226.667 226.668 226.92C226.548 227.167 226.374 227.38 226.148 227.56C225.928 227.74 225.661 227.88 225.348 227.98C225.034 228.073 224.684 228.12 224.298 228.12C223.971 228.12 223.681 228.083 223.428 228.01C223.181 227.943 222.961 227.853 222.768 227.74C222.574 227.62 222.404 227.487 222.258 227.34C222.118 227.187 221.994 227.03 221.888 226.87L222.718 226.23C222.891 226.51 223.094 226.74 223.328 226.92C223.568 227.093 223.894 227.18 224.308 227.18C224.748 227.18 225.084 227.08 225.318 226.88C225.551 226.673 225.668 226.39 225.668 226.03V225.95C225.668 225.59 225.544 225.317 225.298 225.13C225.058 224.937 224.708 224.84 224.248 224.84H223.498V223.9H224.218ZM230.504 228.12C230.091 228.12 229.727 228.07 229.414 227.97C229.101 227.863 228.837 227.72 228.624 227.54C228.411 227.36 228.247 227.147 228.134 226.9C228.027 226.653 227.974 226.383 227.974 226.09C227.974 225.623 228.104 225.25 228.364 224.97C228.624 224.69 228.964 224.493 229.384 224.38V224.3C229.024 224.173 228.734 223.973 228.514 223.7C228.294 223.427 228.184 223.09 228.184 222.69C228.184 222.15 228.384 221.717 228.784 221.39C229.191 221.063 229.764 220.9 230.504 220.9C231.244 220.9 231.814 221.063 232.214 221.39C232.621 221.717 232.824 222.15 232.824 222.69C232.824 223.09 232.714 223.427 232.494 223.7C232.274 223.973 231.984 224.173 231.624 224.3V224.38C232.044 224.493 232.384 224.69 232.644 224.97C232.904 225.25 233.034 225.623 233.034 226.09C233.034 226.383 232.977 226.653 232.864 226.9C232.757 227.147 232.597 227.36 232.384 227.54C232.171 227.72 231.907 227.863 231.594 227.97C231.281 228.07 230.917 228.12 230.504 228.12ZM230.504 227.23C230.944 227.23 231.281 227.133 231.514 226.94C231.754 226.747 231.874 226.473 231.874 226.12V225.91C231.874 225.557 231.754 225.283 231.514 225.09C231.281 224.897 230.944 224.8 230.504 224.8C230.064 224.8 229.724 224.897 229.484 225.09C229.251 225.283 229.134 225.557 229.134 225.91V226.12C229.134 226.473 229.251 226.747 229.484 226.94C229.724 227.133 230.064 227.23 230.504 227.23ZM230.504 223.94C230.904 223.94 231.207 223.853 231.414 223.68C231.627 223.5 231.734 223.25 231.734 222.93V222.8C231.734 222.48 231.627 222.233 231.414 222.06C231.207 221.88 230.904 221.79 230.504 221.79C230.104 221.79 229.797 221.88 229.584 222.06C229.377 222.233 229.274 222.48 229.274 222.8V222.93C229.274 223.25 229.377 223.5 229.584 223.68C229.797 223.853 230.104 223.94 230.504 223.94ZM234.29 222.84H235.38V223.72H235.44C235.593 223.407 235.797 223.163 236.05 222.99C236.303 222.81 236.62 222.72 237 222.72C237.607 222.72 238.09 222.947 238.45 223.4C238.81 223.853 238.99 224.527 238.99 225.42C238.99 226.313 238.81 226.987 238.45 227.44C238.09 227.893 237.607 228.12 237 228.12C236.62 228.12 236.303 228.033 236.05 227.86C235.797 227.68 235.593 227.433 235.44 227.12H235.38V230H234.29V222.84ZM236.55 227.23C236.963 227.23 237.28 227.103 237.5 226.85C237.727 226.597 237.84 226.26 237.84 225.84V225C237.84 224.58 237.727 224.243 237.5 223.99C237.28 223.737 236.963 223.61 236.55 223.61C236.39 223.61 236.24 223.63 236.1 223.67C235.96 223.71 235.837 223.77 235.73 223.85C235.623 223.93 235.537 224.03 235.47 224.15C235.41 224.263 235.38 224.4 235.38 224.56V226.28C235.38 226.44 235.41 226.58 235.47 226.7C235.537 226.813 235.623 226.91 235.73 226.99C235.837 227.07 235.96 227.13 236.1 227.17C236.24 227.21 236.39 227.23 236.55 227.23ZM242.806 228C242.353 228 242.019 227.88 241.806 227.64C241.593 227.393 241.486 227.077 241.486 226.69V223.72H239.896V222.84H241.026C241.219 222.84 241.356 222.803 241.436 222.73C241.516 222.65 241.556 222.51 241.556 222.31V221.02H242.576V222.84H244.776V223.72H242.576V227.12H244.776V228H242.806Z" fill="white"/>
<path fill-rule="evenodd" clip-rule="evenodd" d="M567.547 435.748L568.288 435L572.504 439.253L568.288 443.505L567.547 442.757L569.559 440.706L570.661 439.744L570.64 439.701L568.5 439.787L422.737 439.787L422.737 439.782L415.019 439.805L412.871 439.72L412.85 439.763L413.956 440.72L415.976 442.761L415.231 443.505L411 439.274L415.231 435.043L415.976 435.787L413.956 437.828L412.85 438.785L412.871 438.827L415.019 438.742L422.737 438.715L422.737 438.718L568.5 438.718L570.64 438.804L570.661 438.761L569.559 437.799L567.547 435.748Z" fill="white"/>
<path fill-rule="evenodd" clip-rule="evenodd" d="M158.042 27.7479L158.784 27L163 31.2526L158.784 35.5052L158.042 34.7572L160.055 32.7057L161.157 31.7441L161.136 31.7013L158.996 31.7868L21.0301 31.7868L15.0187 31.8054L14.5509 31.7868H13.233V31.7346L12.8711 31.7203L12.8499 31.7628L13.9555 32.7197L15.9755 34.7609L15.2313 35.5051L11 31.2738L15.2313 27.0425L15.9755 27.7867L13.9555 29.8279L12.8499 30.7847L12.8711 30.8273L13.233 30.8129V30.7184L21.7844 30.7184L22.7371 30.715V30.7184L158.996 30.7183L161.136 30.8038L161.157 30.7611L160.055 29.7994L158.042 27.7479Z" fill="white"/>
<path fill-rule="evenodd" clip-rule="evenodd" d="M951.042 27.7479L951.784 27L956 31.2526L951.784 35.5052L951.042 34.7572L953.055 32.7057L954.157 31.7441L954.136 31.7013L951.996 31.7868L814.03 31.7868L808.019 31.8054L807.551 31.7868H806.233V31.7346L805.871 31.7203L805.85 31.7628L806.956 32.7197L808.976 34.7609L808.231 35.5051L804 31.2738L808.231 27.0425L808.976 27.7867L806.956 29.8279L805.85 30.7847L805.871 30.8273L806.233 30.8129V30.7184L814.784 30.7184L815.737 30.715V30.7184L951.996 30.7183L954.136 30.8038L954.157 30.7611L953.055 29.7994L951.042 27.7479Z" fill="white"/>
<path d="M72.8898 25V24.07H74.8498V18.84H74.7698L73.1498 20.57L72.4598 19.95L74.2398 18.02H75.9698V24.07H77.6598V25H72.8898ZM83.4559 25H78.6359V23.93L80.9159 21.94C81.2759 21.62 81.5525 21.3167 81.7459 21.03C81.9459 20.7433 82.0459 20.44 82.0459 20.12V20.01C82.0459 19.6433 81.9459 19.3633 81.7459 19.17C81.5459 18.97 81.2559 18.87 80.8759 18.87C80.4892 18.87 80.1892 18.9733 79.9759 19.18C79.7692 19.3867 79.6192 19.65 79.5259 19.97L78.5459 19.6C78.6125 19.38 78.7092 19.17 78.8359 18.97C78.9625 18.7633 79.1225 18.58 79.3159 18.42C79.5159 18.26 79.7492 18.1333 80.0159 18.04C80.2892 17.9467 80.6025 17.9 80.9559 17.9C81.3159 17.9 81.6359 17.9533 81.9159 18.06C82.2025 18.16 82.4425 18.3 82.6359 18.48C82.8292 18.66 82.9759 18.8767 83.0759 19.13C83.1759 19.3767 83.2259 19.65 83.2259 19.95C83.2259 20.23 83.1825 20.49 83.0959 20.73C83.0159 20.9633 82.8992 21.19 82.7459 21.41C82.5992 21.6233 82.4225 21.83 82.2159 22.03C82.0092 22.23 81.7825 22.43 81.5359 22.63L79.8459 24.05H83.4559V25ZM87.022 25.12C86.6286 25.12 86.2786 25.0567 85.972 24.93C85.6653 24.8033 85.4053 24.6233 85.192 24.39C84.9786 24.15 84.8153 23.8633 84.702 23.53C84.5886 23.1967 84.532 22.82 84.532 22.4C84.532 21.8933 84.6086 21.4167 84.762 20.97C84.9153 20.5233 85.1153 20.1133 85.362 19.74C85.6086 19.3667 85.882 19.0367 86.182 18.75C86.482 18.4567 86.7786 18.2133 87.072 18.02H88.572C88.172 18.3067 87.812 18.5833 87.492 18.85C87.172 19.1167 86.892 19.39 86.652 19.67C86.4186 19.95 86.222 20.2467 86.062 20.56C85.902 20.8667 85.7786 21.21 85.692 21.59L85.762 21.61C85.8353 21.47 85.922 21.34 86.022 21.22C86.122 21.0933 86.2386 20.9833 86.372 20.89C86.5053 20.7967 86.6586 20.7233 86.832 20.67C87.0053 20.6167 87.202 20.59 87.422 20.59C87.722 20.59 87.9986 20.64 88.252 20.74C88.5053 20.84 88.7253 20.9867 88.912 21.18C89.0986 21.3667 89.242 21.5933 89.342 21.86C89.4486 22.1267 89.502 22.4267 89.502 22.76C89.502 23.1067 89.442 23.4267 89.322 23.72C89.2086 24.0067 89.042 24.2533 88.822 24.46C88.6086 24.6667 88.3486 24.83 88.042 24.95C87.7353 25.0633 87.3953 25.12 87.022 25.12ZM87.012 24.22C87.4386 24.22 87.7686 24.1067 88.002 23.88C88.2353 23.6467 88.352 23.32 88.352 22.9V22.8C88.352 22.38 88.2353 22.0567 88.002 21.83C87.7686 21.5967 87.4386 21.48 87.012 21.48C86.592 21.48 86.2653 21.5967 86.032 21.83C85.7986 22.0567 85.682 22.38 85.682 22.8V22.9C85.682 23.32 85.7986 23.6467 86.032 23.88C86.2653 24.1067 86.592 24.22 87.012 24.22ZM90.788 19.84H91.878V20.72H91.938C92.0914 20.4067 92.2947 20.1633 92.548 19.99C92.8014 19.81 93.118 19.72 93.498 19.72C94.1047 19.72 94.588 19.9467 94.948 20.4C95.308 20.8533 95.488 21.5267 95.488 22.42C95.488 23.3133 95.308 23.9867 94.948 24.44C94.588 24.8933 94.1047 25.12 93.498 25.12C93.118 25.12 92.8014 25.0333 92.548 24.86C92.2947 24.68 92.0914 24.4333 91.938 24.12H91.878V27H90.788V19.84ZM93.048 24.23C93.4614 24.23 93.778 24.1033 93.998 23.85C94.2247 23.5967 94.338 23.26 94.338 22.84V22C94.338 21.58 94.2247 21.2433 93.998 20.99C93.778 20.7367 93.4614 20.61 93.048 20.61C92.888 20.61 92.738 20.63 92.598 20.67C92.458 20.71 92.3347 20.77 92.228 20.85C92.1214 20.93 92.0347 21.03 91.968 21.15C91.908 21.2633 91.878 21.4 91.878 21.56V23.28C91.878 23.44 91.908 23.58 91.968 23.7C92.0347 23.8133 92.1214 23.91 92.228 23.99C92.3347 24.07 92.458 24.13 92.598 24.17C92.738 24.21 92.888 24.23 93.048 24.23ZM99.3041 25C98.8508 25 98.5175 24.88 98.3041 24.64C98.0908 24.3933 97.9841 24.0767 97.9841 23.69V20.72H96.3941V19.84H97.5241C97.7175 19.84 97.8541 19.8033 97.9341 19.73C98.0141 19.65 98.0541 19.51 98.0541 19.31V18.02H99.0741V19.84H101.274V20.72H99.0741V24.12H101.274V25H99.3041Z" fill="white"/>
<path fill-rule="evenodd" clip-rule="evenodd" d="M361.043 209.748L361.784 209L366 213.253L361.784 217.505L361.043 216.757L363.055 214.706L364.157 213.744L364.136 213.701L361.996 213.787H344.737L344.737 213.782L337.019 213.805L334.871 213.72L334.85 213.763L335.956 214.72L337.976 216.761L337.231 217.505L333 213.274L337.231 209.043L337.976 209.787L335.956 211.828L334.85 212.785L334.871 212.827L337.019 212.742L344.737 212.715L344.737 212.718H361.996L364.136 212.804L364.157 212.761L363.055 211.799L361.043 209.748Z" fill="white"/>
<path d="M340.218 223.9C340.664 223.9 340.994 223.807 341.208 223.62C341.428 223.427 341.538 223.187 341.538 222.9V222.83C341.538 222.51 341.431 222.267 341.218 222.1C341.011 221.927 340.731 221.84 340.378 221.84C340.038 221.84 339.748 221.917 339.508 222.07C339.274 222.223 339.078 222.433 338.918 222.7L338.158 222.05C338.264 221.897 338.388 221.75 338.528 221.61C338.668 221.47 338.828 221.35 339.008 221.25C339.188 221.143 339.394 221.06 339.628 221C339.861 220.933 340.124 220.9 340.418 220.9C340.744 220.9 341.048 220.94 341.328 221.02C341.608 221.1 341.851 221.22 342.058 221.38C342.264 221.533 342.424 221.723 342.538 221.95C342.651 222.17 342.708 222.42 342.708 222.7C342.708 222.92 342.671 223.12 342.598 223.3C342.531 223.48 342.434 223.64 342.308 223.78C342.188 223.913 342.044 224.023 341.878 224.11C341.711 224.197 341.534 224.26 341.348 224.3V224.35C341.548 224.39 341.738 224.457 341.918 224.55C342.098 224.637 342.258 224.753 342.398 224.9C342.538 225.04 342.648 225.21 342.728 225.41C342.808 225.603 342.848 225.827 342.848 226.08C342.848 226.387 342.788 226.667 342.668 226.92C342.548 227.167 342.374 227.38 342.148 227.56C341.928 227.74 341.661 227.88 341.348 227.98C341.034 228.073 340.684 228.12 340.298 228.12C339.971 228.12 339.681 228.083 339.428 228.01C339.181 227.943 338.961 227.853 338.768 227.74C338.574 227.62 338.404 227.487 338.258 227.34C338.118 227.187 337.994 227.03 337.888 226.87L338.718 226.23C338.891 226.51 339.094 226.74 339.328 226.92C339.568 227.093 339.894 227.18 340.308 227.18C340.748 227.18 341.084 227.08 341.318 226.88C341.551 226.673 341.668 226.39 341.668 226.03V225.95C341.668 225.59 341.544 225.317 341.298 225.13C341.058 224.937 340.708 224.84 340.248 224.84H339.498V223.9H340.218ZM346.504 228.12C346.091 228.12 345.727 228.07 345.414 227.97C345.101 227.863 344.837 227.72 344.624 227.54C344.411 227.36 344.247 227.147 344.134 226.9C344.027 226.653 343.974 226.383 343.974 226.09C343.974 225.623 344.104 225.25 344.364 224.97C344.624 224.69 344.964 224.493 345.384 224.38V224.3C345.024 224.173 344.734 223.973 344.514 223.7C344.294 223.427 344.184 223.09 344.184 222.69C344.184 222.15 344.384 221.717 344.784 221.39C345.191 221.063 345.764 220.9 346.504 220.9C347.244 220.9 347.814 221.063 348.214 221.39C348.621 221.717 348.824 222.15 348.824 222.69C348.824 223.09 348.714 223.427 348.494 223.7C348.274 223.973 347.984 224.173 347.624 224.3V224.38C348.044 224.493 348.384 224.69 348.644 224.97C348.904 225.25 349.034 225.623 349.034 226.09C349.034 226.383 348.977 226.653 348.864 226.9C348.757 227.147 348.597 227.36 348.384 227.54C348.171 227.72 347.907 227.863 347.594 227.97C347.281 228.07 346.917 228.12 346.504 228.12ZM346.504 227.23C346.944 227.23 347.281 227.133 347.514 226.94C347.754 226.747 347.874 226.473 347.874 226.12V225.91C347.874 225.557 347.754 225.283 347.514 225.09C347.281 224.897 346.944 224.8 346.504 224.8C346.064 224.8 345.724 224.897 345.484 225.09C345.251 225.283 345.134 225.557 345.134 225.91V226.12C345.134 226.473 345.251 226.747 345.484 226.94C345.724 227.133 346.064 227.23 346.504 227.23ZM346.504 223.94C346.904 223.94 347.207 223.853 347.414 223.68C347.627 223.5 347.734 223.25 347.734 222.93V222.8C347.734 222.48 347.627 222.233 347.414 222.06C347.207 221.88 346.904 221.79 346.504 221.79C346.104 221.79 345.797 221.88 345.584 222.06C345.377 222.233 345.274 222.48 345.274 222.8V222.93C345.274 223.25 345.377 223.5 345.584 223.68C345.797 223.853 346.104 223.94 346.504 223.94ZM350.29 222.84H351.38V223.72H351.44C351.593 223.407 351.797 223.163 352.05 222.99C352.303 222.81 352.62 222.72 353 222.72C353.607 222.72 354.09 222.947 354.45 223.4C354.81 223.853 354.99 224.527 354.99 225.42C354.99 226.313 354.81 226.987 354.45 227.44C354.09 227.893 353.607 228.12 353 228.12C352.62 228.12 352.303 228.033 352.05 227.86C351.797 227.68 351.593 227.433 351.44 227.12H351.38V230H350.29V222.84ZM352.55 227.23C352.963 227.23 353.28 227.103 353.5 226.85C353.727 226.597 353.84 226.26 353.84 225.84V225C353.84 224.58 353.727 224.243 353.5 223.99C353.28 223.737 352.963 223.61 352.55 223.61C352.39 223.61 352.24 223.63 352.1 223.67C351.96 223.71 351.837 223.77 351.73 223.85C351.623 223.93 351.537 224.03 351.47 224.15C351.41 224.263 351.38 224.4 351.38 224.56V226.28C351.38 226.44 351.41 226.58 351.47 226.7C351.537 226.813 351.623 226.91 351.73 226.99C351.837 227.07 351.96 227.13 352.1 227.17C352.24 227.21 352.39 227.23 352.55 227.23ZM358.806 228C358.353 228 358.019 227.88 357.806 227.64C357.593 227.393 357.486 227.077 357.486 226.69V223.72H355.896V222.84H357.026C357.219 222.84 357.356 222.803 357.436 222.73C357.516 222.65 357.556 222.51 357.556 222.31V221.02H358.576V222.84H360.776V223.72H358.576V227.12H360.776V228H358.806Z" fill="white"/>
<path fill-rule="evenodd" clip-rule="evenodd" d="M439.043 209.748L439.784 209L444 213.253L439.784 217.505L439.043 216.757L441.055 214.706L442.157 213.744L442.136 213.701L439.996 213.787H422.737L422.737 213.782L415.019 213.805L412.871 213.72L412.85 213.763L413.956 214.72L415.976 216.761L415.231 217.505L411 213.274L415.231 209.043L415.976 209.787L413.956 211.828L412.85 212.785L412.871 212.827L415.019 212.742L422.737 212.715L422.737 212.718H439.996L442.136 212.804L442.157 212.761L441.055 211.799L439.043 209.748Z" fill="white"/>
<path d="M418.218 223.9C418.664 223.9 418.994 223.807 419.208 223.62C419.428 223.427 419.538 223.187 419.538 222.9V222.83C419.538 222.51 419.431 222.267 419.218 222.1C419.011 221.927 418.731 221.84 418.378 221.84C418.038 221.84 417.748 221.917 417.508 222.07C417.274 222.223 417.078 222.433 416.918 222.7L416.158 222.05C416.264 221.897 416.388 221.75 416.528 221.61C416.668 221.47 416.828 221.35 417.008 221.25C417.188 221.143 417.394 221.06 417.628 221C417.861 220.933 418.124 220.9 418.418 220.9C418.744 220.9 419.048 220.94 419.328 221.02C419.608 221.1 419.851 221.22 420.058 221.38C420.264 221.533 420.424 221.723 420.538 221.95C420.651 222.17 420.708 222.42 420.708 222.7C420.708 222.92 420.671 223.12 420.598 223.3C420.531 223.48 420.434 223.64 420.308 223.78C420.188 223.913 420.044 224.023 419.878 224.11C419.711 224.197 419.534 224.26 419.348 224.3V224.35C419.548 224.39 419.738 224.457 419.918 224.55C420.098 224.637 420.258 224.753 420.398 224.9C420.538 225.04 420.648 225.21 420.728 225.41C420.808 225.603 420.848 225.827 420.848 226.08C420.848 226.387 420.788 226.667 420.668 226.92C420.548 227.167 420.374 227.38 420.148 227.56C419.928 227.74 419.661 227.88 419.348 227.98C419.034 228.073 418.684 228.12 418.298 228.12C417.971 228.12 417.681 228.083 417.428 228.01C417.181 227.943 416.961 227.853 416.768 227.74C416.574 227.62 416.404 227.487 416.258 227.34C416.118 227.187 415.994 227.03 415.888 226.87L416.718 226.23C416.891 226.51 417.094 226.74 417.328 226.92C417.568 227.093 417.894 227.18 418.308 227.18C418.748 227.18 419.084 227.08 419.318 226.88C419.551 226.673 419.668 226.39 419.668 226.03V225.95C419.668 225.59 419.544 225.317 419.298 225.13C419.058 224.937 418.708 224.84 418.248 224.84H417.498V223.9H418.218ZM424.504 228.12C424.091 228.12 423.727 228.07 423.414 227.97C423.101 227.863 422.837 227.72 422.624 227.54C422.411 227.36 422.247 227.147 422.134 226.9C422.027 226.653 421.974 226.383 421.974 226.09C421.974 225.623 422.104 225.25 422.364 224.97C422.624 224.69 422.964 224.493 423.384 224.38V224.3C423.024 224.173 422.734 223.973 422.514 223.7C422.294 223.427 422.184 223.09 422.184 222.69C422.184 222.15 422.384 221.717 422.784 221.39C423.191 221.063 423.764 220.9 424.504 220.9C425.244 220.9 425.814 221.063 426.214 221.39C426.621 221.717 426.824 222.15 426.824 222.69C426.824 223.09 426.714 223.427 426.494 223.7C426.274 223.973 425.984 224.173 425.624 224.3V224.38C426.044 224.493 426.384 224.69 426.644 224.97C426.904 225.25 427.034 225.623 427.034 226.09C427.034 226.383 426.977 226.653 426.864 226.9C426.757 227.147 426.597 227.36 426.384 227.54C426.171 227.72 425.907 227.863 425.594 227.97C425.281 228.07 424.917 228.12 424.504 228.12ZM424.504 227.23C424.944 227.23 425.281 227.133 425.514 226.94C425.754 226.747 425.874 226.473 425.874 226.12V225.91C425.874 225.557 425.754 225.283 425.514 225.09C425.281 224.897 424.944 224.8 424.504 224.8C424.064 224.8 423.724 224.897 423.484 225.09C423.251 225.283 423.134 225.557 423.134 225.91V226.12C423.134 226.473 423.251 226.747 423.484 226.94C423.724 227.133 424.064 227.23 424.504 227.23ZM424.504 223.94C424.904 223.94 425.207 223.853 425.414 223.68C425.627 223.5 425.734 223.25 425.734 222.93V222.8C425.734 222.48 425.627 222.233 425.414 222.06C425.207 221.88 424.904 221.79 424.504 221.79C424.104 221.79 423.797 221.88 423.584 222.06C423.377 222.233 423.274 222.48 423.274 222.8V222.93C423.274 223.25 423.377 223.5 423.584 223.68C423.797 223.853 424.104 223.94 424.504 223.94ZM428.29 222.84H429.38V223.72H429.44C429.593 223.407 429.797 223.163 430.05 222.99C430.303 222.81 430.62 222.72 431 222.72C431.607 222.72 432.09 222.947 432.45 223.4C432.81 223.853 432.99 224.527 432.99 225.42C432.99 226.313 432.81 226.987 432.45 227.44C432.09 227.893 431.607 228.12 431 228.12C430.62 228.12 430.303 228.033 430.05 227.86C429.797 227.68 429.593 227.433 429.44 227.12H429.38V230H428.29V222.84ZM430.55 227.23C430.963 227.23 431.28 227.103 431.5 226.85C431.727 226.597 431.84 226.26 431.84 225.84V225C431.84 224.58 431.727 224.243 431.5 223.99C431.28 223.737 430.963 223.61 430.55 223.61C430.39 223.61 430.24 223.63 430.1 223.67C429.96 223.71 429.837 223.77 429.73 223.85C429.623 223.93 429.537 224.03 429.47 224.15C429.41 224.263 429.38 224.4 429.38 224.56V226.28C429.38 226.44 429.41 226.58 429.47 226.7C429.537 226.813 429.623 226.91 429.73 226.99C429.837 227.07 429.96 227.13 430.1 227.17C430.24 227.21 430.39 227.23 430.55 227.23ZM436.806 228C436.353 228 436.019 227.88 435.806 227.64C435.593 227.393 435.486 227.077 435.486 226.69V223.72H433.896V222.84H435.026C435.219 222.84 435.356 222.803 435.436 222.73C435.516 222.65 435.556 222.51 435.556 222.31V221.02H436.576V222.84H438.776V223.72H436.576V227.12H438.776V228H436.806Z" fill="white"/>
<path fill-rule="evenodd" clip-rule="evenodd" d="M554.043 209.748L554.784 209L559 213.253L554.784 217.505L554.043 216.757L556.055 214.706L557.157 213.744L557.136 213.701L554.996 213.787H537.737L537.737 213.782L530.019 213.805L527.871 213.72L527.85 213.763L528.956 214.72L530.976 216.761L530.231 217.505L526 213.274L530.231 209.043L530.976 209.787L528.956 211.828L527.85 212.785L527.871 212.827L530.019 212.742L537.737 212.715L537.737 212.718H554.996L557.136 212.804L557.157 212.761L556.055 211.799L554.043 209.748Z" fill="white"/>
<path d="M533.218 223.9C533.664 223.9 533.994 223.807 534.208 223.62C534.428 223.427 534.538 223.187 534.538 222.9V222.83C534.538 222.51 534.431 222.267 534.218 222.1C534.011 221.927 533.731 221.84 533.378 221.84C533.038 221.84 532.748 221.917 532.508 222.07C532.274 222.223 532.078 222.433 531.918 222.7L531.158 222.05C531.264 221.897 531.388 221.75 531.528 221.61C531.668 221.47 531.828 221.35 532.008 221.25C532.188 221.143 532.394 221.06 532.628 221C532.861 220.933 533.124 220.9 533.418 220.9C533.744 220.9 534.048 220.94 534.328 221.02C534.608 221.1 534.851 221.22 535.058 221.38C535.264 221.533 535.424 221.723 535.538 221.95C535.651 222.17 535.708 222.42 535.708 222.7C535.708 222.92 535.671 223.12 535.598 223.3C535.531 223.48 535.434 223.64 535.308 223.78C535.188 223.913 535.044 224.023 534.878 224.11C534.711 224.197 534.534 224.26 534.348 224.3V224.35C534.548 224.39 534.738 224.457 534.918 224.55C535.098 224.637 535.258 224.753 535.398 224.9C535.538 225.04 535.648 225.21 535.728 225.41C535.808 225.603 535.848 225.827 535.848 226.08C535.848 226.387 535.788 226.667 535.668 226.92C535.548 227.167 535.374 227.38 535.148 227.56C534.928 227.74 534.661 227.88 534.348 227.98C534.034 228.073 533.684 228.12 533.298 228.12C532.971 228.12 532.681 228.083 532.428 228.01C532.181 227.943 531.961 227.853 531.768 227.74C531.574 227.62 531.404 227.487 531.258 227.34C531.118 227.187 530.994 227.03 530.888 226.87L531.718 226.23C531.891 226.51 532.094 226.74 532.328 226.92C532.568 227.093 532.894 227.18 533.308 227.18C533.748 227.18 534.084 227.08 534.318 226.88C534.551 226.673 534.668 226.39 534.668 226.03V225.95C534.668 225.59 534.544 225.317 534.298 225.13C534.058 224.937 533.708 224.84 533.248 224.84H532.498V223.9H533.218ZM539.504 228.12C539.091 228.12 538.727 228.07 538.414 227.97C538.101 227.863 537.837 227.72 537.624 227.54C537.411 227.36 537.247 227.147 537.134 226.9C537.027 226.653 536.974 226.383 536.974 226.09C536.974 225.623 537.104 225.25 537.364 224.97C537.624 224.69 537.964 224.493 538.384 224.38V224.3C538.024 224.173 537.734 223.973 537.514 223.7C537.294 223.427 537.184 223.09 537.184 222.69C537.184 222.15 537.384 221.717 537.784 221.39C538.191 221.063 538.764 220.9 539.504 220.9C540.244 220.9 540.814 221.063 541.214 221.39C541.621 221.717 541.824 222.15 541.824 222.69C541.824 223.09 541.714 223.427 541.494 223.7C541.274 223.973 540.984 224.173 540.624 224.3V224.38C541.044 224.493 541.384 224.69 541.644 224.97C541.904 225.25 542.034 225.623 542.034 226.09C542.034 226.383 541.977 226.653 541.864 226.9C541.757 227.147 541.597 227.36 541.384 227.54C541.171 227.72 540.907 227.863 540.594 227.97C540.281 228.07 539.917 228.12 539.504 228.12ZM539.504 227.23C539.944 227.23 540.281 227.133 540.514 226.94C540.754 226.747 540.874 226.473 540.874 226.12V225.91C540.874 225.557 540.754 225.283 540.514 225.09C540.281 224.897 539.944 224.8 539.504 224.8C539.064 224.8 538.724 224.897 538.484 225.09C538.251 225.283 538.134 225.557 538.134 225.91V226.12C538.134 226.473 538.251 226.747 538.484 226.94C538.724 227.133 539.064 227.23 539.504 227.23ZM539.504 223.94C539.904 223.94 540.207 223.853 540.414 223.68C540.627 223.5 540.734 223.25 540.734 222.93V222.8C540.734 222.48 540.627 222.233 540.414 222.06C540.207 221.88 539.904 221.79 539.504 221.79C539.104 221.79 538.797 221.88 538.584 222.06C538.377 222.233 538.274 222.48 538.274 222.8V222.93C538.274 223.25 538.377 223.5 538.584 223.68C538.797 223.853 539.104 223.94 539.504 223.94ZM543.29 222.84H544.38V223.72H544.44C544.593 223.407 544.797 223.163 545.05 222.99C545.303 222.81 545.62 222.72 546 222.72C546.607 222.72 547.09 222.947 547.45 223.4C547.81 223.853 547.99 224.527 547.99 225.42C547.99 226.313 547.81 226.987 547.45 227.44C547.09 227.893 546.607 228.12 546 228.12C545.62 228.12 545.303 228.033 545.05 227.86C544.797 227.68 544.593 227.433 544.44 227.12H544.38V230H543.29V222.84ZM545.55 227.23C545.963 227.23 546.28 227.103 546.5 226.85C546.727 226.597 546.84 226.26 546.84 225.84V225C546.84 224.58 546.727 224.243 546.5 223.99C546.28 223.737 545.963 223.61 545.55 223.61C545.39 223.61 545.24 223.63 545.1 223.67C544.96 223.71 544.837 223.77 544.73 223.85C544.623 223.93 544.537 224.03 544.47 224.15C544.41 224.263 544.38 224.4 544.38 224.56V226.28C544.38 226.44 544.41 226.58 544.47 226.7C544.537 226.813 544.623 226.91 544.73 226.99C544.837 227.07 544.96 227.13 545.1 227.17C545.24 227.21 545.39 227.23 545.55 227.23ZM551.806 228C551.353 228 551.019 227.88 550.806 227.64C550.593 227.393 550.486 227.077 550.486 226.69V223.72H548.896V222.84H550.026C550.219 222.84 550.356 222.803 550.436 222.73C550.516 222.65 550.556 222.51 550.556 222.31V221.02H551.576V222.84H553.776V223.72H551.576V227.12H553.776V228H551.806Z" fill="white"/>
<path fill-rule="evenodd" clip-rule="evenodd" d="M645.043 209.748L645.784 209L650 213.253L645.784 217.505L645.043 216.757L647.055 214.706L648.157 213.744L648.136 213.701L645.996 213.787H628.737L628.737 213.782L621.019 213.805L618.871 213.72L618.85 213.763L619.956 214.72L621.976 216.761L621.231 217.505L617 213.274L621.231 209.043L621.976 209.787L619.956 211.828L618.85 212.785L618.871 212.827L621.019 212.742L628.737 212.715L628.737 212.718H645.996L648.136 212.804L648.157 212.761L647.055 211.799L645.043 209.748Z" fill="white"/>
<path d="M624.218 223.9C624.664 223.9 624.994 223.807 625.208 223.62C625.428 223.427 625.538 223.187 625.538 222.9V222.83C625.538 222.51 625.431 222.267 625.218 222.1C625.011 221.927 624.731 221.84 624.378 221.84C624.038 221.84 623.748 221.917 623.508 222.07C623.274 222.223 623.078 222.433 622.918 222.7L622.158 222.05C622.264 221.897 622.388 221.75 622.528 221.61C622.668 221.47 622.828 221.35 623.008 221.25C623.188 221.143 623.394 221.06 623.628 221C623.861 220.933 624.124 220.9 624.418 220.9C624.744 220.9 625.048 220.94 625.328 221.02C625.608 221.1 625.851 221.22 626.058 221.38C626.264 221.533 626.424 221.723 626.538 221.95C626.651 222.17 626.708 222.42 626.708 222.7C626.708 222.92 626.671 223.12 626.598 223.3C626.531 223.48 626.434 223.64 626.308 223.78C626.188 223.913 626.044 224.023 625.878 224.11C625.711 224.197 625.534 224.26 625.348 224.3V224.35C625.548 224.39 625.738 224.457 625.918 224.55C626.098 224.637 626.258 224.753 626.398 224.9C626.538 225.04 626.648 225.21 626.728 225.41C626.808 225.603 626.848 225.827 626.848 226.08C626.848 226.387 626.788 226.667 626.668 226.92C626.548 227.167 626.374 227.38 626.148 227.56C625.928 227.74 625.661 227.88 625.348 227.98C625.034 228.073 624.684 228.12 624.298 228.12C623.971 228.12 623.681 228.083 623.428 228.01C623.181 227.943 622.961 227.853 622.768 227.74C622.574 227.62 622.404 227.487 622.258 227.34C622.118 227.187 621.994 227.03 621.888 226.87L622.718 226.23C622.891 226.51 623.094 226.74 623.328 226.92C623.568 227.093 623.894 227.18 624.308 227.18C624.748 227.18 625.084 227.08 625.318 226.88C625.551 226.673 625.668 226.39 625.668 226.03V225.95C625.668 225.59 625.544 225.317 625.298 225.13C625.058 224.937 624.708 224.84 624.248 224.84H623.498V223.9H624.218ZM630.504 228.12C630.091 228.12 629.727 228.07 629.414 227.97C629.101 227.863 628.837 227.72 628.624 227.54C628.411 227.36 628.247 227.147 628.134 226.9C628.027 226.653 627.974 226.383 627.974 226.09C627.974 225.623 628.104 225.25 628.364 224.97C628.624 224.69 628.964 224.493 629.384 224.38V224.3C629.024 224.173 628.734 223.973 628.514 223.7C628.294 223.427 628.184 223.09 628.184 222.69C628.184 222.15 628.384 221.717 628.784 221.39C629.191 221.063 629.764 220.9 630.504 220.9C631.244 220.9 631.814 221.063 632.214 221.39C632.621 221.717 632.824 222.15 632.824 222.69C632.824 223.09 632.714 223.427 632.494 223.7C632.274 223.973 631.984 224.173 631.624 224.3V224.38C632.044 224.493 632.384 224.69 632.644 224.97C632.904 225.25 633.034 225.623 633.034 226.09C633.034 226.383 632.977 226.653 632.864 226.9C632.757 227.147 632.597 227.36 632.384 227.54C632.171 227.72 631.907 227.863 631.594 227.97C631.281 228.07 630.917 228.12 630.504 228.12ZM630.504 227.23C630.944 227.23 631.281 227.133 631.514 226.94C631.754 226.747 631.874 226.473 631.874 226.12V225.91C631.874 225.557 631.754 225.283 631.514 225.09C631.281 224.897 630.944 224.8 630.504 224.8C630.064 224.8 629.724 224.897 629.484 225.09C629.251 225.283 629.134 225.557 629.134 225.91V226.12C629.134 226.473 629.251 226.747 629.484 226.94C629.724 227.133 630.064 227.23 630.504 227.23ZM630.504 223.94C630.904 223.94 631.207 223.853 631.414 223.68C631.627 223.5 631.734 223.25 631.734 222.93V222.8C631.734 222.48 631.627 222.233 631.414 222.06C631.207 221.88 630.904 221.79 630.504 221.79C630.104 221.79 629.797 221.88 629.584 222.06C629.377 222.233 629.274 222.48 629.274 222.8V222.93C629.274 223.25 629.377 223.5 629.584 223.68C629.797 223.853 630.104 223.94 630.504 223.94ZM634.29 222.84H635.38V223.72H635.44C635.593 223.407 635.797 223.163 636.05 222.99C636.303 222.81 636.62 222.72 637 222.72C637.607 222.72 638.09 222.947 638.45 223.4C638.81 223.853 638.99 224.527 638.99 225.42C638.99 226.313 638.81 226.987 638.45 227.44C638.09 227.893 637.607 228.12 637 228.12C636.62 228.12 636.303 228.033 636.05 227.86C635.797 227.68 635.593 227.433 635.44 227.12H635.38V230H634.29V222.84ZM636.55 227.23C636.963 227.23 637.28 227.103 637.5 226.85C637.727 226.597 637.84 226.26 637.84 225.84V225C637.84 224.58 637.727 224.243 637.5 223.99C637.28 223.737 636.963 223.61 636.55 223.61C636.39 223.61 636.24 223.63 636.1 223.67C635.96 223.71 635.837 223.77 635.73 223.85C635.623 223.93 635.537 224.03 635.47 224.15C635.41 224.263 635.38 224.4 635.38 224.56V226.28C635.38 226.44 635.41 226.58 635.47 226.7C635.537 226.813 635.623 226.91 635.73 226.99C635.837 227.07 635.96 227.13 636.1 227.17C636.24 227.21 636.39 227.23 636.55 227.23ZM642.806 228C642.353 228 642.019 227.88 641.806 227.64C641.593 227.393 641.486 227.077 641.486 226.69V223.72H639.896V222.84H641.026C641.219 222.84 641.356 222.803 641.436 222.73C641.516 222.65 641.556 222.51 641.556 222.31V221.02H642.576V222.84H644.776V223.72H642.576V227.12H644.776V228H642.806Z" fill="white"/>
<path fill-rule="evenodd" clip-rule="evenodd" d="M60.0425 163.748L60.784 163L65 167.253L60.784 171.505L60.0425 170.757L62.0552 168.706L63.1568 167.744L63.1356 167.701L60.9959 167.787H43.7371L43.7371 167.782L36.0187 167.805L33.8711 167.72L33.8499 167.763L34.9555 168.72L36.9755 170.761L36.2313 171.505L32 167.274L36.2313 163.043L36.9755 163.787L34.9555 165.828L33.8499 166.785L33.8711 166.827L36.0187 166.742L43.7371 166.715L43.7371 166.718H60.9959L63.1356 166.804L63.1568 166.761L62.0552 165.799L60.0425 163.748Z" fill="white"/>
<path d="M39.2178 177.9C39.6645 177.9 39.9945 177.807 40.2078 177.62C40.4278 177.427 40.5378 177.187 40.5378 176.9V176.83C40.5378 176.51 40.4311 176.267 40.2178 176.1C40.0111 175.927 39.7311 175.84 39.3778 175.84C39.0378 175.84 38.7478 175.917 38.5078 176.07C38.2745 176.223 38.0778 176.433 37.9178 176.7L37.1578 176.05C37.2645 175.897 37.3878 175.75 37.5278 175.61C37.6678 175.47 37.8278 175.35 38.0078 175.25C38.1878 175.143 38.3945 175.06 38.6278 175C38.8611 174.933 39.1245 174.9 39.4178 174.9C39.7445 174.9 40.0478 174.94 40.3278 175.02C40.6078 175.1 40.8511 175.22 41.0578 175.38C41.2645 175.533 41.4245 175.723 41.5378 175.95C41.6511 176.17 41.7078 176.42 41.7078 176.7C41.7078 176.92 41.6711 177.12 41.5978 177.3C41.5311 177.48 41.4345 177.64 41.3078 177.78C41.1878 177.913 41.0445 178.023 40.8778 178.11C40.7111 178.197 40.5345 178.26 40.3478 178.3V178.35C40.5478 178.39 40.7378 178.457 40.9178 178.55C41.0978 178.637 41.2578 178.753 41.3978 178.9C41.5378 179.04 41.6478 179.21 41.7278 179.41C41.8078 179.603 41.8478 179.827 41.8478 180.08C41.8478 180.387 41.7878 180.667 41.6678 180.92C41.5478 181.167 41.3745 181.38 41.1478 181.56C40.9278 181.74 40.6611 181.88 40.3478 181.98C40.0345 182.073 39.6845 182.12 39.2978 182.12C38.9711 182.12 38.6811 182.083 38.4278 182.01C38.1811 181.943 37.9611 181.853 37.7678 181.74C37.5745 181.62 37.4045 181.487 37.2578 181.34C37.1178 181.187 36.9945 181.03 36.8878 180.87L37.7178 180.23C37.8911 180.51 38.0945 180.74 38.3278 180.92C38.5678 181.093 38.8945 181.18 39.3078 181.18C39.7478 181.18 40.0845 181.08 40.3178 180.88C40.5511 180.673 40.6678 180.39 40.6678 180.03V179.95C40.6678 179.59 40.5445 179.317 40.2978 179.13C40.0578 178.937 39.7078 178.84 39.2478 178.84H38.4978V177.9H39.2178ZM45.5039 182.12C45.0906 182.12 44.7272 182.07 44.4139 181.97C44.1006 181.863 43.8372 181.72 43.6239 181.54C43.4106 181.36 43.2472 181.147 43.1339 180.9C43.0272 180.653 42.9739 180.383 42.9739 180.09C42.9739 179.623 43.1039 179.25 43.3639 178.97C43.6239 178.69 43.9639 178.493 44.3839 178.38V178.3C44.0239 178.173 43.7339 177.973 43.5139 177.7C43.2939 177.427 43.1839 177.09 43.1839 176.69C43.1839 176.15 43.3839 175.717 43.7839 175.39C44.1906 175.063 44.7639 174.9 45.5039 174.9C46.2439 174.9 46.8139 175.063 47.2139 175.39C47.6206 175.717 47.8239 176.15 47.8239 176.69C47.8239 177.09 47.7139 177.427 47.4939 177.7C47.2739 177.973 46.9839 178.173 46.6239 178.3V178.38C47.0439 178.493 47.3839 178.69 47.6439 178.97C47.9039 179.25 48.0339 179.623 48.0339 180.09C48.0339 180.383 47.9772 180.653 47.8639 180.9C47.7572 181.147 47.5972 181.36 47.3839 181.54C47.1706 181.72 46.9072 181.863 46.5939 181.97C46.2806 182.07 45.9172 182.12 45.5039 182.12ZM45.5039 181.23C45.9439 181.23 46.2806 181.133 46.5139 180.94C46.7539 180.747 46.8739 180.473 46.8739 180.12V179.91C46.8739 179.557 46.7539 179.283 46.5139 179.09C46.2806 178.897 45.9439 178.8 45.5039 178.8C45.0639 178.8 44.7239 178.897 44.4839 179.09C44.2506 179.283 44.1339 179.557 44.1339 179.91V180.12C44.1339 180.473 44.2506 180.747 44.4839 180.94C44.7239 181.133 45.0639 181.23 45.5039 181.23ZM45.5039 177.94C45.9039 177.94 46.2072 177.853 46.4139 177.68C46.6272 177.5 46.7339 177.25 46.7339 176.93V176.8C46.7339 176.48 46.6272 176.233 46.4139 176.06C46.2072 175.88 45.9039 175.79 45.5039 175.79C45.1039 175.79 44.7972 175.88 44.5839 176.06C44.3772 176.233 44.2739 176.48 44.2739 176.8V176.93C44.2739 177.25 44.3772 177.5 44.5839 177.68C44.7972 177.853 45.1039 177.94 45.5039 177.94ZM49.29 176.84H50.38V177.72H50.44C50.5933 177.407 50.7967 177.163 51.05 176.99C51.3033 176.81 51.62 176.72 52 176.72C52.6067 176.72 53.09 176.947 53.45 177.4C53.81 177.853 53.99 178.527 53.99 179.42C53.99 180.313 53.81 180.987 53.45 181.44C53.09 181.893 52.6067 182.12 52 182.12C51.62 182.12 51.3033 182.033 51.05 181.86C50.7967 181.68 50.5933 181.433 50.44 181.12H50.38V184H49.29V176.84ZM51.55 181.23C51.9633 181.23 52.28 181.103 52.5 180.85C52.7267 180.597 52.84 180.26 52.84 179.84V179C52.84 178.58 52.7267 178.243 52.5 177.99C52.28 177.737 51.9633 177.61 51.55 177.61C51.39 177.61 51.24 177.63 51.1 177.67C50.96 177.71 50.8367 177.77 50.73 177.85C50.6233 177.93 50.5367 178.03 50.47 178.15C50.41 178.263 50.38 178.4 50.38 178.56V180.28C50.38 180.44 50.41 180.58 50.47 180.7C50.5367 180.813 50.6233 180.91 50.73 180.99C50.8367 181.07 50.96 181.13 51.1 181.17C51.24 181.21 51.39 181.23 51.55 181.23ZM57.8061 182C57.3528 182 57.0194 181.88 56.8061 181.64C56.5928 181.393 56.4861 181.077 56.4861 180.69V177.72H54.8961V176.84H56.0261C56.2194 176.84 56.3561 176.803 56.4361 176.73C56.5161 176.65 56.5561 176.51 56.5561 176.31V175.02H57.5761V176.84H59.7761V177.72H57.5761V181.12H59.7761V182H57.8061Z" fill="white"/>
<path fill-rule="evenodd" clip-rule="evenodd" d="M145.043 244.748L145.784 244L150 248.253L145.784 252.505L145.043 251.757L147.055 249.706L148.157 248.744L148.136 248.701L145.996 248.787H128.737L128.737 248.782L121.019 248.805L118.871 248.72L118.85 248.763L119.956 249.72L121.976 251.761L121.231 252.505L117 248.274L121.231 244.043L121.976 244.787L119.956 246.828L118.85 247.785L118.871 247.827L121.019 247.742L128.737 247.715L128.737 247.718H145.996L148.136 247.804L148.157 247.761L147.055 246.799L145.043 244.748Z" fill="white"/>
<path d="M124.218 258.9C124.664 258.9 124.994 258.807 125.208 258.62C125.428 258.427 125.538 258.187 125.538 257.9V257.83C125.538 257.51 125.431 257.267 125.218 257.1C125.011 256.927 124.731 256.84 124.378 256.84C124.038 256.84 123.748 256.917 123.508 257.07C123.274 257.223 123.078 257.433 122.918 257.7L122.158 257.05C122.264 256.897 122.388 256.75 122.528 256.61C122.668 256.47 122.828 256.35 123.008 256.25C123.188 256.143 123.394 256.06 123.628 256C123.861 255.933 124.124 255.9 124.418 255.9C124.744 255.9 125.048 255.94 125.328 256.02C125.608 256.1 125.851 256.22 126.058 256.38C126.264 256.533 126.424 256.723 126.538 256.95C126.651 257.17 126.708 257.42 126.708 257.7C126.708 257.92 126.671 258.12 126.598 258.3C126.531 258.48 126.434 258.64 126.308 258.78C126.188 258.913 126.044 259.023 125.878 259.11C125.711 259.197 125.534 259.26 125.348 259.3V259.35C125.548 259.39 125.738 259.457 125.918 259.55C126.098 259.637 126.258 259.753 126.398 259.9C126.538 260.04 126.648 260.21 126.728 260.41C126.808 260.603 126.848 260.827 126.848 261.08C126.848 261.387 126.788 261.667 126.668 261.92C126.548 262.167 126.374 262.38 126.148 262.56C125.928 262.74 125.661 262.88 125.348 262.98C125.034 263.073 124.684 263.12 124.298 263.12C123.971 263.12 123.681 263.083 123.428 263.01C123.181 262.943 122.961 262.853 122.768 262.74C122.574 262.62 122.404 262.487 122.258 262.34C122.118 262.187 121.994 262.03 121.888 261.87L122.718 261.23C122.891 261.51 123.094 261.74 123.328 261.92C123.568 262.093 123.894 262.18 124.308 262.18C124.748 262.18 125.084 262.08 125.318 261.88C125.551 261.673 125.668 261.39 125.668 261.03V260.95C125.668 260.59 125.544 260.317 125.298 260.13C125.058 259.937 124.708 259.84 124.248 259.84H123.498V258.9H124.218ZM130.504 263.12C130.091 263.12 129.727 263.07 129.414 262.97C129.101 262.863 128.837 262.72 128.624 262.54C128.411 262.36 128.247 262.147 128.134 261.9C128.027 261.653 127.974 261.383 127.974 261.09C127.974 260.623 128.104 260.25 128.364 259.97C128.624 259.69 128.964 259.493 129.384 259.38V259.3C129.024 259.173 128.734 258.973 128.514 258.7C128.294 258.427 128.184 258.09 128.184 257.69C128.184 257.15 128.384 256.717 128.784 256.39C129.191 256.063 129.764 255.9 130.504 255.9C131.244 255.9 131.814 256.063 132.214 256.39C132.621 256.717 132.824 257.15 132.824 257.69C132.824 258.09 132.714 258.427 132.494 258.7C132.274 258.973 131.984 259.173 131.624 259.3V259.38C132.044 259.493 132.384 259.69 132.644 259.97C132.904 260.25 133.034 260.623 133.034 261.09C133.034 261.383 132.977 261.653 132.864 261.9C132.757 262.147 132.597 262.36 132.384 262.54C132.171 262.72 131.907 262.863 131.594 262.97C131.281 263.07 130.917 263.12 130.504 263.12ZM130.504 262.23C130.944 262.23 131.281 262.133 131.514 261.94C131.754 261.747 131.874 261.473 131.874 261.12V260.91C131.874 260.557 131.754 260.283 131.514 260.09C131.281 259.897 130.944 259.8 130.504 259.8C130.064 259.8 129.724 259.897 129.484 260.09C129.251 260.283 129.134 260.557 129.134 260.91V261.12C129.134 261.473 129.251 261.747 129.484 261.94C129.724 262.133 130.064 262.23 130.504 262.23ZM130.504 258.94C130.904 258.94 131.207 258.853 131.414 258.68C131.627 258.5 131.734 258.25 131.734 257.93V257.8C131.734 257.48 131.627 257.233 131.414 257.06C131.207 256.88 130.904 256.79 130.504 256.79C130.104 256.79 129.797 256.88 129.584 257.06C129.377 257.233 129.274 257.48 129.274 257.8V257.93C129.274 258.25 129.377 258.5 129.584 258.68C129.797 258.853 130.104 258.94 130.504 258.94ZM134.29 257.84H135.38V258.72H135.44C135.593 258.407 135.797 258.163 136.05 257.99C136.303 257.81 136.62 257.72 137 257.72C137.607 257.72 138.09 257.947 138.45 258.4C138.81 258.853 138.99 259.527 138.99 260.42C138.99 261.313 138.81 261.987 138.45 262.44C138.09 262.893 137.607 263.12 137 263.12C136.62 263.12 136.303 263.033 136.05 262.86C135.797 262.68 135.593 262.433 135.44 262.12H135.38V265H134.29V257.84ZM136.55 262.23C136.963 262.23 137.28 262.103 137.5 261.85C137.727 261.597 137.84 261.26 137.84 260.84V260C137.84 259.58 137.727 259.243 137.5 258.99C137.28 258.737 136.963 258.61 136.55 258.61C136.39 258.61 136.24 258.63 136.1 258.67C135.96 258.71 135.837 258.77 135.73 258.85C135.623 258.93 135.537 259.03 135.47 259.15C135.41 259.263 135.38 259.4 135.38 259.56V261.28C135.38 261.44 135.41 261.58 135.47 261.7C135.537 261.813 135.623 261.91 135.73 261.99C135.837 262.07 135.96 262.13 136.1 262.17C136.24 262.21 136.39 262.23 136.55 262.23ZM142.806 263C142.353 263 142.019 262.88 141.806 262.64C141.593 262.393 141.486 262.077 141.486 261.69V258.72H139.896V257.84H141.026C141.219 257.84 141.356 257.803 141.436 257.73C141.516 257.65 141.556 257.51 141.556 257.31V256.02H142.576V257.84H144.776V258.72H142.576V262.12H144.776V263H142.806Z" fill="white"/>
<path fill-rule="evenodd" clip-rule="evenodd" d="M847.043 162.748L847.784 162L852 166.253L847.784 170.505L847.043 169.757L849.055 167.706L850.157 166.744L850.136 166.701L847.996 166.787H830.737L830.737 166.782L823.019 166.805L820.871 166.72L820.85 166.763L821.956 167.72L823.976 169.761L823.231 170.505L819 166.274L823.231 162.043L823.976 162.787L821.956 164.828L820.85 165.785L820.871 165.827L823.019 165.742L830.737 165.715L830.737 165.718H847.996L850.136 165.804L850.157 165.761L849.055 164.799L847.043 162.748Z" fill="white"/>
<path d="M826.218 176.9C826.664 176.9 826.994 176.807 827.208 176.62C827.428 176.427 827.538 176.187 827.538 175.9V175.83C827.538 175.51 827.431 175.267 827.218 175.1C827.011 174.927 826.731 174.84 826.378 174.84C826.038 174.84 825.748 174.917 825.508 175.07C825.274 175.223 825.078 175.433 824.918 175.7L824.158 175.05C824.264 174.897 824.388 174.75 824.528 174.61C824.668 174.47 824.828 174.35 825.008 174.25C825.188 174.143 825.394 174.06 825.628 174C825.861 173.933 826.124 173.9 826.418 173.9C826.744 173.9 827.048 173.94 827.328 174.02C827.608 174.1 827.851 174.22 828.058 174.38C828.264 174.533 828.424 174.723 828.538 174.95C828.651 175.17 828.708 175.42 828.708 175.7C828.708 175.92 828.671 176.12 828.598 176.3C828.531 176.48 828.434 176.64 828.308 176.78C828.188 176.913 828.044 177.023 827.878 177.11C827.711 177.197 827.534 177.26 827.348 177.3V177.35C827.548 177.39 827.738 177.457 827.918 177.55C828.098 177.637 828.258 177.753 828.398 177.9C828.538 178.04 828.648 178.21 828.728 178.41C828.808 178.603 828.848 178.827 828.848 179.08C828.848 179.387 828.788 179.667 828.668 179.92C828.548 180.167 828.374 180.38 828.148 180.56C827.928 180.74 827.661 180.88 827.348 180.98C827.034 181.073 826.684 181.12 826.298 181.12C825.971 181.12 825.681 181.083 825.428 181.01C825.181 180.943 824.961 180.853 824.768 180.74C824.574 180.62 824.404 180.487 824.258 180.34C824.118 180.187 823.994 180.03 823.888 179.87L824.718 179.23C824.891 179.51 825.094 179.74 825.328 179.92C825.568 180.093 825.894 180.18 826.308 180.18C826.748 180.18 827.084 180.08 827.318 179.88C827.551 179.673 827.668 179.39 827.668 179.03V178.95C827.668 178.59 827.544 178.317 827.298 178.13C827.058 177.937 826.708 177.84 826.248 177.84H825.498V176.9H826.218ZM832.504 181.12C832.091 181.12 831.727 181.07 831.414 180.97C831.101 180.863 830.837 180.72 830.624 180.54C830.411 180.36 830.247 180.147 830.134 179.9C830.027 179.653 829.974 179.383 829.974 179.09C829.974 178.623 830.104 178.25 830.364 177.97C830.624 177.69 830.964 177.493 831.384 177.38V177.3C831.024 177.173 830.734 176.973 830.514 176.7C830.294 176.427 830.184 176.09 830.184 175.69C830.184 175.15 830.384 174.717 830.784 174.39C831.191 174.063 831.764 173.9 832.504 173.9C833.244 173.9 833.814 174.063 834.214 174.39C834.621 174.717 834.824 175.15 834.824 175.69C834.824 176.09 834.714 176.427 834.494 176.7C834.274 176.973 833.984 177.173 833.624 177.3V177.38C834.044 177.493 834.384 177.69 834.644 177.97C834.904 178.25 835.034 178.623 835.034 179.09C835.034 179.383 834.977 179.653 834.864 179.9C834.757 180.147 834.597 180.36 834.384 180.54C834.171 180.72 833.907 180.863 833.594 180.97C833.281 181.07 832.917 181.12 832.504 181.12ZM832.504 180.23C832.944 180.23 833.281 180.133 833.514 179.94C833.754 179.747 833.874 179.473 833.874 179.12V178.91C833.874 178.557 833.754 178.283 833.514 178.09C833.281 177.897 832.944 177.8 832.504 177.8C832.064 177.8 831.724 177.897 831.484 178.09C831.251 178.283 831.134 178.557 831.134 178.91V179.12C831.134 179.473 831.251 179.747 831.484 179.94C831.724 180.133 832.064 180.23 832.504 180.23ZM832.504 176.94C832.904 176.94 833.207 176.853 833.414 176.68C833.627 176.5 833.734 176.25 833.734 175.93V175.8C833.734 175.48 833.627 175.233 833.414 175.06C833.207 174.88 832.904 174.79 832.504 174.79C832.104 174.79 831.797 174.88 831.584 175.06C831.377 175.233 831.274 175.48 831.274 175.8V175.93C831.274 176.25 831.377 176.5 831.584 176.68C831.797 176.853 832.104 176.94 832.504 176.94ZM836.29 175.84H837.38V176.72H837.44C837.593 176.407 837.797 176.163 838.05 175.99C838.303 175.81 838.62 175.72 839 175.72C839.607 175.72 840.09 175.947 840.45 176.4C840.81 176.853 840.99 177.527 840.99 178.42C840.99 179.313 840.81 179.987 840.45 180.44C840.09 180.893 839.607 181.12 839 181.12C838.62 181.12 838.303 181.033 838.05 180.86C837.797 180.68 837.593 180.433 837.44 180.12H837.38V183H836.29V175.84ZM838.55 180.23C838.963 180.23 839.28 180.103 839.5 179.85C839.727 179.597 839.84 179.26 839.84 178.84V178C839.84 177.58 839.727 177.243 839.5 176.99C839.28 176.737 838.963 176.61 838.55 176.61C838.39 176.61 838.24 176.63 838.1 176.67C837.96 176.71 837.837 176.77 837.73 176.85C837.623 176.93 837.537 177.03 837.47 177.15C837.41 177.263 837.38 177.4 837.38 177.56V179.28C837.38 179.44 837.41 179.58 837.47 179.7C837.537 179.813 837.623 179.91 837.73 179.99C837.837 180.07 837.96 180.13 838.1 180.17C838.24 180.21 838.39 180.23 838.55 180.23ZM844.806 181C844.353 181 844.019 180.88 843.806 180.64C843.593 180.393 843.486 180.077 843.486 179.69V176.72H841.896V175.84H843.026C843.219 175.84 843.356 175.803 843.436 175.73C843.516 175.65 843.556 175.51 843.556 175.31V174.02H844.576V175.84H846.776V176.72H844.576V180.12H846.776V181H844.806Z" fill="white"/>
<path fill-rule="evenodd" clip-rule="evenodd" d="M950.043 162.748L950.784 162L955 166.253L950.784 170.505L950.043 169.757L952.055 167.706L953.157 166.744L953.136 166.701L950.996 166.787H933.737L933.737 166.782L926.019 166.805L923.871 166.72L923.85 166.763L924.956 167.72L926.976 169.761L926.231 170.505L922 166.274L926.231 162.043L926.976 162.787L924.956 164.828L923.85 165.785L923.871 165.827L926.019 165.742L933.737 165.715L933.737 165.718H950.996L953.136 165.804L953.157 165.761L952.055 164.799L950.043 162.748Z" fill="white"/>
<path d="M929.218 176.9C929.664 176.9 929.994 176.807 930.208 176.62C930.428 176.427 930.538 176.187 930.538 175.9V175.83C930.538 175.51 930.431 175.267 930.218 175.1C930.011 174.927 929.731 174.84 929.378 174.84C929.038 174.84 928.748 174.917 928.508 175.07C928.274 175.223 928.078 175.433 927.918 175.7L927.158 175.05C927.264 174.897 927.388 174.75 927.528 174.61C927.668 174.47 927.828 174.35 928.008 174.25C928.188 174.143 928.394 174.06 928.628 174C928.861 173.933 929.124 173.9 929.418 173.9C929.744 173.9 930.048 173.94 930.328 174.02C930.608 174.1 930.851 174.22 931.058 174.38C931.264 174.533 931.424 174.723 931.538 174.95C931.651 175.17 931.708 175.42 931.708 175.7C931.708 175.92 931.671 176.12 931.598 176.3C931.531 176.48 931.434 176.64 931.308 176.78C931.188 176.913 931.044 177.023 930.878 177.11C930.711 177.197 930.534 177.26 930.348 177.3V177.35C930.548 177.39 930.738 177.457 930.918 177.55C931.098 177.637 931.258 177.753 931.398 177.9C931.538 178.04 931.648 178.21 931.728 178.41C931.808 178.603 931.848 178.827 931.848 179.08C931.848 179.387 931.788 179.667 931.668 179.92C931.548 180.167 931.374 180.38 931.148 180.56C930.928 180.74 930.661 180.88 930.348 180.98C930.034 181.073 929.684 181.12 929.298 181.12C928.971 181.12 928.681 181.083 928.428 181.01C928.181 180.943 927.961 180.853 927.768 180.74C927.574 180.62 927.404 180.487 927.258 180.34C927.118 180.187 926.994 180.03 926.888 179.87L927.718 179.23C927.891 179.51 928.094 179.74 928.328 179.92C928.568 180.093 928.894 180.18 929.308 180.18C929.748 180.18 930.084 180.08 930.318 179.88C930.551 179.673 930.668 179.39 930.668 179.03V178.95C930.668 178.59 930.544 178.317 930.298 178.13C930.058 177.937 929.708 177.84 929.248 177.84H928.498V176.9H929.218ZM935.504 181.12C935.091 181.12 934.727 181.07 934.414 180.97C934.101 180.863 933.837 180.72 933.624 180.54C933.411 180.36 933.247 180.147 933.134 179.9C933.027 179.653 932.974 179.383 932.974 179.09C932.974 178.623 933.104 178.25 933.364 177.97C933.624 177.69 933.964 177.493 934.384 177.38V177.3C934.024 177.173 933.734 176.973 933.514 176.7C933.294 176.427 933.184 176.09 933.184 175.69C933.184 175.15 933.384 174.717 933.784 174.39C934.191 174.063 934.764 173.9 935.504 173.9C936.244 173.9 936.814 174.063 937.214 174.39C937.621 174.717 937.824 175.15 937.824 175.69C937.824 176.09 937.714 176.427 937.494 176.7C937.274 176.973 936.984 177.173 936.624 177.3V177.38C937.044 177.493 937.384 177.69 937.644 177.97C937.904 178.25 938.034 178.623 938.034 179.09C938.034 179.383 937.977 179.653 937.864 179.9C937.757 180.147 937.597 180.36 937.384 180.54C937.171 180.72 936.907 180.863 936.594 180.97C936.281 181.07 935.917 181.12 935.504 181.12ZM935.504 180.23C935.944 180.23 936.281 180.133 936.514 179.94C936.754 179.747 936.874 179.473 936.874 179.12V178.91C936.874 178.557 936.754 178.283 936.514 178.09C936.281 177.897 935.944 177.8 935.504 177.8C935.064 177.8 934.724 177.897 934.484 178.09C934.251 178.283 934.134 178.557 934.134 178.91V179.12C934.134 179.473 934.251 179.747 934.484 179.94C934.724 180.133 935.064 180.23 935.504 180.23ZM935.504 176.94C935.904 176.94 936.207 176.853 936.414 176.68C936.627 176.5 936.734 176.25 936.734 175.93V175.8C936.734 175.48 936.627 175.233 936.414 175.06C936.207 174.88 935.904 174.79 935.504 174.79C935.104 174.79 934.797 174.88 934.584 175.06C934.377 175.233 934.274 175.48 934.274 175.8V175.93C934.274 176.25 934.377 176.5 934.584 176.68C934.797 176.853 935.104 176.94 935.504 176.94ZM939.29 175.84H940.38V176.72H940.44C940.593 176.407 940.797 176.163 941.05 175.99C941.303 175.81 941.62 175.72 942 175.72C942.607 175.72 943.09 175.947 943.45 176.4C943.81 176.853 943.99 177.527 943.99 178.42C943.99 179.313 943.81 179.987 943.45 180.44C943.09 180.893 942.607 181.12 942 181.12C941.62 181.12 941.303 181.033 941.05 180.86C940.797 180.68 940.593 180.433 940.44 180.12H940.38V183H939.29V175.84ZM941.55 180.23C941.963 180.23 942.28 180.103 942.5 179.85C942.727 179.597 942.84 179.26 942.84 178.84V178C942.84 177.58 942.727 177.243 942.5 176.99C942.28 176.737 941.963 176.61 941.55 176.61C941.39 176.61 941.24 176.63 941.1 176.67C940.96 176.71 940.837 176.77 940.73 176.85C940.623 176.93 940.537 177.03 940.47 177.15C940.41 177.263 940.38 177.4 940.38 177.56V179.28C940.38 179.44 940.41 179.58 940.47 179.7C940.537 179.813 940.623 179.91 940.73 179.99C940.837 180.07 940.96 180.13 941.1 180.17C941.24 180.21 941.39 180.23 941.55 180.23ZM947.806 181C947.353 181 947.019 180.88 946.806 180.64C946.593 180.393 946.486 180.077 946.486 179.69V176.72H944.896V175.84H946.026C946.219 175.84 946.356 175.803 946.436 175.73C946.516 175.65 946.556 175.51 946.556 175.31V174.02H947.576V175.84H949.776V176.72H947.576V180.12H949.776V181H947.806Z" fill="white"/>
<path d="M229.388 176V175.07H231.348V169.84H231.268L229.648 171.57L228.958 170.95L230.738 169.02H232.468V175.07H234.158V176H229.388ZM237.524 176.12C237.131 176.12 236.781 176.057 236.474 175.93C236.167 175.803 235.907 175.623 235.694 175.39C235.481 175.15 235.317 174.863 235.204 174.53C235.091 174.197 235.034 173.82 235.034 173.4C235.034 172.893 235.111 172.417 235.264 171.97C235.417 171.523 235.617 171.113 235.864 170.74C236.111 170.367 236.384 170.037 236.684 169.75C236.984 169.457 237.281 169.213 237.574 169.02H239.074C238.674 169.307 238.314 169.583 237.994 169.85C237.674 170.117 237.394 170.39 237.154 170.67C236.921 170.95 236.724 171.247 236.564 171.56C236.404 171.867 236.281 172.21 236.194 172.59L236.264 172.61C236.337 172.47 236.424 172.34 236.524 172.22C236.624 172.093 236.741 171.983 236.874 171.89C237.007 171.797 237.161 171.723 237.334 171.67C237.507 171.617 237.704 171.59 237.924 171.59C238.224 171.59 238.501 171.64 238.754 171.74C239.007 171.84 239.227 171.987 239.414 172.18C239.601 172.367 239.744 172.593 239.844 172.86C239.951 173.127 240.004 173.427 240.004 173.76C240.004 174.107 239.944 174.427 239.824 174.72C239.711 175.007 239.544 175.253 239.324 175.46C239.111 175.667 238.851 175.83 238.544 175.95C238.237 176.063 237.897 176.12 237.524 176.12ZM237.514 175.22C237.941 175.22 238.271 175.107 238.504 174.88C238.737 174.647 238.854 174.32 238.854 173.9V173.8C238.854 173.38 238.737 173.057 238.504 172.83C238.271 172.597 237.941 172.48 237.514 172.48C237.094 172.48 236.767 172.597 236.534 172.83C236.301 173.057 236.184 173.38 236.184 173.8V173.9C236.184 174.32 236.301 174.647 236.534 174.88C236.767 175.107 237.094 175.22 237.514 175.22ZM241.29 170.84H242.38V171.72H242.44C242.593 171.407 242.797 171.163 243.05 170.99C243.303 170.81 243.62 170.72 244 170.72C244.607 170.72 245.09 170.947 245.45 171.4C245.81 171.853 245.99 172.527 245.99 173.42C245.99 174.313 245.81 174.987 245.45 175.44C245.09 175.893 244.607 176.12 244 176.12C243.62 176.12 243.303 176.033 243.05 175.86C242.797 175.68 242.593 175.433 242.44 175.12H242.38V178H241.29V170.84ZM243.55 175.23C243.963 175.23 244.28 175.103 244.5 174.85C244.727 174.597 244.84 174.26 244.84 173.84V173C244.84 172.58 244.727 172.243 244.5 171.99C244.28 171.737 243.963 171.61 243.55 171.61C243.39 171.61 243.24 171.63 243.1 171.67C242.96 171.71 242.837 171.77 242.73 171.85C242.623 171.93 242.537 172.03 242.47 172.15C242.41 172.263 242.38 172.4 242.38 172.56V174.28C242.38 174.44 242.41 174.58 242.47 174.7C242.537 174.813 242.623 174.91 242.73 174.99C242.837 175.07 242.96 175.13 243.1 175.17C243.24 175.21 243.39 175.23 243.55 175.23ZM249.806 176C249.353 176 249.019 175.88 248.806 175.64C248.593 175.393 248.486 175.077 248.486 174.69V171.72H246.896V170.84H248.026C248.219 170.84 248.356 170.803 248.436 170.73C248.516 170.65 248.556 170.51 248.556 170.31V169.02H249.576V170.84H251.776V171.72H249.576V175.12H251.776V176H249.806Z" fill="white"/>
<path d="M544.388 167V166.07H546.348V160.84H546.268L544.648 162.57L543.958 161.95L545.738 160.02H547.468V166.07H549.158V167H544.388ZM552.524 167.12C552.131 167.12 551.781 167.057 551.474 166.93C551.167 166.803 550.907 166.623 550.694 166.39C550.481 166.15 550.317 165.863 550.204 165.53C550.091 165.197 550.034 164.82 550.034 164.4C550.034 163.893 550.111 163.417 550.264 162.97C550.417 162.523 550.617 162.113 550.864 161.74C551.111 161.367 551.384 161.037 551.684 160.75C551.984 160.457 552.281 160.213 552.574 160.02H554.074C553.674 160.307 553.314 160.583 552.994 160.85C552.674 161.117 552.394 161.39 552.154 161.67C551.921 161.95 551.724 162.247 551.564 162.56C551.404 162.867 551.281 163.21 551.194 163.59L551.264 163.61C551.337 163.47 551.424 163.34 551.524 163.22C551.624 163.093 551.741 162.983 551.874 162.89C552.007 162.797 552.161 162.723 552.334 162.67C552.507 162.617 552.704 162.59 552.924 162.59C553.224 162.59 553.501 162.64 553.754 162.74C554.007 162.84 554.227 162.987 554.414 163.18C554.601 163.367 554.744 163.593 554.844 163.86C554.951 164.127 555.004 164.427 555.004 164.76C555.004 165.107 554.944 165.427 554.824 165.72C554.711 166.007 554.544 166.253 554.324 166.46C554.111 166.667 553.851 166.83 553.544 166.95C553.237 167.063 552.897 167.12 552.524 167.12ZM552.514 166.22C552.941 166.22 553.271 166.107 553.504 165.88C553.737 165.647 553.854 165.32 553.854 164.9V164.8C553.854 164.38 553.737 164.057 553.504 163.83C553.271 163.597 552.941 163.48 552.514 163.48C552.094 163.48 551.767 163.597 551.534 163.83C551.301 164.057 551.184 164.38 551.184 164.8V164.9C551.184 165.32 551.301 165.647 551.534 165.88C551.767 166.107 552.094 166.22 552.514 166.22ZM556.29 161.84H557.38V162.72H557.44C557.593 162.407 557.797 162.163 558.05 161.99C558.303 161.81 558.62 161.72 559 161.72C559.607 161.72 560.09 161.947 560.45 162.4C560.81 162.853 560.99 163.527 560.99 164.42C560.99 165.313 560.81 165.987 560.45 166.44C560.09 166.893 559.607 167.12 559 167.12C558.62 167.12 558.303 167.033 558.05 166.86C557.797 166.68 557.593 166.433 557.44 166.12H557.38V169H556.29V161.84ZM558.55 166.23C558.963 166.23 559.28 166.103 559.5 165.85C559.727 165.597 559.84 165.26 559.84 164.84V164C559.84 163.58 559.727 163.243 559.5 162.99C559.28 162.737 558.963 162.61 558.55 162.61C558.39 162.61 558.24 162.63 558.1 162.67C557.96 162.71 557.837 162.77 557.73 162.85C557.623 162.93 557.537 163.03 557.47 163.15C557.41 163.263 557.38 163.4 557.38 163.56V165.28C557.38 165.44 557.41 165.58 557.47 165.7C557.537 165.813 557.623 165.91 557.73 165.99C557.837 166.07 557.96 166.13 558.1 166.17C558.24 166.21 558.39 166.23 558.55 166.23ZM564.806 167C564.353 167 564.019 166.88 563.806 166.64C563.593 166.393 563.486 166.077 563.486 165.69V162.72H561.896V161.84H563.026C563.219 161.84 563.356 161.803 563.436 161.73C563.516 161.65 563.556 161.51 563.556 161.31V160.02H564.576V161.84H566.776V162.72H564.576V166.12H566.776V167H564.806Z" fill="white"/>
<path d="M258 181V164H263V165.174H259.232V179.826H263V181H258Z" fill="white"/>
<line x1="1.5" y1="43" x2="1.50001" y2="292" stroke="white" stroke-width="3" stroke-dasharray="6 6"/>
<line x1="172.5" y1="43" x2="172.5" y2="292" stroke="white" stroke-width="3" stroke-dasharray="6 6"/>
<line x1="964.5" y1="43" x2="964.5" y2="292" stroke="white" stroke-width="3" stroke-dasharray="6 6"/>
<line x1="400.5" y1="120" x2="400.5" y2="429" stroke="white" stroke-width="3" stroke-dasharray="6 6"/>
<line x1="583.5" y1="120" x2="583.5" y2="429" stroke="white" stroke-width="3" stroke-dasharray="6 6"/>
<path d="M865.89 25V24.07H867.85V18.84H867.77L866.15 20.57L865.46 19.95L867.24 18.02H868.97V24.07H870.66V25H865.89ZM876.456 25H871.636V23.93L873.916 21.94C874.276 21.62 874.553 21.3167 874.746 21.03C874.946 20.7433 875.046 20.44 875.046 20.12V20.01C875.046 19.6433 874.946 19.3633 874.746 19.17C874.546 18.97 874.256 18.87 873.876 18.87C873.489 18.87 873.189 18.9733 872.976 19.18C872.769 19.3867 872.619 19.65 872.526 19.97L871.546 19.6C871.613 19.38 871.709 19.17 871.836 18.97C871.963 18.7633 872.123 18.58 872.316 18.42C872.516 18.26 872.749 18.1333 873.016 18.04C873.289 17.9467 873.603 17.9 873.956 17.9C874.316 17.9 874.636 17.9533 874.916 18.06C875.203 18.16 875.443 18.3 875.636 18.48C875.829 18.66 875.976 18.8767 876.076 19.13C876.176 19.3767 876.226 19.65 876.226 19.95C876.226 20.23 876.183 20.49 876.096 20.73C876.016 20.9633 875.899 21.19 875.746 21.41C875.599 21.6233 875.423 21.83 875.216 22.03C875.009 22.23 874.783 22.43 874.536 22.63L872.846 24.05H876.456V25ZM880.022 25.12C879.629 25.12 879.279 25.0567 878.972 24.93C878.665 24.8033 878.405 24.6233 878.192 24.39C877.979 24.15 877.815 23.8633 877.702 23.53C877.589 23.1967 877.532 22.82 877.532 22.4C877.532 21.8933 877.609 21.4167 877.762 20.97C877.915 20.5233 878.115 20.1133 878.362 19.74C878.609 19.3667 878.882 19.0367 879.182 18.75C879.482 18.4567 879.779 18.2133 880.072 18.02H881.572C881.172 18.3067 880.812 18.5833 880.492 18.85C880.172 19.1167 879.892 19.39 879.652 19.67C879.419 19.95 879.222 20.2467 879.062 20.56C878.902 20.8667 878.779 21.21 878.692 21.59L878.762 21.61C878.835 21.47 878.922 21.34 879.022 21.22C879.122 21.0933 879.239 20.9833 879.372 20.89C879.505 20.7967 879.659 20.7233 879.832 20.67C880.005 20.6167 880.202 20.59 880.422 20.59C880.722 20.59 880.999 20.64 881.252 20.74C881.505 20.84 881.725 20.9867 881.912 21.18C882.099 21.3667 882.242 21.5933 882.342 21.86C882.449 22.1267 882.502 22.4267 882.502 22.76C882.502 23.1067 882.442 23.4267 882.322 23.72C882.209 24.0067 882.042 24.2533 881.822 24.46C881.609 24.6667 881.349 24.83 881.042 24.95C880.735 25.0633 880.395 25.12 880.022 25.12ZM880.012 24.22C880.439 24.22 880.769 24.1067 881.002 23.88C881.235 23.6467 881.352 23.32 881.352 22.9V22.8C881.352 22.38 881.235 22.0567 881.002 21.83C880.769 21.5967 880.439 21.48 880.012 21.48C879.592 21.48 879.265 21.5967 879.032 21.83C878.799 22.0567 878.682 22.38 878.682 22.8V22.9C878.682 23.32 878.799 23.6467 879.032 23.88C879.265 24.1067 879.592 24.22 880.012 24.22ZM883.788 19.84H884.878V20.72H884.938C885.091 20.4067 885.295 20.1633 885.548 19.99C885.801 19.81 886.118 19.72 886.498 19.72C887.105 19.72 887.588 19.9467 887.948 20.4C888.308 20.8533 888.488 21.5267 888.488 22.42C888.488 23.3133 888.308 23.9867 887.948 24.44C887.588 24.8933 887.105 25.12 886.498 25.12C886.118 25.12 885.801 25.0333 885.548 24.86C885.295 24.68 885.091 24.4333 884.938 24.12H884.878V27H883.788V19.84ZM886.048 24.23C886.461 24.23 886.778 24.1033 886.998 23.85C887.225 23.5967 887.338 23.26 887.338 22.84V22C887.338 21.58 887.225 21.2433 886.998 20.99C886.778 20.7367 886.461 20.61 886.048 20.61C885.888 20.61 885.738 20.63 885.598 20.67C885.458 20.71 885.335 20.77 885.228 20.85C885.121 20.93 885.035 21.03 884.968 21.15C884.908 21.2633 884.878 21.4 884.878 21.56V23.28C884.878 23.44 884.908 23.58 884.968 23.7C885.035 23.8133 885.121 23.91 885.228 23.99C885.335 24.07 885.458 24.13 885.598 24.17C885.738 24.21 885.888 24.23 886.048 24.23ZM892.304 25C891.851 25 891.517 24.88 891.304 24.64C891.091 24.3933 890.984 24.0767 890.984 23.69V20.72H889.394V19.84H890.524C890.717 19.84 890.854 19.8033 890.934 19.73C891.014 19.65 891.054 19.51 891.054 19.31V18.02H892.074V19.84H894.274V20.72H892.074V24.12H894.274V25H892.304Z" fill="white"/>
</svg>
