<svg width="51" height="68" viewBox="0 0 51 68" fill="none" xmlns="http://www.w3.org/2000/svg">
<path d="M11.725 67.4L15.89 47.765C13 47.3683 10.365 46.405 7.985 44.875C5.66167 43.2883 3.82 41.1633 2.46 38.5C1.1 35.78 0.42 32.55 0.42 28.81C0.42 24.9 0.93 21.2167 1.95 17.76C3.02667 14.3033 4.585 11.1583 6.625 8.325C8.72167 5.435 11.3 2.99833 14.36 1.015L18.695 5.52C16.4283 7.10667 14.4733 9.09 12.83 11.47C11.2433 13.7933 9.99667 16.3717 9.09 19.205C8.24 22.0383 7.815 24.985 7.815 28.045C7.815 31.0483 8.24 33.5133 9.09 35.44C9.99667 37.3667 11.1583 38.84 12.575 39.86C14.0483 40.8233 15.6067 41.4183 17.25 41.645L22.775 15.465C23.455 12.405 24.4183 9.77 25.665 7.56C26.9117 5.35 28.5267 3.65 30.51 2.46C32.55 1.27 35.0433 0.674999 37.99 0.674999C40.71 0.674999 43.005 1.29833 44.875 2.545C46.745 3.735 48.1617 5.49166 49.125 7.815C50.0883 10.0817 50.57 12.83 50.57 16.06C50.57 19.0067 50.23 21.9533 49.55 24.9C48.9267 27.8467 47.9067 30.6517 46.49 33.315C45.13 35.9217 43.345 38.2733 41.135 40.37C38.9817 42.4667 36.375 44.195 33.315 45.555C30.3117 46.8583 26.855 47.6517 22.945 47.935L18.865 67.4H11.725ZM24.39 41.645C27.11 41.3617 29.49 40.6533 31.53 39.52C33.6267 38.33 35.4117 36.8567 36.885 35.1C38.3583 33.2867 39.5483 31.3033 40.455 29.15C41.3617 26.9967 42.0133 24.815 42.41 22.605C42.8633 20.3383 43.09 18.185 43.09 16.145C43.09 13.8217 42.835 12.0083 42.325 10.705C41.8717 9.345 41.22 8.38166 40.37 7.815C39.52 7.19166 38.585 6.88 37.565 6.88C35.5817 6.88 33.9667 7.67333 32.72 9.26C31.4733 10.79 30.51 13.1417 29.83 16.315L24.39 41.645Z" fill="#0054F8"/>
</svg>
