<svg width="61" height="98" viewBox="0 0 61 98" fill="none" xmlns="http://www.w3.org/2000/svg">
<path d="M50.0337 14.5532H51.5337V13.0532V3.5761H59.5V67.2834C59.5 76.3013 56.9005 83.1983 51.8587 88.1688C46.8262 93.1264 39.5767 95.7083 29.8833 95.7083C24.2655 95.7083 19.5064 94.8908 15.5703 93.3059L15.5702 93.3059C12.0804 91.9011 9.10619 90.1143 6.62895 87.9595L11.0613 83.015C13.3019 84.99 15.8258 86.5481 18.6256 87.6866L18.6261 87.6868C21.9464 89.0357 25.7565 89.6916 30.0201 89.6916C36.9259 89.6916 42.3802 87.9468 46.0958 84.1952C49.8088 80.4463 51.5337 74.9474 51.5337 67.9839V56.6989V55.1989H50.0337H49.4851H48.5955L48.1688 55.9795C45.9973 59.953 43.2219 62.8724 39.8599 64.8075C36.4944 66.7446 32.4565 67.7438 27.69 67.7438C23.5837 67.7438 19.9468 66.9759 16.7455 65.4691L16.7448 65.4688C13.5249 63.9552 10.8051 61.8123 8.57242 59.0273L8.57165 59.0264C6.33247 56.2379 4.58693 52.8232 3.35466 48.7503L3.3544 48.7495C2.12417 44.6921 1.5 40.0727 1.5 34.8757C1.5 29.6814 2.12415 25.0619 3.35447 21.0017L3.35459 21.0014C4.58684 16.931 6.33245 13.5159 8.57203 10.7246C10.8048 7.94183 13.525 5.79862 16.7454 4.28307C19.9473 2.77779 23.5844 2.0083 27.69 2.0083C32.4565 2.0083 36.4944 3.00745 39.8599 4.94456C43.2219 6.87966 45.9973 9.79914 48.1688 13.7726L48.5955 14.5532H49.4851H50.0337ZM15.9784 14.3065L15.9784 14.3065C12.1447 18.3417 10.2886 23.6386 10.2886 30.0406V39.7108C10.2886 46.1145 12.1445 51.4123 15.9787 55.4453C19.8477 59.5195 25.2417 61.4656 31.939 61.4656C34.5305 61.4656 36.9965 61.146 39.3312 60.4965C41.673 59.8464 43.7561 58.8819 45.5596 57.5925C47.3765 56.294 48.8291 54.6941 49.9003 52.7979L49.9006 52.7975C51.0057 50.84 51.5337 48.5976 51.5337 46.1144V23.6377C51.5337 21.1565 51.0058 18.9121 49.9006 16.9546L49.9003 16.9542C48.8291 15.058 47.3765 13.4581 45.5596 12.1596C43.7554 10.869 41.6722 9.90685 39.332 9.25577L39.3309 9.25545C36.9976 8.60831 34.5319 8.28592 31.939 8.28592C25.2408 8.28592 19.8471 10.235 15.9784 14.3065Z" fill="#0054F8" stroke="#0054F8" stroke-width="3"/>
</svg>
