<svg width="468" height="846" viewBox="0 0 468 846" fill="none" xmlns="http://www.w3.org/2000/svg">
<path d="M103.52 141.371L103.534 141.385L103.548 141.4C116.829 154.707 138.986 161.169 169.592 161.169C200.175 161.169 222.018 154.717 234.635 141.386C247.769 128.219 254.351 112.243 254.351 93.5428V69.1265C254.351 50.4264 247.769 34.4505 234.635 21.2839C222.018 7.95289 200.175 1.5 169.592 1.5C138.986 1.5 116.829 7.96243 103.548 21.2698L103.534 21.2842L103.52 21.2989C91.0628 34.4735 84.8333 50.445 84.8333 69.1265V93.5428C84.8333 112.224 91.0628 128.196 103.52 141.371ZM-68 661.749H-69.5V663.249V766V767.5H-68H395H396.5V766V663.249V661.749H395H236.075V241.056V239.556H234.575H-68H-69.5V241.056V343.807V345.307H-68H103.11V661.749H-68Z" fill="#0054F8" stroke="#0054F8" stroke-width="3"/>
<mask id="mask0_48_7" style="mask-type:alpha" maskUnits="userSpaceOnUse" x="193" y="571" width="275" height="275">
<circle cx="330.5" cy="708.5" r="136" stroke="white" stroke-width="3"/>
</mask>
<g mask="url(#mask0_48_7)">
<path d="M103.52 141.371L103.534 141.385L103.548 141.4C116.829 154.707 138.986 161.169 169.592 161.169C200.175 161.169 222.018 154.717 234.635 141.386C247.769 128.219 254.351 112.243 254.351 93.5428V69.1265C254.351 50.4264 247.769 34.4505 234.635 21.2839C222.018 7.95289 200.175 1.5 169.592 1.5C138.986 1.5 116.829 7.96243 103.548 21.2698L103.534 21.2842L103.52 21.2989C91.0628 34.4735 84.8333 50.445 84.8333 69.1265V93.5428C84.8333 112.224 91.0628 128.196 103.52 141.371ZM-68 661.749H-69.5V663.249V766V767.5H-68H395H396.5V766V663.249V661.749H395H236.075V241.056V239.556H234.575H-68H-69.5V241.056V343.807V345.307H-68H103.11V661.749H-68Z" fill="white" stroke="#0054F8" stroke-width="3"/>
</g>
</svg>
