<svg width="356" height="484" viewBox="0 0 356 484" fill="none" xmlns="http://www.w3.org/2000/svg">
<path d="M0 0H82.5562V279.168H86.426L134.799 226.422L216.71 144.086H312.811L180.592 274.665L327 476H228.32L121.899 321.622L82.5562 358.93V476H0V0Z" fill="#0054F8"/>
<path d="M82.1703 1.5H80.899L80.6906 2.75409L2.52029 473.126L2.23014 474.872H4H84.0769H85.3484L85.5567 473.618L114.155 301.361C116.679 286.217 120.666 273.23 126.093 262.376C131.556 251.448 137.853 241.582 144.983 232.774L144.99 232.765L144.996 232.756C154.246 220.982 163.201 212.895 171.841 208.369L171.852 208.363L171.863 208.357C180.964 203.391 190.674 200.912 201.015 200.912C215.62 200.912 226.417 204.46 233.668 211.309L233.682 211.322L233.698 211.336C241.396 218.225 245.273 227.336 245.273 238.822C245.273 258.574 235.644 275.315 216.041 289.081L216.035 289.085L216.028 289.09C196.754 302.919 166.027 315.787 123.711 327.638L122.108 328.087L122.721 329.635L160.213 424.333C160.213 424.335 160.214 424.336 160.214 424.337C167.465 443.106 176.252 457.515 186.631 467.463C197.14 477.537 211.315 482.5 228.978 482.5C244.91 482.5 259.577 478.621 272.947 470.856L272.954 470.852L272.96 470.848C286.663 462.711 300.959 450.963 315.85 435.644L315.856 435.638L315.862 435.631L352.088 397.493L353.094 396.433L352.061 395.4L312.658 355.99L311.625 354.957L310.565 355.962L249.445 413.942L242.111 412.894L210.667 337.045C252.314 324.782 282.374 308.734 300.628 288.779C319.519 268.168 328.985 244.077 328.985 216.574C328.985 193.32 321.219 174.064 305.652 158.927C290.052 143.758 268.667 136.255 241.689 136.255C213.835 136.255 190.587 144.408 172.058 160.786C153.883 176.85 139.278 197.075 128.231 221.431H127.159L163.727 3.24794L164.02 1.5H162.247H82.1703Z" fill="white" stroke="#0054F8" stroke-width="3"/>
</svg>
