<svg width="311" height="476" viewBox="0 0 311 476" fill="none" xmlns="http://www.w3.org/2000/svg">
<path d="M12 411.032H119.3V64.9675H12V0H203.046V411.032H311V476H12V411.032Z" fill="#0054F8"/>
<path d="M42.7565 389.037L42.749 389.089L42.7452 389.143C42.3234 395.012 42.1125 400.881 42.1125 406.75C42.1125 427.032 47.6457 443.461 58.8467 455.88C70.1369 468.397 87.8127 474.5 111.52 474.5C130.687 474.5 149.19 468.992 167.009 458.027C184.772 447.097 205.622 429.078 229.552 404.04C229.553 404.039 229.554 404.037 229.555 404.036L276.078 355.918L277.162 354.797L276 353.757L231.986 314.382L230.955 313.46L229.953 314.413L130.63 408.793L121.413 405.739L197.877 3.27998L198.216 1.5H196.404H14.6891H13.4239L13.2106 2.74713L2.52147 65.2471L2.22168 66.9999H4H103.423L47.1726 365.826C45.0758 375.415 43.6017 383.156 42.7565 389.037Z" fill="white" stroke="#0054F8" stroke-width="3"/>
</svg>
