<svg width="966" height="249" viewBox="0 0 966 249" fill="none" xmlns="http://www.w3.org/2000/svg">
<mask id="path-1-outside-1_104_1341" maskUnits="userSpaceOnUse" x="0" y="0" width="966" height="249" fill="black">
<rect fill="white" width="966" height="249"/>
<path d="M76.2478 183.247C58.935 183.247 43.9524 180.911 31.3007 176.238C18.871 171.342 9.77095 164.332 4 155.209L31.3007 128.172C36.1838 135.07 42.8429 140.299 51.2774 143.86C59.9338 147.198 69.3668 148.867 79.5769 148.867C89.5651 148.867 97.4449 147.309 103.216 144.194C109.209 140.856 112.205 136.071 112.205 129.841C112.205 125.168 110.54 121.83 107.211 119.827C103.882 117.602 99.6646 115.933 94.5595 114.82L69.9218 109.479C63.485 108.144 57.3811 106.364 51.6101 104.139C46.0611 101.913 41.1779 99.0206 36.9607 95.4602C32.7434 91.6772 29.4144 87.1153 26.9729 81.7746C24.7533 76.434 23.6433 69.9807 23.6433 62.4148C23.6433 52.8461 25.5299 44.39 29.3032 37.0466C33.2984 29.4807 38.7367 23.25 45.6174 18.3544C52.7201 13.2362 61.0436 9.45327 70.5879 7.00546C80.1321 4.33514 90.453 3 101.551 3C116.866 3 130.628 5.22518 142.836 9.67572C155.043 13.9037 164.033 19.8008 169.804 27.3667L143.168 54.7376C139.395 49.842 133.735 45.7253 126.189 42.3874C118.642 39.0495 109.986 37.3805 100.219 37.3805C91.563 37.3805 84.5712 38.9381 79.2441 42.0535C74.1391 45.1689 71.5866 49.842 71.5866 56.0728C71.5866 60.7459 73.0295 64.0838 75.915 66.0865C79.0224 67.8667 83.2393 69.3132 88.5664 70.4258L114.203 76.1002C128.63 79.2156 139.95 84.2225 148.163 91.1209C156.375 98.0192 160.481 108.478 160.481 122.497C160.481 132.066 158.483 140.633 154.488 148.199C150.493 155.543 144.833 161.885 137.508 167.225C130.184 172.343 121.305 176.349 110.873 179.242C100.663 181.912 89.1215 183.247 76.2478 183.247Z"/>
<path d="M225.608 7.00546H274.217L267.558 48.0618H269.223C272.552 41.3859 275.992 35.3777 279.544 30.037C283.317 24.4738 287.423 19.6895 291.862 15.684C296.523 11.6785 301.629 8.56314 307.178 6.33786C312.949 4.11259 319.496 3 326.821 3C335.921 3 343.579 4.55767 349.794 7.67306C356.231 10.7884 361.447 15.3503 365.442 21.3585C369.437 27.1442 372.323 34.1539 374.098 42.3874C376.096 50.6209 377.095 59.7445 377.095 69.7583C377.095 86.8929 375.208 102.47 371.435 116.489C367.661 130.286 362.335 142.191 355.454 152.205C348.573 161.996 340.25 169.673 330.483 175.236C320.939 180.577 310.174 183.247 298.188 183.247C284.649 183.247 274.328 180.132 267.225 173.901C260.344 167.448 255.683 158.547 253.241 147.198H250.911L234.264 246H185.655L225.608 7.00546ZM282.54 145.529C294.526 145.529 303.737 142.08 310.174 135.181C316.611 128.06 320.939 117.935 323.159 104.806L326.488 84.7788C326.932 82.776 327.265 80.5508 327.487 78.103C327.709 75.4327 327.82 72.6511 327.82 69.7583C327.598 61.5247 325.822 54.6263 322.493 49.0631C319.385 43.4999 313.615 40.7183 305.18 40.7183C299.187 40.7183 293.86 42.1648 289.199 45.0576C284.538 47.9505 280.209 51.956 276.214 57.0741C273.551 60.1895 270.555 64.6401 267.225 70.4258C263.896 75.989 261.676 82.3311 260.566 89.4519L255.905 117.157C254.351 126.28 255.683 133.29 259.9 138.185C264.34 143.081 271.886 145.529 282.54 145.529Z"/>
<path d="M505.146 179.242L511.805 138.185H510.14C506.811 144.861 503.26 150.981 499.486 156.544C495.935 161.885 491.829 166.558 487.167 170.563C482.728 174.569 477.623 177.684 471.852 179.909C466.303 182.135 459.867 183.247 452.542 183.247C443.442 183.247 435.673 181.69 429.236 178.574C423.021 175.459 417.916 171.008 413.921 165.223C409.926 159.214 406.93 152.093 404.932 143.86C403.156 135.626 402.268 126.503 402.268 116.489C402.268 99.3543 404.155 83.8887 407.928 70.092C411.702 56.0728 417.028 44.1675 423.909 34.3763C430.79 24.3626 439.003 16.6854 448.547 11.3448C458.313 5.7816 469.189 3 481.175 3C494.714 3 504.924 6.22656 511.805 12.6798C518.908 18.9106 523.68 27.7005 526.122 39.0494H528.452L533.779 7.00546H582.388L553.755 179.242H505.146ZM474.183 145.529C480.176 145.529 485.503 144.082 490.164 141.19C494.825 138.297 499.154 134.291 503.149 129.173C505.812 126.058 508.808 121.718 512.138 116.155C515.467 110.37 517.687 103.916 518.797 96.7953L523.458 69.0907C525.012 59.967 523.569 52.9574 519.13 48.0618C514.913 43.1662 507.477 40.7183 496.823 40.7183C484.837 40.7183 475.626 44.2788 469.189 51.3996C462.752 58.298 458.424 68.3118 456.204 81.4409L452.875 101.468C452.431 103.471 452.098 105.808 451.876 108.478C451.654 110.926 451.543 113.596 451.543 116.489C451.765 124.722 453.43 131.621 456.537 137.184C459.866 142.747 465.748 145.529 474.183 145.529Z"/>
<path d="M680.142 183.247C656.615 183.247 638.747 176.905 626.539 164.221C614.331 151.537 608.228 133.624 608.228 110.481C608.228 95.7939 610.336 81.9972 614.553 69.0907C618.77 55.9615 624.874 44.5013 632.865 34.7101C640.855 24.9189 650.733 17.2417 662.497 11.6785C674.482 5.89281 688.133 3 703.448 3C723.202 3 738.295 7.00539 748.728 15.0164C759.16 23.0274 766.263 33.5974 770.036 46.7266L730.416 65.4189C727.975 58.298 724.645 52.6235 720.428 48.3955C716.211 44.1675 709.219 42.0535 699.453 42.0535C689.909 42.0535 681.807 45.1689 675.148 51.3996C668.712 57.6304 664.494 66.754 662.497 78.7705L659.167 98.7981C658.724 100.801 658.391 103.249 658.169 106.142C657.947 109.034 657.835 111.816 657.835 114.486C657.835 123.387 660.055 130.619 664.494 136.183C669.155 141.523 677.035 144.194 688.133 144.194C691.684 144.194 695.014 143.86 698.121 143.192C701.229 142.302 704.558 140.522 708.11 137.852C711.883 135.181 715.989 131.51 720.428 126.837C725.089 121.941 730.416 115.488 736.409 107.477L766.707 127.17C760.936 136.294 755.165 144.305 749.394 151.203C743.623 158.102 737.297 163.999 730.416 168.894C723.536 173.567 715.989 177.128 707.776 179.575C699.564 182.023 690.352 183.247 680.142 183.247Z"/>
<path d="M873.439 183.247C847.914 183.247 829.047 176.794 816.84 163.887C804.632 150.758 798.528 132.733 798.528 109.813C798.528 93.7911 800.969 79.2157 805.853 66.0865C810.736 52.9574 817.506 41.7197 826.162 32.3735C835.04 23.0274 845.695 15.7953 858.124 10.6772C870.554 5.55905 884.427 3 899.742 3C908.398 3 916.5 4.00126 924.046 6.004C931.815 8.00675 938.585 11.0109 944.356 15.0164C950.126 18.7993 954.677 23.695 958.006 29.7033C961.336 35.489 963 42.3873 963 50.3983C963 57.2966 961.557 64.195 958.672 71.0933C955.786 77.9917 950.126 84.3337 941.692 90.1194C933.479 95.6826 921.716 100.467 906.4 104.472C891.307 108.255 871.553 110.592 847.137 111.482C846.915 112.817 846.804 113.93 846.804 114.82C846.804 115.488 846.804 116.266 846.804 117.157C846.804 126.503 849.357 133.624 854.462 138.519C859.567 143.415 868.001 145.863 879.765 145.863C884.426 145.863 888.644 145.418 892.417 144.527C896.412 143.637 900.186 142.08 903.737 139.854C907.51 137.407 911.173 134.402 914.724 130.842C918.497 127.059 922.603 122.275 927.043 116.489L957.34 136.183C952.901 142.636 948.018 148.755 942.691 154.541C937.586 160.104 931.704 165.111 925.045 169.562C918.386 173.79 910.839 177.128 902.405 179.575C893.97 182.023 884.315 183.247 873.439 183.247ZM894.747 37.3805C884.093 37.3805 874.993 40.6071 867.447 47.0604C859.9 53.2912 854.573 63.8612 851.465 78.7705L850.466 83.4437C865.782 82.5536 877.767 81.1071 886.424 79.1044C895.302 77.1016 901.85 74.7651 906.067 72.0948C910.506 69.4245 913.281 66.5315 914.391 63.4161C915.5 60.3007 916.056 57.4079 916.056 54.7376C916.056 43.1662 908.953 37.3805 894.747 37.3805Z"/>
</mask>
<path d="M76.2478 183.247C58.935 183.247 43.9524 180.911 31.3007 176.238C18.871 171.342 9.77095 164.332 4 155.209L31.3007 128.172C36.1838 135.07 42.8429 140.299 51.2774 143.86C59.9338 147.198 69.3668 148.867 79.5769 148.867C89.5651 148.867 97.4449 147.309 103.216 144.194C109.209 140.856 112.205 136.071 112.205 129.841C112.205 125.168 110.54 121.83 107.211 119.827C103.882 117.602 99.6646 115.933 94.5595 114.82L69.9218 109.479C63.485 108.144 57.3811 106.364 51.6101 104.139C46.0611 101.913 41.1779 99.0206 36.9607 95.4602C32.7434 91.6772 29.4144 87.1153 26.9729 81.7746C24.7533 76.434 23.6433 69.9807 23.6433 62.4148C23.6433 52.8461 25.5299 44.39 29.3032 37.0466C33.2984 29.4807 38.7367 23.25 45.6174 18.3544C52.7201 13.2362 61.0436 9.45327 70.5879 7.00546C80.1321 4.33514 90.453 3 101.551 3C116.866 3 130.628 5.22518 142.836 9.67572C155.043 13.9037 164.033 19.8008 169.804 27.3667L143.168 54.7376C139.395 49.842 133.735 45.7253 126.189 42.3874C118.642 39.0495 109.986 37.3805 100.219 37.3805C91.563 37.3805 84.5712 38.9381 79.2441 42.0535C74.1391 45.1689 71.5866 49.842 71.5866 56.0728C71.5866 60.7459 73.0295 64.0838 75.915 66.0865C79.0224 67.8667 83.2393 69.3132 88.5664 70.4258L114.203 76.1002C128.63 79.2156 139.95 84.2225 148.163 91.1209C156.375 98.0192 160.481 108.478 160.481 122.497C160.481 132.066 158.483 140.633 154.488 148.199C150.493 155.543 144.833 161.885 137.508 167.225C130.184 172.343 121.305 176.349 110.873 179.242C100.663 181.912 89.1215 183.247 76.2478 183.247Z" fill="#0054F8"/>
<path d="M225.608 7.00546H274.217L267.558 48.0618H269.223C272.552 41.3859 275.992 35.3777 279.544 30.037C283.317 24.4738 287.423 19.6895 291.862 15.684C296.523 11.6785 301.629 8.56314 307.178 6.33786C312.949 4.11259 319.496 3 326.821 3C335.921 3 343.579 4.55767 349.794 7.67306C356.231 10.7884 361.447 15.3503 365.442 21.3585C369.437 27.1442 372.323 34.1539 374.098 42.3874C376.096 50.6209 377.095 59.7445 377.095 69.7583C377.095 86.8929 375.208 102.47 371.435 116.489C367.661 130.286 362.335 142.191 355.454 152.205C348.573 161.996 340.25 169.673 330.483 175.236C320.939 180.577 310.174 183.247 298.188 183.247C284.649 183.247 274.328 180.132 267.225 173.901C260.344 167.448 255.683 158.547 253.241 147.198H250.911L234.264 246H185.655L225.608 7.00546ZM282.54 145.529C294.526 145.529 303.737 142.08 310.174 135.181C316.611 128.06 320.939 117.935 323.159 104.806L326.488 84.7788C326.932 82.776 327.265 80.5508 327.487 78.103C327.709 75.4327 327.82 72.6511 327.82 69.7583C327.598 61.5247 325.822 54.6263 322.493 49.0631C319.385 43.4999 313.615 40.7183 305.18 40.7183C299.187 40.7183 293.86 42.1648 289.199 45.0576C284.538 47.9505 280.209 51.956 276.214 57.0741C273.551 60.1895 270.555 64.6401 267.225 70.4258C263.896 75.989 261.676 82.3311 260.566 89.4519L255.905 117.157C254.351 126.28 255.683 133.29 259.9 138.185C264.34 143.081 271.886 145.529 282.54 145.529Z" fill="#0054F8"/>
<path d="M505.146 179.242L511.805 138.185H510.14C506.811 144.861 503.26 150.981 499.486 156.544C495.935 161.885 491.829 166.558 487.167 170.563C482.728 174.569 477.623 177.684 471.852 179.909C466.303 182.135 459.867 183.247 452.542 183.247C443.442 183.247 435.673 181.69 429.236 178.574C423.021 175.459 417.916 171.008 413.921 165.223C409.926 159.214 406.93 152.093 404.932 143.86C403.156 135.626 402.268 126.503 402.268 116.489C402.268 99.3543 404.155 83.8887 407.928 70.092C411.702 56.0728 417.028 44.1675 423.909 34.3763C430.79 24.3626 439.003 16.6854 448.547 11.3448C458.313 5.7816 469.189 3 481.175 3C494.714 3 504.924 6.22656 511.805 12.6798C518.908 18.9106 523.68 27.7005 526.122 39.0494H528.452L533.779 7.00546H582.388L553.755 179.242H505.146ZM474.183 145.529C480.176 145.529 485.503 144.082 490.164 141.19C494.825 138.297 499.154 134.291 503.149 129.173C505.812 126.058 508.808 121.718 512.138 116.155C515.467 110.37 517.687 103.916 518.797 96.7953L523.458 69.0907C525.012 59.967 523.569 52.9574 519.13 48.0618C514.913 43.1662 507.477 40.7183 496.823 40.7183C484.837 40.7183 475.626 44.2788 469.189 51.3996C462.752 58.298 458.424 68.3118 456.204 81.4409L452.875 101.468C452.431 103.471 452.098 105.808 451.876 108.478C451.654 110.926 451.543 113.596 451.543 116.489C451.765 124.722 453.43 131.621 456.537 137.184C459.866 142.747 465.748 145.529 474.183 145.529Z" fill="#0054F8"/>
<path d="M680.142 183.247C656.615 183.247 638.747 176.905 626.539 164.221C614.331 151.537 608.228 133.624 608.228 110.481C608.228 95.7939 610.336 81.9972 614.553 69.0907C618.77 55.9615 624.874 44.5013 632.865 34.7101C640.855 24.9189 650.733 17.2417 662.497 11.6785C674.482 5.89281 688.133 3 703.448 3C723.202 3 738.295 7.00539 748.728 15.0164C759.16 23.0274 766.263 33.5974 770.036 46.7266L730.416 65.4189C727.975 58.298 724.645 52.6235 720.428 48.3955C716.211 44.1675 709.219 42.0535 699.453 42.0535C689.909 42.0535 681.807 45.1689 675.148 51.3996C668.712 57.6304 664.494 66.754 662.497 78.7705L659.167 98.7981C658.724 100.801 658.391 103.249 658.169 106.142C657.947 109.034 657.835 111.816 657.835 114.486C657.835 123.387 660.055 130.619 664.494 136.183C669.155 141.523 677.035 144.194 688.133 144.194C691.684 144.194 695.014 143.86 698.121 143.192C701.229 142.302 704.558 140.522 708.11 137.852C711.883 135.181 715.989 131.51 720.428 126.837C725.089 121.941 730.416 115.488 736.409 107.477L766.707 127.17C760.936 136.294 755.165 144.305 749.394 151.203C743.623 158.102 737.297 163.999 730.416 168.894C723.536 173.567 715.989 177.128 707.776 179.575C699.564 182.023 690.352 183.247 680.142 183.247Z" fill="#0054F8"/>
<path d="M873.439 183.247C847.914 183.247 829.047 176.794 816.84 163.887C804.632 150.758 798.528 132.733 798.528 109.813C798.528 93.7911 800.969 79.2157 805.853 66.0865C810.736 52.9574 817.506 41.7197 826.162 32.3735C835.04 23.0274 845.695 15.7953 858.124 10.6772C870.554 5.55905 884.427 3 899.742 3C908.398 3 916.5 4.00126 924.046 6.004C931.815 8.00675 938.585 11.0109 944.356 15.0164C950.126 18.7993 954.677 23.695 958.006 29.7033C961.336 35.489 963 42.3873 963 50.3983C963 57.2966 961.557 64.195 958.672 71.0933C955.786 77.9917 950.126 84.3337 941.692 90.1194C933.479 95.6826 921.716 100.467 906.4 104.472C891.307 108.255 871.553 110.592 847.137 111.482C846.915 112.817 846.804 113.93 846.804 114.82C846.804 115.488 846.804 116.266 846.804 117.157C846.804 126.503 849.357 133.624 854.462 138.519C859.567 143.415 868.001 145.863 879.765 145.863C884.426 145.863 888.644 145.418 892.417 144.527C896.412 143.637 900.186 142.08 903.737 139.854C907.51 137.407 911.173 134.402 914.724 130.842C918.497 127.059 922.603 122.275 927.043 116.489L957.34 136.183C952.901 142.636 948.018 148.755 942.691 154.541C937.586 160.104 931.704 165.111 925.045 169.562C918.386 173.79 910.839 177.128 902.405 179.575C893.97 182.023 884.315 183.247 873.439 183.247ZM894.747 37.3805C884.093 37.3805 874.993 40.6071 867.447 47.0604C859.9 53.2912 854.573 63.8612 851.465 78.7705L850.466 83.4437C865.782 82.5536 877.767 81.1071 886.424 79.1044C895.302 77.1016 901.85 74.7651 906.067 72.0948C910.506 69.4245 913.281 66.5315 914.391 63.4161C915.5 60.3007 916.056 57.4079 916.056 54.7376C916.056 43.1662 908.953 37.3805 894.747 37.3805Z" fill="#0054F8"/>
<path d="M76.2478 183.247C58.935 183.247 43.9524 180.911 31.3007 176.238C18.871 171.342 9.77095 164.332 4 155.209L31.3007 128.172C36.1838 135.07 42.8429 140.299 51.2774 143.86C59.9338 147.198 69.3668 148.867 79.5769 148.867C89.5651 148.867 97.4449 147.309 103.216 144.194C109.209 140.856 112.205 136.071 112.205 129.841C112.205 125.168 110.54 121.83 107.211 119.827C103.882 117.602 99.6646 115.933 94.5595 114.82L69.9218 109.479C63.485 108.144 57.3811 106.364 51.6101 104.139C46.0611 101.913 41.1779 99.0206 36.9607 95.4602C32.7434 91.6772 29.4144 87.1153 26.9729 81.7746C24.7533 76.434 23.6433 69.9807 23.6433 62.4148C23.6433 52.8461 25.5299 44.39 29.3032 37.0466C33.2984 29.4807 38.7367 23.25 45.6174 18.3544C52.7201 13.2362 61.0436 9.45327 70.5879 7.00546C80.1321 4.33514 90.453 3 101.551 3C116.866 3 130.628 5.22518 142.836 9.67572C155.043 13.9037 164.033 19.8008 169.804 27.3667L143.168 54.7376C139.395 49.842 133.735 45.7253 126.189 42.3874C118.642 39.0495 109.986 37.3805 100.219 37.3805C91.563 37.3805 84.5712 38.9381 79.2441 42.0535C74.1391 45.1689 71.5866 49.842 71.5866 56.0728C71.5866 60.7459 73.0295 64.0838 75.915 66.0865C79.0224 67.8667 83.2393 69.3132 88.5664 70.4258L114.203 76.1002C128.63 79.2156 139.95 84.2225 148.163 91.1209C156.375 98.0192 160.481 108.478 160.481 122.497C160.481 132.066 158.483 140.633 154.488 148.199C150.493 155.543 144.833 161.885 137.508 167.225C130.184 172.343 121.305 176.349 110.873 179.242C100.663 181.912 89.1215 183.247 76.2478 183.247Z" stroke="white" stroke-width="6" mask="url(#path-1-outside-1_104_1341)"/>
<path d="M225.608 7.00546H274.217L267.558 48.0618H269.223C272.552 41.3859 275.992 35.3777 279.544 30.037C283.317 24.4738 287.423 19.6895 291.862 15.684C296.523 11.6785 301.629 8.56314 307.178 6.33786C312.949 4.11259 319.496 3 326.821 3C335.921 3 343.579 4.55767 349.794 7.67306C356.231 10.7884 361.447 15.3503 365.442 21.3585C369.437 27.1442 372.323 34.1539 374.098 42.3874C376.096 50.6209 377.095 59.7445 377.095 69.7583C377.095 86.8929 375.208 102.47 371.435 116.489C367.661 130.286 362.335 142.191 355.454 152.205C348.573 161.996 340.25 169.673 330.483 175.236C320.939 180.577 310.174 183.247 298.188 183.247C284.649 183.247 274.328 180.132 267.225 173.901C260.344 167.448 255.683 158.547 253.241 147.198H250.911L234.264 246H185.655L225.608 7.00546ZM282.54 145.529C294.526 145.529 303.737 142.08 310.174 135.181C316.611 128.06 320.939 117.935 323.159 104.806L326.488 84.7788C326.932 82.776 327.265 80.5508 327.487 78.103C327.709 75.4327 327.82 72.6511 327.82 69.7583C327.598 61.5247 325.822 54.6263 322.493 49.0631C319.385 43.4999 313.615 40.7183 305.18 40.7183C299.187 40.7183 293.86 42.1648 289.199 45.0576C284.538 47.9505 280.209 51.956 276.214 57.0741C273.551 60.1895 270.555 64.6401 267.225 70.4258C263.896 75.989 261.676 82.3311 260.566 89.4519L255.905 117.157C254.351 126.28 255.683 133.29 259.9 138.185C264.34 143.081 271.886 145.529 282.54 145.529Z" stroke="white" stroke-width="6" mask="url(#path-1-outside-1_104_1341)"/>
<path d="M505.146 179.242L511.805 138.185H510.14C506.811 144.861 503.26 150.981 499.486 156.544C495.935 161.885 491.829 166.558 487.167 170.563C482.728 174.569 477.623 177.684 471.852 179.909C466.303 182.135 459.867 183.247 452.542 183.247C443.442 183.247 435.673 181.69 429.236 178.574C423.021 175.459 417.916 171.008 413.921 165.223C409.926 159.214 406.93 152.093 404.932 143.86C403.156 135.626 402.268 126.503 402.268 116.489C402.268 99.3543 404.155 83.8887 407.928 70.092C411.702 56.0728 417.028 44.1675 423.909 34.3763C430.79 24.3626 439.003 16.6854 448.547 11.3448C458.313 5.7816 469.189 3 481.175 3C494.714 3 504.924 6.22656 511.805 12.6798C518.908 18.9106 523.68 27.7005 526.122 39.0494H528.452L533.779 7.00546H582.388L553.755 179.242H505.146ZM474.183 145.529C480.176 145.529 485.503 144.082 490.164 141.19C494.825 138.297 499.154 134.291 503.149 129.173C505.812 126.058 508.808 121.718 512.138 116.155C515.467 110.37 517.687 103.916 518.797 96.7953L523.458 69.0907C525.012 59.967 523.569 52.9574 519.13 48.0618C514.913 43.1662 507.477 40.7183 496.823 40.7183C484.837 40.7183 475.626 44.2788 469.189 51.3996C462.752 58.298 458.424 68.3118 456.204 81.4409L452.875 101.468C452.431 103.471 452.098 105.808 451.876 108.478C451.654 110.926 451.543 113.596 451.543 116.489C451.765 124.722 453.43 131.621 456.537 137.184C459.866 142.747 465.748 145.529 474.183 145.529Z" stroke="white" stroke-width="6" mask="url(#path-1-outside-1_104_1341)"/>
<path d="M680.142 183.247C656.615 183.247 638.747 176.905 626.539 164.221C614.331 151.537 608.228 133.624 608.228 110.481C608.228 95.7939 610.336 81.9972 614.553 69.0907C618.77 55.9615 624.874 44.5013 632.865 34.7101C640.855 24.9189 650.733 17.2417 662.497 11.6785C674.482 5.89281 688.133 3 703.448 3C723.202 3 738.295 7.00539 748.728 15.0164C759.16 23.0274 766.263 33.5974 770.036 46.7266L730.416 65.4189C727.975 58.298 724.645 52.6235 720.428 48.3955C716.211 44.1675 709.219 42.0535 699.453 42.0535C689.909 42.0535 681.807 45.1689 675.148 51.3996C668.712 57.6304 664.494 66.754 662.497 78.7705L659.167 98.7981C658.724 100.801 658.391 103.249 658.169 106.142C657.947 109.034 657.835 111.816 657.835 114.486C657.835 123.387 660.055 130.619 664.494 136.183C669.155 141.523 677.035 144.194 688.133 144.194C691.684 144.194 695.014 143.86 698.121 143.192C701.229 142.302 704.558 140.522 708.11 137.852C711.883 135.181 715.989 131.51 720.428 126.837C725.089 121.941 730.416 115.488 736.409 107.477L766.707 127.17C760.936 136.294 755.165 144.305 749.394 151.203C743.623 158.102 737.297 163.999 730.416 168.894C723.536 173.567 715.989 177.128 707.776 179.575C699.564 182.023 690.352 183.247 680.142 183.247Z" stroke="white" stroke-width="6" mask="url(#path-1-outside-1_104_1341)"/>
<path d="M873.439 183.247C847.914 183.247 829.047 176.794 816.84 163.887C804.632 150.758 798.528 132.733 798.528 109.813C798.528 93.7911 800.969 79.2157 805.853 66.0865C810.736 52.9574 817.506 41.7197 826.162 32.3735C835.04 23.0274 845.695 15.7953 858.124 10.6772C870.554 5.55905 884.427 3 899.742 3C908.398 3 916.5 4.00126 924.046 6.004C931.815 8.00675 938.585 11.0109 944.356 15.0164C950.126 18.7993 954.677 23.695 958.006 29.7033C961.336 35.489 963 42.3873 963 50.3983C963 57.2966 961.557 64.195 958.672 71.0933C955.786 77.9917 950.126 84.3337 941.692 90.1194C933.479 95.6826 921.716 100.467 906.4 104.472C891.307 108.255 871.553 110.592 847.137 111.482C846.915 112.817 846.804 113.93 846.804 114.82C846.804 115.488 846.804 116.266 846.804 117.157C846.804 126.503 849.357 133.624 854.462 138.519C859.567 143.415 868.001 145.863 879.765 145.863C884.426 145.863 888.644 145.418 892.417 144.527C896.412 143.637 900.186 142.08 903.737 139.854C907.51 137.407 911.173 134.402 914.724 130.842C918.497 127.059 922.603 122.275 927.043 116.489L957.34 136.183C952.901 142.636 948.018 148.755 942.691 154.541C937.586 160.104 931.704 165.111 925.045 169.562C918.386 173.79 910.839 177.128 902.405 179.575C893.97 182.023 884.315 183.247 873.439 183.247ZM894.747 37.3805C884.093 37.3805 874.993 40.6071 867.447 47.0604C859.9 53.2912 854.573 63.8612 851.465 78.7705L850.466 83.4437C865.782 82.5536 877.767 81.1071 886.424 79.1044C895.302 77.1016 901.85 74.7651 906.067 72.0948C910.506 69.4245 913.281 66.5315 914.391 63.4161C915.5 60.3007 916.056 57.4079 916.056 54.7376C916.056 43.1662 908.953 37.3805 894.747 37.3805Z" stroke="white" stroke-width="6" mask="url(#path-1-outside-1_104_1341)"/>
</svg>
