<svg width="63" height="96" viewBox="0 0 63 96" fill="none" xmlns="http://www.w3.org/2000/svg">
<path d="M48.1553 6.86233L48.1615 6.8674L48.1678 6.87241C52.5546 10.3585 55.8762 15.5247 58.0614 22.4976L58.0639 22.5054L58.0664 22.5132C60.3422 29.5063 61.5 38.0115 61.5 48.0619C61.5 57.953 60.4277 66.3879 58.3163 73.3943L58.313 73.4058C56.3001 80.284 53.063 85.4954 48.6626 89.1477C44.4098 92.6668 38.6751 94.5 31.3051 94.5C24.4903 94.5 18.9576 92.685 14.5964 89.147C10.2751 85.4884 6.99247 80.2657 4.80785 73.3759C2.61445 66.3757 1.5 57.9474 1.5 48.0619C1.5 38.0827 2.53018 29.6011 4.55845 22.5897C6.5737 15.6233 9.76868 10.4207 14.0706 6.85803C18.4205 3.3268 24.1214 1.5 31.3051 1.5C38.2175 1.5 43.7955 3.32075 48.1553 6.86233ZM31.3051 88.4574C36.0928 88.4574 40.1414 87.1342 43.3207 84.3818C46.5709 81.6431 48.8973 77.4524 50.4161 71.9999C51.9352 66.5463 52.7643 59.5122 52.9389 50.9415L52.97 49.411H51.4392H11.5608H10.0297L10.0611 50.9418C10.2355 59.4223 10.9769 66.3977 12.3124 71.8315L12.3152 71.8428L12.3181 71.8539C13.748 77.3082 15.9819 81.5356 19.1332 84.3586L19.1422 84.3667L19.1515 84.3747C22.3372 87.1364 26.435 88.4574 31.3051 88.4574ZM10.0624 42.4187L9.99009 43.9877H11.5608H51.3093H52.862L52.8084 42.4359C52.5461 34.8483 51.6704 28.5157 50.1481 23.476C48.6249 18.3514 46.3388 14.3843 43.1896 11.741C40.0159 8.9939 36.014 7.66646 31.3051 7.66646C26.5921 7.66646 22.5872 8.99629 19.4121 11.7484C16.3457 14.3989 14.149 18.3737 12.7151 23.4999C11.2872 28.5225 10.4118 34.8399 10.0624 42.4187Z" fill="#0054F8" stroke="#0054F8" stroke-width="3"/>
</svg>
