<svg width="42" height="67" viewBox="0 0 42 67" fill="none" xmlns="http://www.w3.org/2000/svg">
<path d="M14.935 66.85C11.9317 66.85 9.38167 66.1983 7.285 64.895C5.245 63.5917 3.68667 61.665 2.61 59.115C1.53333 56.5083 0.995 53.25 0.995 49.34C0.995 47.6967 1.05167 45.9967 1.165 44.24C1.335 42.4267 1.53333 40.6133 1.76 38.8C2.04333 36.93 2.38333 35.1167 2.78 33.36C3.91333 28.26 5.21667 23.6983 6.69 19.675C8.22 15.6517 9.97667 12.2517 11.96 9.475C14 6.69833 16.3233 4.60166 18.93 3.185C21.5367 1.71166 24.54 0.974996 27.94 0.974996C30.7167 0.974996 33.125 1.57 35.165 2.76C37.205 3.95 38.7917 5.905 39.925 8.625C41.115 11.2883 41.71 14.83 41.71 19.25C41.71 20.61 41.625 22.1683 41.455 23.925C41.3417 25.625 41.1433 27.4383 40.86 29.365C40.5767 31.2917 40.2083 33.3317 39.755 35.485C38.735 40.245 37.46 44.5517 35.93 48.405C34.4567 52.2583 32.7 55.5733 30.66 58.35C28.6767 61.07 26.3817 63.1667 23.775 64.64C21.1683 66.1133 18.2217 66.85 14.935 66.85ZM15.785 60.645C17.7117 60.645 19.4683 60.135 21.055 59.115C22.6417 58.0383 24.0583 56.48 25.305 54.44C26.6083 52.4 27.7983 49.85 28.875 46.79C29.9517 43.73 30.9717 40.1883 31.935 36.165H9.58C9.12667 38.4883 8.78667 40.6983 8.56 42.795C8.39 44.835 8.305 46.79 8.305 48.66C8.305 52.7967 8.9 55.8283 10.09 57.755C11.3367 59.6817 13.235 60.645 15.785 60.645ZM10.94 29.79H33.125C33.5217 27.8633 33.805 25.9367 33.975 24.01C34.2017 22.0267 34.315 20.2417 34.315 18.655C34.315 14.8583 33.72 11.9967 32.53 10.07C31.34 8.14333 29.5267 7.18 27.09 7.18C25.1633 7.18 23.4067 7.69 21.82 8.71C20.2333 9.73 18.7883 11.2033 17.485 13.13C16.1817 15.0567 14.9917 17.4367 13.915 20.27C12.8383 23.0467 11.8467 26.22 10.94 29.79Z" fill="#0054F8"/>
</svg>
