<svg width="174" height="187" viewBox="0 0 174 187" fill="none" xmlns="http://www.w3.org/2000/svg">
<path d="M76.2478 183.247C58.935 183.247 43.9524 180.911 31.3007 176.238C18.871 171.342 9.77095 164.332 4 155.209L31.3007 128.172C36.1838 135.07 42.8429 140.299 51.2774 143.86C59.9338 147.198 69.3668 148.867 79.5769 148.867C89.5651 148.867 97.4449 147.309 103.216 144.194C109.209 140.856 112.205 136.071 112.205 129.841C112.205 125.168 110.54 121.83 107.211 119.827C103.882 117.602 99.6646 115.933 94.5595 114.82L69.9218 109.479C63.485 108.144 57.3811 106.364 51.6101 104.139C46.0611 101.913 41.1779 99.0206 36.9607 95.4602C32.7434 91.6772 29.4144 87.1153 26.9729 81.7746C24.7533 76.434 23.6433 69.9807 23.6433 62.4148C23.6433 52.8461 25.5299 44.39 29.3032 37.0466C33.2984 29.4807 38.7367 23.25 45.6174 18.3544C52.7201 13.2362 61.0436 9.45327 70.5879 7.00546C80.1321 4.33514 90.453 3 101.551 3C116.866 3 130.628 5.22518 142.836 9.67572C155.043 13.9037 164.033 19.8008 169.804 27.3667L143.168 54.7376C139.395 49.842 133.735 45.7253 126.189 42.3874C118.642 39.0495 109.986 37.3805 100.219 37.3805C91.5631 37.3805 84.5712 38.9381 79.2441 42.0535C74.1391 45.1689 71.5866 49.842 71.5866 56.0728C71.5866 60.7459 73.0295 64.0838 75.915 66.0865C79.0224 67.8667 83.2393 69.3132 88.5664 70.4258L114.203 76.1002C128.63 79.2156 139.95 84.2225 148.163 91.1209C156.375 98.0192 160.481 108.478 160.481 122.497C160.481 132.066 158.483 140.633 154.488 148.199C150.493 155.543 144.833 161.885 137.508 167.225C130.184 172.343 121.305 176.349 110.873 179.242C100.663 181.912 89.1215 183.247 76.2478 183.247Z" fill="white"/>
<path fill-rule="evenodd" clip-rule="evenodd" d="M30.2311 179.041L30.2013 179.029C17.3218 173.956 7.64974 166.591 1.46453 156.812L0.175293 154.774L31.7044 123.55L33.7493 126.438C38.2743 132.831 44.4574 137.716 52.4005 141.078C60.6677 144.259 69.7161 145.867 79.5768 145.867C89.2943 145.867 96.6108 144.344 101.773 141.563C106.92 138.691 109.205 134.85 109.205 129.841C109.205 125.971 107.897 123.74 105.664 122.398L105.603 122.361L105.544 122.321C102.606 120.358 98.7652 118.807 93.9215 117.751C93.9212 117.751 93.9218 117.751 93.9215 117.751L69.2989 112.414C62.7168 111.048 56.4594 109.224 50.5307 106.938L50.512 106.931L50.4934 106.923C44.6717 104.589 39.507 101.536 35.0253 97.7525L34.9909 97.7234L34.9574 97.6934C30.4219 93.6249 26.8509 88.7234 24.2444 83.0219L24.2226 82.9743L24.2025 82.926C21.7924 77.1268 20.6432 70.2601 20.6432 62.4148C20.6432 52.4453 22.6112 43.5059 26.6347 35.6755L26.6424 35.6606L26.6502 35.6457C30.86 27.6737 36.6065 21.0854 43.8708 15.9152C51.3034 10.5608 59.9655 6.63632 69.8108 4.10764C79.6387 1.36136 90.2239 0 101.551 0C117.146 0 131.256 2.26453 143.84 6.84888C156.4 11.2023 165.957 17.377 172.189 25.5473L173.758 27.6046L142.905 59.31L140.792 56.569C137.41 52.1802 132.212 48.3317 124.975 45.131C117.874 41.9903 109.643 40.3805 100.219 40.3805C91.9059 40.3805 85.4996 41.8783 80.7831 44.6289C76.6312 47.1717 74.5866 50.8444 74.5866 56.0728C74.5866 60.0461 75.7584 62.2742 77.5259 63.5515C80.2504 65.0877 84.0932 66.4268 89.1796 67.4892L89.1972 67.4929L114.836 73.1678C114.839 73.1684 114.841 73.169 114.844 73.1696C129.575 76.3514 141.393 81.5169 150.092 88.8237C159.179 96.4562 163.481 107.883 163.481 122.497C163.481 132.496 161.39 141.553 157.141 149.6L157.132 149.616L157.123 149.633C152.898 157.399 146.929 164.069 139.276 169.649L139.251 169.667L139.227 169.684C131.571 175.034 122.368 179.168 111.675 182.133L111.654 182.139L111.632 182.144C101.127 184.892 89.3236 186.247 76.2477 186.247C58.676 186.247 43.325 183.877 30.2612 179.052L30.2311 179.041ZM114.203 76.1002L88.5663 70.4258C83.2393 69.3132 79.0223 67.8667 75.9149 66.0865C73.0294 64.0838 71.5866 60.7459 71.5866 56.0728C71.5866 49.842 74.139 45.1689 79.2441 42.0535C84.5711 38.9381 91.563 37.3805 100.219 37.3805C109.986 37.3805 118.642 39.0495 126.189 42.3874C132.527 45.1911 137.535 48.5442 141.212 52.4468C141.912 53.1905 142.564 53.9541 143.168 54.7376L169.804 27.3667C164.033 19.8008 155.043 13.9037 142.836 9.67572C130.628 5.22518 116.866 3 101.551 3C90.4529 3 80.132 4.33514 70.5878 7.00546C61.0435 9.45327 52.72 13.2362 45.6173 18.3544C38.7366 23.25 33.2984 29.4807 29.3031 37.0466C25.5298 44.39 23.6432 52.8461 23.6432 62.4148C23.6432 69.9807 24.7532 76.434 26.9728 81.7746C29.4143 87.1153 32.7434 91.6772 36.9606 95.4602C41.1778 99.0206 46.061 101.913 51.61 104.139C57.381 106.364 63.4849 108.144 69.9217 109.479L94.5594 114.82C99.6645 115.933 103.881 117.602 107.211 119.827C110.54 121.83 112.205 125.168 112.205 129.841C112.205 136.071 109.209 140.856 103.216 144.194C97.4448 147.309 89.565 148.867 79.5768 148.867C69.3667 148.867 59.9337 147.198 51.2773 143.86C43.8535 140.726 37.8051 136.299 33.1326 130.58C32.4964 129.801 31.8858 128.998 31.3006 128.172L3.99991 155.209C9.77086 164.332 18.8709 171.342 31.3006 176.238C43.9523 180.911 58.9349 183.247 76.2477 183.247C89.1214 183.247 100.663 181.912 110.873 179.242C121.305 176.349 130.184 172.343 137.508 167.225C144.833 161.885 150.493 155.543 154.488 148.199C158.483 140.633 160.481 132.066 160.481 122.497C160.481 108.478 156.375 98.0192 148.163 91.1209C139.95 84.2225 128.63 79.2156 114.203 76.1002Z" fill="white"/>
</svg>
