<svg width="169" height="187" viewBox="0 0 169 187" fill="none" xmlns="http://www.w3.org/2000/svg">
<path d="M165.676 48.0832L166.83 47.5387L166.478 46.3122C162.62 32.8875 155.338 22.0409 144.641 13.8267C133.844 5.53578 118.375 1.5 98.4478 1.5C82.9431 1.5 69.0662 4.42914 56.8497 10.3251C44.8926 15.9806 34.8374 23.7938 26.7027 33.7617C18.5841 43.7098 12.3954 55.3385 8.12618 68.6281C3.85668 81.696 1.72754 95.6498 1.72754 110.481C1.72754 133.885 7.90511 152.219 20.4581 165.261C33.0342 178.328 51.3491 184.747 75.1421 184.747C85.4704 184.747 94.8294 183.509 103.205 181.013C111.56 178.523 119.247 174.897 126.259 170.135L126.273 170.126L126.286 170.116C133.277 165.142 139.696 159.156 145.544 152.166C151.365 145.208 157.175 137.141 162.974 127.972L163.766 126.72L162.524 125.913L132.226 106.219L131.049 105.454L130.208 106.578C124.235 114.562 118.948 120.965 114.342 125.802L114.34 125.803C109.944 130.431 105.912 134.03 102.243 136.627L102.225 136.64L102.208 136.653C98.7713 139.237 95.622 140.907 92.7562 141.736C89.7776 142.372 86.5713 142.694 83.1329 142.694C72.2434 142.694 64.897 140.073 60.6456 135.221C56.4807 129.988 54.3352 123.12 54.3352 114.486C54.3352 111.857 54.4448 109.114 54.6641 106.256C54.8827 103.408 55.208 101.035 55.6318 99.1227L55.6404 99.0835L55.647 99.044L58.9761 79.0165C60.9387 67.2105 65.0516 58.4255 71.1824 52.4862C77.5476 46.5343 85.2739 43.5535 94.4526 43.5535C104.062 43.5535 110.564 45.6432 114.366 49.4548C118.386 53.4851 121.611 58.9455 123.997 65.9054L124.541 67.4905L126.056 66.7755L165.676 48.0832Z" fill="white" stroke="white" stroke-width="3"/>
</svg>
