<svg width="187" height="187" viewBox="0 0 187 187" fill="none" xmlns="http://www.w3.org/2000/svg">
<path d="M104.666 179.002L104.383 180.742H106.146H154.755H156.026L156.235 179.488L184.868 7.25145L185.158 5.50546H183.388H134.779H133.508L133.299 6.75947L128.239 37.1956C125.654 26.3449 120.868 17.7654 113.813 11.5686C106.554 4.77167 95.9185 1.5 82.1746 1.5C69.9483 1.5 58.8154 4.33985 48.8092 10.0386C39.0468 15.5024 30.6716 23.343 23.6771 33.5203C16.6794 43.48 11.2889 55.5501 7.4803 69.6994C3.66614 83.6467 1.76807 99.2474 1.76807 116.489C1.76807 126.59 2.66356 135.821 4.46538 144.176L4.46943 144.195L4.47396 144.214C6.50578 152.588 9.56428 159.876 13.6716 166.053L13.6789 166.064L13.6864 166.075C17.8233 172.066 23.1209 176.685 29.5639 179.915L29.5732 179.92L29.5826 179.924C36.2709 183.161 44.2749 184.747 53.5418 184.747C61.0122 184.747 67.6423 183.613 73.4019 181.305C79.3282 179.019 84.5841 175.814 89.1585 171.689C93.9207 167.595 98.1116 162.823 101.731 157.381C104.83 152.811 107.777 147.876 110.573 142.577L104.666 179.002ZM103.009 128.198L102.987 128.224L102.966 128.25C99.0602 133.254 94.8593 137.131 90.3731 139.915C85.9712 142.647 80.9227 144.029 75.1826 144.029C67.1048 144.029 61.8143 141.395 58.8353 136.433C55.8851 131.142 54.2622 124.509 54.043 116.469C54.0435 113.621 54.1529 111.004 54.3696 108.614L54.3706 108.602C54.5885 105.98 54.9133 103.713 55.339 101.793L55.3476 101.754L55.3542 101.714L58.6831 81.6909C58.6832 81.69 58.6834 81.689 58.6836 81.6881C60.8737 68.7358 65.1161 59.0346 71.2855 52.423L71.2936 52.4143L71.3015 52.4055C77.386 45.6744 86.1477 42.2183 97.8227 42.2183C108.316 42.2183 115.202 44.6392 118.993 49.0408L119.006 49.0552L119.018 49.0694C123.038 53.5017 124.488 59.9772 122.979 68.8388L122.979 68.8418L118.318 96.5464L118.316 96.5553L118.315 96.5643C117.232 103.513 115.071 109.785 111.844 115.396C108.539 120.918 105.594 125.175 103.009 128.198Z" fill="white" stroke="white" stroke-width="3"/>
</svg>
