<svg width="171" height="187" viewBox="0 0 171 187" fill="none" xmlns="http://www.w3.org/2000/svg">
<path d="M20.7409 164.909L20.7497 164.918C33.3457 178.235 52.684 184.747 78.4391 184.747C89.4244 184.747 99.2247 183.511 107.823 181.016C116.378 178.533 124.058 175.14 130.849 170.828L130.864 170.819L130.878 170.809C137.63 166.296 143.604 161.213 148.794 155.557C154.169 149.72 159.096 143.545 163.576 137.033L164.448 135.764L163.157 134.925L132.86 115.231L131.697 114.475L130.852 115.576C126.439 121.327 122.376 126.059 118.662 129.783C115.18 133.274 111.602 136.207 107.931 138.589C104.523 140.723 100.912 142.212 97.0907 143.063L97.0816 143.065L97.0725 143.068C93.4321 143.926 89.3328 144.363 84.7651 144.363C73.1469 144.363 65.1901 141.934 60.5 137.437C55.776 132.906 53.3038 126.231 53.3038 117.157V117.151V117.146V117.141V117.136V117.131V117.125V117.12V117.115V117.11V117.105V117.099V117.094V117.089V117.084V117.079V117.073V117.068V117.063V117.058V117.053V117.048V117.042V117.037V117.032V117.027V117.022V117.017V117.012V117.006V117.001V116.996V116.991V116.986V116.981V116.976V116.97V116.965V116.96V116.955V116.95V116.945V116.94V116.935V116.93V116.924V116.919V116.914V116.909V116.904V116.899V116.894V116.889V116.884V116.879V116.874V116.868V116.863V116.858V116.853V116.848V116.843V116.838V116.833V116.828V116.823V116.818V116.813V116.808V116.803V116.798V116.793V116.788V116.783V116.778V116.773V116.768V116.763V116.757V116.752V116.747V116.742V116.737V116.732V116.727V116.722V116.717V116.712V116.707V116.702V116.697V116.692V116.688V116.683V116.678V116.673V116.668V116.663V116.658V116.653V116.648V116.643V116.638V116.633V116.628V116.623V116.618V116.613V116.608V116.603V116.598V116.593V116.588V116.583V116.579V116.574V116.569V116.564V116.559V116.554V116.549V116.544V116.539V116.534V116.529V116.525V116.52V116.515V116.51V116.505V116.5V116.495V116.49V116.485V116.481V116.476V116.471V116.466V116.461V116.456V116.451V116.446V116.442V116.437V116.432V116.427V116.422V116.417V116.413V116.408V116.403V116.398V116.393V116.388V116.384V116.379V116.374V116.369V116.364V116.359V116.355V116.35V116.345V116.34V116.335V116.331V116.326V116.321V116.316V116.312V116.307V116.302V116.297V116.292V116.288V116.283V116.278V116.273V116.269V116.264V116.259V116.254V116.25V116.245V116.24V116.235V116.231V116.226V116.221V116.216V116.212V116.207V116.202V116.197V116.193V116.188V116.183V116.179V116.174V116.169V116.164V116.16V116.155V116.15V116.146V116.141V116.136V116.132V116.127V116.122V116.117V116.113V116.108V116.103V116.099V116.094V116.089V116.085V116.08V116.075V116.071V116.066V116.061V116.057V116.052V116.048V116.043V116.038V116.034V116.029V116.024V116.02V116.015V116.01V116.006V116.001V115.997V115.992V115.987V115.983V115.978V115.974V115.969V115.964V115.96V115.955V115.951V115.946V115.941V115.937V115.932V115.928V115.923V115.919V115.914V115.909V115.905V115.9V115.896V115.891V115.887V115.882V115.878V115.873V115.868V115.864V115.859V115.855V115.85V115.846V115.841V115.837V115.832V115.828V115.823V115.819V115.814V115.81V115.805V115.801V115.796V115.792V115.787V115.783V115.778V115.774V115.769V115.765V115.76V115.756V115.751V115.747V115.742V115.738V115.733V115.729V115.724V115.72V115.715V115.711V115.707V115.702V115.698V115.693V115.689V115.684V115.68V115.675V115.671V115.667V115.662V115.658V115.653V115.649V115.644V115.64V115.636V115.631V115.627V115.622V115.618V115.614V115.609V115.605V115.6V115.596V115.592V115.587V115.583V115.578V115.574V115.57V115.565V115.561V115.557V115.552V115.548V115.544V115.539V115.535V115.53V115.526V115.522V115.517V115.513V115.509V115.504V115.5V115.496V115.491V115.487V115.483V115.478V115.474V115.47V115.466V115.461V115.457V115.453V115.448V115.444V115.44V115.435V115.431V115.427V115.423V115.418V115.414V115.41V115.405V115.401V115.397V115.393V115.388V115.384V115.38V115.376V115.371V115.367V115.363V115.359V115.354V115.35V115.346V115.342V115.337V115.333V115.329V115.325V115.32V115.316V115.312V115.308V115.304V115.299V115.295V115.291V115.287V115.282V115.278V115.274V115.27V115.266V115.262V115.257V115.253V115.249V115.245V115.241V115.236V115.232V115.228V115.224V115.22V115.216V115.211V115.207V115.203V115.199V115.195V115.191V115.187V115.182V115.178V115.174V115.17V115.166V115.162V115.158V115.153V115.149V115.145V115.141V115.137V115.133V115.129V115.125V115.121V115.116V115.112V115.108V115.104V115.1V115.096V115.092V115.088V115.084V115.08V115.076V115.072V115.067V115.063V115.059V115.055V115.051V115.047V115.043V115.039V115.035V115.031V115.027V115.023V115.019V115.015V115.011V115.007V115.003V114.999V114.995V114.991V114.987V114.983V114.979V114.975V114.971V114.966V114.962V114.958V114.954V114.95V114.946V114.943V114.939V114.935V114.931V114.927V114.923V114.919V114.915V114.911V114.907V114.903V114.899V114.895V114.891V114.887V114.883V114.879V114.875V114.871V114.867V114.863V114.859V114.855V114.851V114.847V114.844V114.84V114.836V114.832V114.828V114.824V114.82C53.3038 114.303 53.3474 113.676 53.4399 112.934C77.3365 112.009 96.7896 109.681 111.765 105.927L111.772 105.926L111.78 105.924C127.174 101.898 139.121 97.0596 147.533 91.3613L147.54 91.3564C156.128 85.4655 162.025 78.918 165.055 71.6721C168.011 64.606 169.5 57.5116 169.5 50.3983C169.5 42.1821 167.792 35.0183 164.312 28.9656C160.868 22.754 156.157 17.6848 150.194 13.7727C144.263 9.65921 137.333 6.59179 129.425 4.55278C121.742 2.51428 113.512 1.5 104.742 1.5C89.2577 1.5 75.1875 4.08776 62.5531 9.29017C49.9368 14.4851 39.1042 21.8347 30.0743 31.3404L30.0678 31.3473L30.0613 31.3543C21.2589 40.858 14.3912 52.269 9.44651 65.5636C4.49291 78.8823 2.02783 93.638 2.02783 109.813C2.02783 133.003 8.20921 151.431 20.7409 164.909ZM73.4014 48.2171L73.4114 48.2089L73.4213 48.2005C80.6755 41.9972 89.4225 38.8805 99.7473 38.8805C106.685 38.8805 111.61 40.2995 114.781 42.8827C117.893 45.4181 119.555 49.2737 119.555 54.7376C119.555 57.201 119.043 59.9218 117.977 62.9128C117.034 65.5612 114.595 68.2223 110.294 70.8094L110.279 70.8183L110.265 70.8275C106.266 73.3592 99.9188 75.6504 91.0936 77.6411L91.0856 77.643C82.9196 79.5322 71.6846 80.9323 57.3455 81.8277L57.9319 79.084L57.9334 79.0766C61.0078 64.3257 66.2285 54.1393 73.4014 48.2171Z" fill="white" stroke="white" stroke-width="3"/>
</svg>
