<svg width="199" height="249" viewBox="0 0 199 249" fill="none" xmlns="http://www.w3.org/2000/svg">
<path d="M43.6079 5.50546H42.3378L42.1284 6.75813L2.17532 245.753L1.88321 247.5H3.65479H52.2641H53.5326L53.7433 246.249L70.121 149.045C72.6961 159.905 77.3673 168.588 84.1992 174.995L84.2174 175.012L84.2361 175.029C91.7103 181.585 102.44 184.747 116.188 184.747C128.405 184.747 139.427 182.023 149.216 176.545L149.226 176.54C159.197 170.86 167.682 163.027 174.681 153.067L174.686 153.061L174.69 153.054C181.681 142.88 187.072 130.815 190.882 116.885L190.883 116.879C194.696 102.712 196.595 87.0016 196.595 69.7583C196.595 59.654 195.588 50.4158 193.561 42.0528C191.752 33.6772 188.804 26.4864 184.684 20.5167C180.544 14.2957 175.129 9.55879 168.457 6.32751C161.981 3.08343 154.081 1.5 144.821 1.5C137.345 1.5 130.61 2.63563 124.638 4.93831L124.629 4.94191L124.62 4.94564C118.914 7.23389 113.667 10.4366 108.885 14.5463L108.871 14.5582L108.858 14.5703C104.319 18.6658 100.135 23.5443 96.3024 29.195L96.2948 29.2064C93.3821 33.5867 90.5483 38.4035 87.7924 43.6547L93.6974 7.2456L93.9796 5.50546H92.2168H43.6079ZM143.024 84.4541L143.015 84.4933L143.009 84.5328L139.68 104.556C137.491 117.503 133.25 127.325 127.07 134.166C120.989 140.678 112.225 144.029 100.54 144.029C90.0682 144.029 83.0474 141.617 79.0245 137.192C75.2182 132.763 73.873 126.279 75.3837 117.408L75.3842 117.405L80.0453 89.7008L80.0468 89.6919L80.0482 89.6829C81.1316 82.7315 83.2926 76.5763 86.5124 71.1961L86.519 71.1851L86.5254 71.174C89.8335 65.4253 92.7767 61.064 95.3544 58.0489L95.3762 58.0235L95.3967 57.9971C99.3028 52.9933 103.504 49.1164 107.99 46.3321C112.392 43.6002 117.44 42.2183 123.18 42.2183C131.273 42.2183 136.427 44.8593 139.183 49.7946L139.194 49.8142L139.206 49.8334C142.369 55.1191 144.101 61.7432 144.32 69.7784C144.319 72.6239 144.21 75.3555 143.993 77.9735C143.775 80.3674 143.451 82.5261 143.024 84.4541Z" fill="white" stroke="white" stroke-width="3"/>
</svg>
