<svg width="1159" height="395" viewBox="0 0 1159 395" fill="none" xmlns="http://www.w3.org/2000/svg">
<mask id="path-1-inside-1_228_152" fill="white">
<path fill-rule="evenodd" clip-rule="evenodd" d="M953 0L1053.4 156.416H1063L1135 189.884V271.416H1145V266.416H1159V324.416H1145V319.416H1083.11C1077.59 284.285 1047.18 257.416 1010.5 257.416C969.907 257.416 937 290.323 937 330.916C937 338.396 938.117 345.615 940.195 352.416H920L540.805 352.416C542.883 345.615 544 338.396 544 330.916C544 290.323 511.093 257.416 470.5 257.416C429.907 257.416 397 290.323 397 330.916C397 338.396 398.117 345.615 400.194 352.416H340V0.415669H953V0Z"/>
</mask>
<path d="M1053.4 156.416L1050.87 158.036L1051.76 159.416H1053.4V156.416ZM953 0L955.525 -1.62047L950 -10.2279V0H953ZM1063 156.416L1064.26 153.695L1063.66 153.416H1063V156.416ZM1135 189.884H1138V187.971L1136.26 187.164L1135 189.884ZM1135 271.416H1132V274.416H1135V271.416ZM1145 271.416V274.416H1148V271.416H1145ZM1145 266.416V263.416H1142V266.416H1145ZM1159 266.416H1162V263.416H1159V266.416ZM1159 324.416V327.416H1162V324.416H1159ZM1145 324.416H1142V327.416H1145V324.416ZM1145 319.416H1148V316.416H1145V319.416ZM1083.11 319.416L1080.14 319.882L1080.54 322.416H1083.11V319.416ZM940.195 352.416V355.416H944.248L943.064 351.539L940.195 352.416ZM920 352.416V355.416V352.416ZM540.805 352.416L537.936 351.539L536.752 355.416H540.805V352.416ZM400.194 352.416V355.416H404.248L403.064 351.539L400.194 352.416ZM340 352.416H337V355.416H340V352.416ZM340 0.415669V-2.58433H337V0.415669H340ZM953 0.415669V3.41567H956V0.415669H953ZM1055.92 154.795L955.525 -1.62047L950.475 1.62047L1050.87 158.036L1055.92 154.795ZM1063 153.416H1053.4V159.416H1063V153.416ZM1136.26 187.164L1064.26 153.695L1061.74 159.136L1133.74 192.605L1136.26 187.164ZM1138 271.416V189.884H1132V271.416H1138ZM1145 268.416H1135V274.416H1145V268.416ZM1142 266.416V271.416H1148V266.416H1142ZM1159 263.416H1145V269.416H1159V263.416ZM1162 324.416V266.416H1156V324.416H1162ZM1145 327.416H1159V321.416H1145V327.416ZM1142 319.416V324.416H1148V319.416H1142ZM1083.11 322.416H1145V316.416H1083.11V322.416ZM1010.5 260.416C1045.68 260.416 1074.85 286.188 1080.14 319.882L1086.07 318.95C1080.32 282.383 1048.68 254.416 1010.5 254.416V260.416ZM940 330.916C940 291.98 971.564 260.416 1010.5 260.416V254.416C968.25 254.416 934 288.666 934 330.916H940ZM943.064 351.539C941.072 345.02 940 338.096 940 330.916H934C934 338.696 935.162 346.211 937.325 353.292L943.064 351.539ZM920 355.416H940.195V349.416H920V355.416ZM540.805 355.416L920 355.416V349.416L540.805 349.416V355.416ZM541 330.916C541 338.096 539.928 345.02 537.936 351.539L543.675 353.292C545.837 346.211 547 338.696 547 330.916H541ZM470.5 260.416C509.436 260.416 541 291.98 541 330.916H547C547 288.666 512.75 254.416 470.5 254.416V260.416ZM400 330.916C400 291.98 431.564 260.416 470.5 260.416V254.416C428.25 254.416 394 288.666 394 330.916H400ZM403.064 351.539C401.072 345.02 400 338.096 400 330.916H394C394 338.696 395.162 346.211 397.325 353.292L403.064 351.539ZM340 355.416H400.194V349.416H340V355.416ZM337 0.415669V352.416H343V0.415669H337ZM953 -2.58433H340V3.41567H953V-2.58433ZM950 0V0.415669H956V0H950Z" fill="#0054F8" mask="url(#path-1-inside-1_228_152)"/>
<path d="M533 331.416C533 366.209 504.794 394.416 470 394.416C435.206 394.416 407 366.209 407 331.416C407 296.622 435.206 268.416 470 268.416C504.794 268.416 533 296.622 533 331.416Z" fill="#0054F8"/>
<path d="M505 330.916C505 349.969 489.554 365.416 470.5 365.416C451.446 365.416 436 349.969 436 330.916C436 311.862 451.446 296.416 470.5 296.416C489.554 296.416 505 311.862 505 330.916Z" fill="white"/>
<circle cx="1011" cy="331.416" r="63" fill="#0054F8"/>
<path d="M805.5 16.9155H946.5V242.591L905.533 332.916H805.5V16.9155Z" stroke="#0054F8" stroke-width="3"/>
<path d="M1045 330.916C1045 349.969 1029.55 365.416 1010.5 365.416C991.446 365.416 976 349.969 976 330.916C976 311.862 991.446 296.416 1010.5 296.416C1029.55 296.416 1045 311.862 1045 330.916Z" fill="white"/>
<circle cx="1011" cy="331.416" r="63" fill="#0054F8"/>
<path d="M1045 330.916C1045 349.969 1029.55 365.416 1010.5 365.416C991.446 365.416 976 349.969 976 330.916C976 311.862 991.446 296.416 1010.5 296.416C1029.55 296.416 1045 311.862 1045 330.916Z" fill="white"/>
<rect x="557" y="311.416" width="235" height="23" fill="#0054F8"/>
<rect x="354" y="211.416" width="438" height="23" fill="#0054F8"/>
<rect x="1157.32" y="268.421" width="54.8059" height="12.2891" transform="rotate(90.0279 1157.32 268.421)" fill="#0054F8"/>
<rect x="818" y="27.4155" width="116" height="164" fill="#0054F8"/>
<path d="M958 27.4155L1042 165.416V191.416H958V27.4155Z" fill="#0054F8"/>
<path d="M958 27.4155L1042 165.416V191.416H958V27.4155Z" fill="#0054F8"/>
<rect x="353" y="308.416" width="32" height="23" fill="#0054F8"/>
<rect x="818" y="211.416" width="28" height="3" fill="#0054F8"/>
<rect x="818" y="217.416" width="28" height="3" fill="#0054F8"/>
<rect x="818" y="223.416" width="28" height="3" fill="#0054F8"/>
<rect x="818" y="229.416" width="28" height="3" fill="#0054F8"/>
<rect x="818" y="235.416" width="28" height="3" fill="#0054F8"/>
<rect x="818" y="241.416" width="28" height="3" fill="#0054F8"/>
<rect x="818" y="247.416" width="28" height="3" fill="#0054F8"/>
<circle cx="470.5" cy="330.916" r="7.5" fill="#0054F8"/>
<circle cx="470.5" cy="330.916" r="7.5" fill="#0054F8"/>
<circle cx="1010.5" cy="330.916" r="7.5" fill="#0054F8"/>
<line y1="392.5" x2="1090" y2="392.5" stroke="#0054F8" stroke-width="3"/>
</svg>
