<svg width="46" height="61" viewBox="0 0 46 61" fill="none" xmlns="http://www.w3.org/2000/svg">
<path d="M0.955 61L10.985 0.139997H17.615L13.28 26.32C13.11 27.2833 12.9967 28.1617 12.94 28.955C12.8833 29.6917 12.855 30.2867 12.855 30.74C12.855 33.3467 13.45 35.415 14.64 36.945C15.8867 38.4183 17.7567 39.155 20.25 39.155C22.1767 39.155 23.8767 38.73 25.35 37.88C26.88 37.03 28.2683 35.8683 29.515 34.395C29.7417 34.1117 30.0817 33.6867 30.535 33.12C31.045 32.4967 31.555 31.76 32.065 30.91C32.575 30.0033 33.0567 29.0117 33.51 27.935C33.9633 26.8017 34.3033 25.6117 34.53 24.365L38.525 0.139997H45.155L37.93 44H31.3L33 33.63H32.66C32.0367 34.99 31.3 36.35 30.45 37.71C29.6567 39.0133 28.6933 40.2317 27.56 41.365C26.4267 42.4417 25.1233 43.32 23.65 44C22.1767 44.68 20.505 45.02 18.635 45.02C16.595 45.02 14.895 44.5383 13.535 43.575C12.175 42.6117 11.2967 41.195 10.9 39.325H10.56L9.71 47.74L7.5 61H0.955Z" fill="#0054F8"/>
</svg>
