<svg width="361" height="333" viewBox="0 0 361 333" fill="none" xmlns="http://www.w3.org/2000/svg">
<path d="M9 333L133.434 163.919L16.0921 0H110.868L150.842 58.7268L181.789 105.192H186.303L217.25 58.7268L257.224 0H344.908L227.566 160.047L352 333H256.579L210.803 265.884L179.21 218.773H174.697L143.105 265.884L97.3289 333H9Z" fill="#0054F8"/>
<path d="M4.60535 214.942L3.47186 215.064L3.2862 216.189C2.49149 221.004 2.09214 225.82 2.08875 230.638C1.69537 235.432 1.5 241.002 1.5 247.344C1.5 273.678 7.02767 293.889 18.3218 307.737C29.6412 321.616 45.6025 328.5 65.9934 328.5C86.4117 328.5 103.868 321.206 118.278 306.655L118.285 306.648L118.292 306.641C132.538 291.858 143.518 267.56 151.372 233.983H152.806C152.962 263.121 157.688 286.096 167.126 302.772C176.845 319.946 192.688 328.5 214.352 328.5C227.565 328.5 241.709 325.064 256.768 318.261C271.875 311.437 289.077 299.441 308.365 282.35L308.366 282.349L337.802 256.193L338.839 255.272L338.002 254.167L307.388 213.744L306.517 212.595L305.334 213.42L224.236 269.974L218.542 267.099C216.717 261.081 215.629 255.651 215.259 250.801C214.87 245.302 214.674 238.406 214.674 230.106C214.674 221.828 215.065 211.956 215.848 200.486C216.631 189.03 217.804 176.978 219.37 164.329C221.325 151.696 223.671 139.46 226.406 127.621C229.526 115.417 233.225 104.412 237.5 94.5997C242.151 84.8201 247.352 77.0603 253.079 71.2728C259.106 65.574 265.805 62.7833 273.224 62.7833C277.531 62.7833 281.018 63.6807 283.767 65.3824C286.506 67.0775 288.623 69.6373 290.09 73.1551L290.095 73.1686L290.101 73.1821C293.106 80.0086 294.684 91.6247 294.684 108.244V108.249V108.254V108.258V108.263V108.268V108.273V108.277V108.282V108.287V108.292V108.297V108.302V108.307V108.312V108.317V108.322V108.327V108.332V108.337V108.342V108.347V108.352V108.357V108.362V108.368V108.373V108.378V108.383V108.389V108.394V108.399V108.405V108.41V108.415V108.421V108.426V108.432V108.437V108.443V108.448V108.454V108.459V108.465V108.471V108.476V108.482V108.488V108.493V108.499V108.505V108.511V108.517V108.522V108.528V108.534V108.54V108.546V108.552V108.558V108.564V108.57V108.576V108.582V108.588V108.594V108.6V108.606V108.613V108.619V108.625V108.631V108.638V108.644V108.65V108.657V108.663V108.669V108.676V108.682V108.689V108.695V108.701V108.708V108.715V108.721V108.728V108.734V108.741V108.748V108.754V108.761V108.768V108.774V108.781V108.788V108.795V108.802V108.808V108.815V108.822V108.829V108.836V108.843V108.85V108.857V108.864V108.871V108.878V108.885V108.892V108.9V108.907V108.914V108.921V108.928V108.936V108.943V108.95V108.958V108.965V108.972V108.98V108.987V108.995V109.002V109.01V109.017V109.025V109.032V109.04V109.047V109.055V109.063V109.07V109.078V109.086V109.093V109.101V109.109V109.117V109.125V109.133V109.14V109.148V109.156V109.164V109.172V109.18V109.188V109.196V109.204V109.212V109.22V109.229V109.237V109.245V109.253V109.261V109.269V109.278V109.286V109.294V109.303V109.311V109.319V109.328V109.336V109.345V109.353V109.362V109.37V109.379V109.387V109.396V109.404V109.413V109.422V109.43V109.439V109.448V109.456V109.465V109.474V109.483V109.492V109.5V109.509V109.518V109.527V109.536V109.545V109.554V109.563V109.572V109.581V109.59V109.599V109.608V109.618V109.627V109.636V109.645V109.654V109.664V109.673V109.682V109.692V109.701V109.71V109.72V109.729V109.739V109.748V109.758V109.767V109.777V109.786V109.796V109.805V109.815V109.825V109.834V109.844V109.854V109.863V109.873V109.883V109.893V109.903V109.912V109.922V109.932V109.942V109.952V109.962V109.972V109.982V109.992V110.002V110.012V110.022V110.032V110.042V110.053V110.063V110.073V110.083V110.094V110.104V110.114V110.124V110.135V110.145V110.156V110.166V110.176V110.187V110.197V110.208V110.218V110.229V110.239V110.25V110.261V110.271V110.282V110.293V110.303V110.314V110.325V110.336V110.346V110.357V110.368V110.379V110.39V110.401V110.412V110.423V110.434V110.445V110.456V110.467V110.478V110.489V110.5V110.511V110.522V110.534V110.545V110.556V110.567V110.579V110.59V110.601V110.612V110.624V110.635V110.647V110.658V110.67V110.681V110.693V110.704V110.716V110.727V110.739V110.75V110.762V110.774V110.785V110.797V110.809V110.821V110.832V110.844V110.856V110.868V110.88V110.892V110.903V110.915V110.927V110.939V110.951V110.963V110.975V110.987V111V111.012V111.024V111.036V111.048V111.06V111.073V111.085V111.097V111.109V111.122V111.134V111.146V111.159V111.171V111.184V111.196V111.209V111.221V111.234V111.246V111.259V111.271V111.284V111.297V111.309V111.322V111.335V111.347V111.36V111.373V111.386V111.399V111.411V111.424V111.437V111.45V111.463V111.476V111.489V111.502V111.515V111.528V111.541V111.554V111.567V111.58V111.594V111.607V111.62V111.633V111.646V111.66V111.673V111.686V111.7V111.713V111.726V111.74V111.753V111.767V111.78V111.794V111.807V111.821V111.834V111.848V111.861V111.875V111.889V111.902V111.916V111.93V111.944V111.957V111.971V111.985V111.999V112.013V112.027V112.041V112.054V112.068V112.082V112.096V112.11V112.124V112.139V112.153V112.167V112.181V112.195V112.209V112.223V112.238V112.252V112.266V112.28V112.295V112.309V112.323V112.338V112.352V112.367V112.381V112.396V112.41V112.425V112.439V112.454V112.468V112.483V112.498V112.512V112.527V112.542V112.556V112.571V112.586V112.601V112.615V112.63V112.645V112.66V112.675V112.69V112.705V112.72V112.735V112.75V112.765V112.78V112.795V112.81V112.825V112.84V112.856V112.871V112.886V112.901V112.916V112.932V112.947V112.962V112.978V112.993V113.009V113.024V113.039V113.055V113.07V113.086V113.101V113.117V113.133V113.148V113.164V113.179V113.195V113.211V113.227V113.242V113.258V113.274V113.29V113.306V113.321V113.337V113.353V113.369V113.385V113.401V113.417V113.433V113.449V113.465V113.481V113.497V113.513V113.53V113.546V113.562V113.578V113.594C294.684 116.301 294.492 119.414 294.104 122.941L293.9 124.797L295.756 124.597L356.395 118.058L357.528 117.936L357.714 116.811C358.509 111.996 358.908 107.18 358.911 102.362C359.305 97.5682 359.5 91.9978 359.5 85.6555C359.5 59.3216 353.972 39.1107 342.678 25.263C331.359 11.3845 315.397 4.5 295.007 4.5C274.578 4.5 257.12 12.0003 242.715 26.9458C228.46 41.3437 217.48 65.452 209.628 99.0166H208.194C208.126 85.6697 207.142 73.4107 205.237 62.2444C203.649 50.6309 200.665 40.5592 196.255 32.0593C191.824 23.5175 185.762 16.7746 178.069 11.8686C170.303 6.9163 160.382 4.5 148.415 4.5C134.409 4.5 120.63 8.13821 107.093 15.3731C94.0561 22.155 80.0572 31.1168 65.098 42.2465L65.0933 42.25L23.8827 73.1611L22.7018 74.0469L23.5685 75.2418L54.1821 117.447L55.0339 118.622L56.236 117.81L137.365 63.0016L143.509 65.8649C144.232 71.1536 144.779 76.9863 145.151 83.365L145.154 83.4137L145.16 83.4621C145.937 89.7384 146.326 96.2157 146.326 102.894C146.326 115.506 145.35 131.302 143.39 150.296L143.389 150.311L143.387 150.327C141.824 169.265 138.699 187.807 134.01 205.953L134.008 205.964L134.005 205.975C129.717 223.685 123.686 238.991 115.932 251.913C108.273 264.282 98.8876 270.217 87.7761 270.217C83.4559 270.217 79.9576 269.363 77.2019 267.748C74.4646 266.143 72.3612 263.729 70.9046 260.426C67.8891 253.185 66.3159 241.355 66.3159 224.756V224.751V224.746V224.741V224.737V224.732V224.727V224.722V224.718V224.713V224.708V224.703V224.698V224.693V224.688V224.683V224.678V224.673V224.668V224.663V224.658V224.653V224.648V224.643V224.638V224.632V224.627V224.622V224.617V224.611V224.606V224.601V224.595V224.59V224.585V224.579V224.574V224.568V224.563V224.557V224.552V224.546V224.54V224.535V224.529V224.524V224.518V224.512V224.506V224.501V224.495V224.489V224.483V224.478V224.472V224.466V224.46V224.454V224.448V224.442V224.436V224.43V224.424V224.418V224.412V224.406V224.4V224.393V224.387V224.381V224.375V224.369V224.362V224.356V224.35V224.343V224.337V224.331V224.324V224.318V224.311V224.305V224.298V224.292V224.285V224.279V224.272V224.266V224.259V224.252V224.246V224.239V224.232V224.226V224.219V224.212V224.205V224.198V224.192V224.185V224.178V224.171V224.164V224.157V224.15V224.143V224.136V224.129V224.122V224.115V224.107V224.1V224.093V224.086V224.079V224.072V224.064V224.057V224.05V224.042V224.035V224.028V224.02V224.013V224.005V223.998V223.99V223.983V223.975V223.968V223.96V223.953V223.945V223.937V223.93V223.922V223.914V223.906V223.899V223.891V223.883V223.875V223.867V223.86V223.852V223.844V223.836V223.828V223.82V223.812V223.804V223.796V223.788V223.78V223.771V223.763V223.755V223.747V223.739V223.73V223.722V223.714V223.706V223.697V223.689V223.681V223.672V223.664V223.655V223.647V223.638V223.63V223.621V223.613V223.604V223.596V223.587V223.578V223.57V223.561V223.552V223.544V223.535V223.526V223.517V223.508V223.499V223.491V223.482V223.473V223.464V223.455V223.446V223.437V223.428V223.419V223.41V223.401V223.391V223.382V223.373V223.364V223.355V223.346V223.336V223.327V223.318V223.308V223.299V223.29V223.28V223.271V223.261V223.252V223.242V223.233V223.223V223.214V223.204V223.195V223.185V223.175V223.166V223.156V223.146V223.137V223.127V223.117V223.107V223.097V223.088V223.078V223.068V223.058V223.048V223.038V223.028V223.018V223.008V222.998V222.988V222.978V222.968V222.958V222.947V222.937V222.927V222.917V222.906V222.896V222.886V222.876V222.865V222.855V222.844V222.834V222.824V222.813V222.803V222.792V222.782V222.771V222.76V222.75V222.739V222.729V222.718V222.707V222.697V222.686V222.675V222.664V222.653V222.643V222.632V222.621V222.61V222.599V222.588V222.577V222.566V222.555V222.544V222.533V222.522V222.511V222.5V222.489V222.478V222.466V222.455V222.444V222.433V222.421V222.41V222.399V222.387V222.376V222.365V222.353V222.342V222.33V222.319V222.307V222.296V222.284V222.273V222.261V222.25V222.238V222.226V222.215V222.203V222.191V222.179V222.168V222.156V222.144V222.132V222.12V222.108V222.096V222.085V222.073V222.061V222.049V222.037V222.025V222.012V222V221.988V221.976V221.964V221.952V221.94V221.927V221.915V221.903V221.891V221.878V221.866V221.853V221.841V221.829V221.816V221.804V221.791V221.779V221.766V221.754V221.741V221.729V221.716V221.703V221.691V221.678V221.665V221.653V221.64V221.627V221.614V221.601V221.589V221.576V221.563V221.55V221.537V221.524V221.511V221.498V221.485V221.472V221.459V221.446V221.433V221.42V221.406V221.393V221.38V221.367V221.354V221.34V221.327V221.314V221.3V221.287V221.274V221.26V221.247V221.233V221.22V221.206V221.193V221.179V221.166V221.152V221.138V221.125V221.111V221.097V221.084V221.07V221.056V221.043V221.029V221.015V221.001V220.987V220.973V220.959V220.945V220.932V220.918V220.904V220.89V220.876V220.861V220.847V220.833V220.819V220.805V220.791V220.777V220.762V220.748V220.734V220.72V220.705V220.691V220.677V220.662V220.648V220.633V220.619V220.604V220.59V220.575V220.561V220.546V220.532V220.517V220.502V220.488V220.473V220.458V220.444V220.429V220.414V220.399V220.385V220.37V220.355V220.34V220.325V220.31V220.295V220.28V220.265V220.25V220.235V220.22V220.205V220.19V220.175V220.16V220.144V220.129V220.114V220.099V220.083V220.068V220.053V220.038V220.022V220.007V219.991V219.976V219.961V219.945V219.93V219.914V219.899V219.883V219.867V219.852V219.836V219.82V219.805V219.789V219.773V219.758V219.742V219.726V219.71V219.694V219.679V219.663V219.647V219.631V219.615V219.599V219.583V219.567V219.551V219.535V219.519V219.503V219.487V219.47V219.454V219.438V219.422V219.406C66.3159 216.699 66.5075 213.586 66.8956 210.059L67.0998 208.203L65.2438 208.403L4.60535 214.942Z" fill="white" stroke="#0054F8" stroke-width="3"/>
</svg>
